<svg xmlns="http://www.w3.org/2000/svg" width="1280" height="360" viewBox="0 0 1280 360" role="img" aria-label="KHEFTES-HAU-HESQET-[NEHA]-HRA">
  <metadata>palimpsest {"generation":36,"sha":"1f06d31c17960732d040c0f48e352b27a9d1b497","hour":1,"name":"USHEM-HAT-KHEFTIU-NU-RA","guardian":"","nomen":"","ḥꜣty":1,"anno":"1922-11-04","layers":13,"cap":14,"variant":"light","content":"USHEM-HAT-KHEFTIU-NU-RA","alt":"KHEFTES-HAU-HESQET-[NEHA]-HRA","strata":[{"i":0,"x":638.743,"y":178.136,"rot":-1.593,"opacity":0.019,"size":67.696,"legible":17,"content":"US EM-  T-KHE  IU-NU RA"},{"i":1,"x":647.843,"y":172.624,"rot":-0.269,"opacity":0.027,"size":85.511,"legible":13,"content":"S SHE -MAKET N B S"},{"i":2,"x":668.827,"y":168.07,"rot":-1.272,"opacity":0.038,"size":120,"legible":4,"content":"T   -BA  "},{"i":3,"x":663.421,"y":170.533,"rot":0.463,"opacity":0.053,"size":95.248,"legible":12,"content":"URT EM-SEK EM - "},{"i":4,"x":670.025,"y":171.951,"rot":-0.47,"opacity":0.073,"size":120,"legible":0,"content":""},{"i":5,"x":675.275,"y":180.653,"rot":0.209,"opacity":0.101,"size":73.378,"legible":17,"content":"ME PERI -A -AT-MAATU"},{"i":6,"x":670.948,"y":172.307,"rot":0.309,"opacity":0.14,"size":48.031,"legible":26,"content":"KHEFT S-HAU-H SQET-[NEHA]-H A"},{"i":7,"x":669.285,"y":168.29,"rot":-1.248,"opacity":0.194,"size":120,"legible":7,"content":"N BT-USH "},{"i":8,"x":659.686,"y":165,"rot":-0.218,"opacity":0.269,"size":61.708,"legible":21,"content":"TU T T-MAKETET-EN-NEB-S"},{"i":9,"x":656.903,"y":174.14,"rot":-0.032,"opacity":0.373,"size":55.391,"legible":23,"content":"TENTENIT-UHESE -KHAK-ABU"},{"i":10,"x":653.379,"y":169.168,"rot":-0.28,"opacity":0.518,"size":36.79,"legible":36,"content":"SE IT-NEBT-UAA-KHESFET-SEBA-EM-PERT-F"},{"i":11,"x":658.99,"y":173.933,"rot":0.159,"opacity":0.72,"size":80.736,"legible":20,"content":"palimpsest-ouroboros"},{"i":12,"x":655.668,"y":177.28,"rot":0,"opacity":1,"size":56.11,"legible":23,"content":"USHEM-HAT-KHEFTIU-NU-RA"}]}</metadata>
  <!--
    Chrysopoeia of Kleopatra. Alexandria, third century, copied and recopied until
    the earliest sheet anyone still holds is Venetian, eleventh century at best.

    A serpent drawn as a ring, its jaws closed on its own tail. Half the body is
    inked solid; the other half is left the colour of the sheet. Inside the ring,
    three words: hen to pan. The all is one.

    The half that is black and the half that is bare are not two creatures. They
    are one creature, and the drawing is the argument. Matter and spirit, the
    fixed and the volatile, the thing dissolved and the thing coagulated again —
    solve et coagula — are states of a single body that has to eat itself to
    continue.

    This file is that drawing, redrawn every twelve hours, and never twice the
    same. Each pass fades what the last pass said and writes over it without
    erasing it. What you see is the newest line. What is under it is still here,
    in the markup, going quiet at a rate of 0.72 a generation.
  -->
  <rect x="0" y="0" width="1280" height="360" fill="#d6cfc0"/>
  <g fill="none" stroke-width="1" shape-rendering="crispEdges">
    <path opacity="0.06" stroke="#0b0a09" d="M873.801 194.801v1M704.601 227.3h1M656.601 204.9v1M604.001 147.601h1M837.801 141.2h1M793.101 114v1M663.801 160.201h1M527.201 177.601v1M675.1 191.301h1M476.9 130.001h1M657.3 186.9v1M665.8 209.001h1M726.8 131.401v1M486.7 257.501v1M815.2 140.5h1M805.2 118v1M396.9 232.4h1M559.4 105.101v1M642 223.7h1M540.501 109.3v1M912.101 132.501h1M587.2 180.1h1M519.5 179.4v1M499.5 200.901h1M781.601 141.701v1M430.9 179.4h1M471.401 185.2v1M809.9 166.8v1M758.3 126.3v1M468.5 204.601v1M547.801 151.301h1M569.201 190.601v1M678.701 129.901v1M475.301 199.5h1M918.201 149.901h1M793.901 105.6h1M692.5 149.201v1M662.2 184.701v1M750.101 190.2h1M594.3 102.001v1M796.501 158.3h1M622.9 223.201h1M375.501 123.301v1M613.001 155.7h1M464.701 144.7h1M830.3 157.401v1M798.901 224.4v1M779 228.101v1M645.701 217.701h1M799.901 222.901v1M684.201 161v1M815.101 114.4h1M543.1 124.401h1M449.3 124.201v1M812.4 224.2v1M732.301 151.4v1M661.9 176.201h1M375.3 253.301v1M411.4 125.901v1M467.4 249.4v1M435.201 208.4v1M539.001 172.901v1M540.501 149.101h1M459.801 116.4v1M745.5 221.9v1M461.7 118.9v1M796.9 138.901v1M618.2 182.4h1M770.5 152.901h1M616 211.901h1M908.701 239.501v1M693.201 114.8h1M816.3 125v1M444.6 128.101v1M760.3 255.401h1M473.201 139.801h1M854.601 193.1v1M471.801 213.001h1M608.6 186.7v1M523.1 145.1v1M381.5 238.701h1M598.4 180.7h1M491 199.001h1M832.6 158.3v1M425.001 176.1v1M538.401 154.9v1M744.301 169.001h1M800.901 227.2h1M467.701 105.001v1M527.501 163.701h1M551.401 109.4v1M495.101 138v1M617.401 206.001h1M485.301 214.301h1M448.301 127.1h1M397.8 238.301h1M653.301 138.501h1M691.9 183.001h1M644.7 149.6v1M801.2 132.901v1M859.401 140.1h1M485.501 114.1h1M646.601 155.401v1M821.801 175.201v1M404.2 143.2v1M475 190.601h1M835.001 116.601v1M521.701 145.701h1M425.401 126.3v1M683.901 192h1M857.301 215.8v1M428.001 211.1h1M427.601 206.4v1M677.1 201.8v1M705 136.501h1M641.501 197.801h1M782.5 138.6v1M786 223.901v1M751.901 220.401v1M756.9 176.301h1M864.601 214.6v1M698.701 171.2h1M696.7 154.8v1M756.9 164.7h1M598.4 210.2v1M496.2 221.9v1M745.001 203.601v1M482.5 200h1M559.8 201.301v1M488.001 185.6h1M497.9 170.7h1M653.6 170.8v1M679.401 144.9v1M862.5 208.1h1M820.701 140.1v1M819.3 169.901h1M713.6 167.6v1M796.8 197.5v1M423.401 193.7v1M750.4 131.7v1M649.301 189.8v1M539.001 195.001h1M835.701 242.6v1M811.601 171.1h1M826.9 231.1v1M802.2 120.901h1M578.2 133.601h1M748.901 229.8h1M864.4 226.2v1M425.501 141.5v1M630.701 156.901v1M759.501 203.801v1M742.9 179.101h1M555.001 154.1v1M896.3 118v1M733.7 220.401h1M692.5 232.901v1M437.301 242.801v1M632.101 136.2v1M768.1 150.901h1M790.001 193.3h1M392.7 253.501v1M438.8 137.8h1M376 99.501h1M732.2 139.6h1M733.1 225.4h1M709.701 182.1v1M610.4 124.7h1M642.401 151.501h1M578.7 229.201h1M810.101 133.4h1M773.9 134.9v1M472.601 186.9v1M744.7 141.4v1M724.901 207.6h1M526.8 161.6v1M619.401 148.801v1M422.2 124.801v1M486.5 185.901v1M424.5 111.7h1M654.2 164h1M821.801 200.501h1M821.2 203.7v1M637.9 224.6h1M558.2 167v1M593.901 157h1M564.4 197.6h1M736.401 205.401v1M643.4 198.3h1M537.701 136v1M446.5 136v1M448.801 140.5h1M616 219.9v1M818.301 226v1M736.201 200.901h1M707.201 131.001v1M400 240.201v1M824.101 228.701v1M658.901 135.7v1M799.201 154.8v1M737.1 249.201h1"/>
    <path opacity="0.12" stroke="#0b0a09" d="M953.2 166.301h1M501.101 242.1v1M668.4 75.301h1M620.001 241.301v1M743.3 201.401h1M993.501 222.601v1M456.501 138.8v1M701.001 90.6h1M515.4 124.7v1M767.501 116.4v1M726 255.101v1M667.4 260.5h1M813.201 175.4v1M563.3 245.701h1M992.1 268.801h1M983.9 230.001v1M530 269.101h1M857.7 195.1h1M385.901 97.9h1M391.5 175.901v1M365.7 93.901h1M322.5 281.2h1M579.401 239.601h1M633.101 160.401v1M456.901 180.2v1M259.001 265.4h1M520.601 218.8v1M743.3 137.401h1M492.101 241.4v1M316.601 154.1h1M550.801 201.8h1M311.501 179.601v1M862.4 236.6v1M386.5 112.501h1M461.801 275.4v1M263.8 254.401h1M273.3 104.801h1M327.601 180.601v1M480.3 127.001h1M377.601 190.501h1M578.301 273.801h1M378.401 228.2h1M725.7 239.8v1M512.3 175.6v1M696.101 111.401h1M992.601 183.401v1M721.4 245.101h1M425.201 200.601h1M719.901 253.001v1M444.801 115.201v1M456.201 157.601h1M456.101 142.9v1M272.3 234.601v1M740.4 81.9h1M444.901 79.4v1M524.701 197.5h1M725.1 275h1M759.601 231.6v1M783.7 197.301h1M668.201 203.7v1M349.401 213.8v1M828.101 258.9h1M617.601 118.401v1M812.901 94.3h1M511.2 259.001h1M604.901 175.3h1M765.601 101v1M1012.4 143.301v1M583.8 279.3v1M837.901 143.101v1M948.8 220.401v1M717.3 164.401v1M753.101 181.8v1M469.401 158.4h1M876.6 261.9h1M518.601 175.4h1M750.001 203.9h1M521.601 265.4h1M698.301 123.901h1M948.9 278.7h1M594.1 149.501v1M923.601 66v1M681.3 120.601h1M730.4 192.4v1M375 238v1M986.3 225.9v1M452.601 153.2v1M527.801 271.9h1M679.6 225.801h1M505.3 250.101v1M390.3 144.3h1M1026.3 71.7v1M985.901 90.701v1M688.101 199.001h1M890.301 152.6h1M761.301 231.4v1M537.401 184.701v1M519.301 90.701v1M471.2 223.001v1M764.001 90h1M739.901 165.701v1M845 148.901v1M501.9 94.001h1M691 129.401h1M964.9 104.001h1M735.401 147.701h1M927.3 198.8h1M911.6 246.401h1M473.901 243.5h1M765.801 147.701v1M743.8 161.1h1M361.201 271.7h1M678.3 145h1M328.9 259.801h1M692.7 137.2v1M626.4 223.301h1M876.301 65.601v1M922.3 197.5v1M685.601 97.4h1M265.701 189.8v1M272.501 268.101v1M753.4 242.701v1M377.501 171.9h1M271.501 172v1M356.8 254.2v1M915.4 205.401v1M600.8 261v1M410.801 98.5v1M532.001 215.8h1M548.601 269.8h1M551.1 97.9h1M470.1 174v1M565.5 235.001v1M842.201 221.2v1M339.2 87.7h1M671.7 189.2h1M735.601 134.3h1M646.9 85.101h1M646.501 203.7h1M971.1 273.101h1M562.901 230.9h1M939.801 179.7v1M830.101 148.4h1M741.601 239.701v1M810.801 76.701h1M609 73.601h1M639 220.601h1M851.201 103.3h1M679.801 259.7h1M690.1 254.001h1M351.3 204.101h1M806.201 146.901h1M536.6 146.701v1M814.901 143.301h1M351.6 211h1M542.401 212.7h1M578.601 207.201h1M685.901 261.601v1M493.6 116.601h1M403.401 150.4h1M430.701 118.401h1M628.3 242.901h1M812.2 190.501h1M587.8 246.8h1M810.101 176.901v1M818.701 175.101v1M715.001 258.3v1M878.2 126.8v1M675.201 273.3v1M606.2 158h1M484.4 102.201h1M353.601 282v1M691.601 207.901v1M395.901 258.3v1M732 90h1M1003.801 173.201v1M646.2 289.7v1M457.9 188.7h1M663.7 134.501v1M709.8 166.601h1M951.4 110.8v1M881.601 158.6v1M818.8 142.401h1M375.701 153.701h1M478.501 242.1h1M251 216.7v1M293.801 197.401h1M851.201 264v1M703.701 228.4h1M799.201 161h1M355.701 250.6v1M849 176.501h1M535.7 141.3v1M384.901 143.101v1M558.901 85.4v1M521.2 203.001h1M958 80.601h1M870.601 218.7v1M367.6 245.101v1M1046.801 69.6h1M839.001 187.301h1M498.101 112v1M541.101 194.5h1M374 105.8h1M609.701 81.1v1M548.301 252.2v1M283.1 206.9v1M847.701 285.1v1M397.7 231h1M593.8 139.301v1M1013.001 176.1h1M642 194.9h1M820.701 126.1h1M333.801 142.401v1M709.3 142.3v1M869.4 118.9v1M445 241.4v1M769.7 286.801v1M846.7 225.9h1M319.701 189.601h1M878.2 176.7v1M728.101 184.701h1M569.8 241.501h1M545.701 275v1M402.401 118.8v1M846.8 282.901h1M289.2 153.5v1M953.5 94.701v1M471.301 268.201v1M600.5 116.1h1M878.8 180.601v1M978.801 161.1h1M240.201 134.8v1M484.001 101.901v1M434.6 171.401v1M401.701 184.6h1M936.1 233v1M427.601 81h1M771.801 92.601h1M973 85.2h1M874.301 85.301v1M989.901 201.701h1M926.301 122.201v1M878.9 182.1v1M612.4 158.1v1M808.8 270.3v1M940.701 78.7v1M576.701 94.001h1M287.301 178.301h1M517.101 72.9h1M435.601 268.501v1M692.7 163.4h1M715.4 106.101v1M511.2 226.901v1M1023.801 209.601h1M315.601 83.801h1M891.901 184.701h1M675 123.8v1M816.501 215.2v1M708.2 138.6h1M475.6 215.501h1M771.601 206.601h1M370.901 115.401h1M427.601 117.3v1M870.301 155.3h1M846.9 236.1h1M828.001 106.801v1M1052.2 158.501v1M626.801 215.8v1M701.5 105.101h1M282.601 180.901h1M575.801 293.8v1M333.6 227.8v1M823.4 110.8h1M573.8 172.401h1M271.701 240.501v1M994.001 226.6h1M870.301 88v1M391 91.901h1M357.301 143.601v1M391.301 202.501h1M854.801 83.9h1M324.401 143.9v1M479.6 191.401v1M771.7 244.701v1M556.101 244.301h1M961.201 114.701v1M535.6 201.701v1M568.101 88.301v1M295.3 203.9h1M914.301 281.801h1M779.601 100.3h1M719.601 106.4v1M777.9 98.201v1M321.301 198.4h1M536.201 151.7v1M703.9 172h1M356.001 281.7v1M453.1 257.701h1M723.001 193.9v1M601.5 126.9h1M414.801 258.5h1M505.8 162.701h1M337.101 148.1h1M339.8 206.9v1M877.601 252.2v1M683.7 167h1M609.901 126h1M996.101 216.4v1M569.901 122.801h1M737.6 259.1h1M913.6 183.001h1M932.6 165.001h1M482.801 216.3h1M941.5 98.1v1M889.301 109.3v1M795.3 204.4h1M720.4 182.5h1M479.401 112.6v1M926.6 202.4v1M750.601 157.7h1M634 152.4v1M784.2 256.9v1M463.001 138.6h1M876.2 111.5h1M351.8 140.7h1M339 238.6v1M746.301 192.4h1M855.001 145.3h1M591.2 228.501v1M639.9 177h1M733.8 203.501h1M938.1 170.401v1M501.701 225.7h1M784.6 166.301v1M528.8 174.501h1M1046.701 245.3h1M687.101 146v1M619.201 169.2v1M380.7 106.201h1M734.201 288.9v1M440.201 244.301h1M640.1 176.601h1M521.601 171.801h1M681 267.4v1M917.9 254.9v1M985.201 226.801h1M1045.2 137.401v1M580.1 138.2h1M581.7 223.401v1M467.4 267.1v1M302.101 252.9h1M603.8 254.9h1M990.7 274.201v1M884.1 200.2v1M424.3 226.101h1M498.201 87.801h1M851 140.301v1M906.3 136.2v1M627.5 203.7h1M366.5 177.2h1M475.801 262.1v1M789.901 92.801h1M959.2 81h1M611.5 144.9h1M906.701 234.001v1M1041.5 160.6h1M341.7 138.8h1M713.5 216.1h1M537.001 229.201h1M860.3 170.5h1M442.3 84.301v1M462.8 103.501v1M917.001 269.9v1M431.6 193.7v1M546 161.501v1M951.501 157.401v1M769.2 246.2h1M616 181.201h1M342.701 119.1h1M771.801 207.801v1M729.901 162.501v1M609.901 115.401h1M533.501 243.7v1M802.5 174.2h1M676.3 227.2h1M741.001 232.001v1M672.801 203.1v1M421.3 209.3h1M636.4 178.2h1M509.401 75.901v1M536.001 158.701h1M463.9 252.5v1M473.7 159.801v1M392.201 111.2v1M366.701 259.7h1M981.801 188.501h1M910.601 182.3v1M894.301 100.1v1M750.801 97.5v1M935.001 231h1M629.901 91h1M375.4 160.201h1M692.301 199.5v1M832 141.601h1M418.701 85.101h1M382.201 103.4v1M365.1 214v1M335.7 289.801v1M652 156.001v1M753.301 131.9h1M843.201 224.101v1M753.101 265.101v1M351.4 236.801h1M442.4 250.6v1M777.7 159h1M771.401 250.101v1M396.801 103.4v1M624.201 207.301v1M486.601 91.8v1M442.801 104.3v1M918.401 255.301v1M703.601 246.501v1M582 181.901v1M595.001 179.201h1M613.601 124.201v1M728.5 121.2h1M530 218.501h1M468.9 267.6v1M498.3 270.001h1M547.201 76.201h1M393.001 133.301h1M815.401 227.3h1M720.901 189.2v1M566.101 280.301v1M793.3 252.9h1M388.7 82h1M379.6 188.501h1M497.801 73.4v1M640.7 92.801v1M918.1 81.3h1M717.501 194.301h1M371.301 187.8v1M393.6 132.4h1M371.8 163.2h1M861.9 148.4h1M1023.7 156.401h1M890.901 80.3h1M559.901 170.2h1M782.8 168.301v1M759.1 188h1M575.6 229.001h1M547.7 140.1v1M948.5 182.4v1M381.7 219.501v1M877.5 238.401v1M688 239.3h1M811.2 75.6v1M468.1 183.101h1M335 137.401v1M649.4 98.9h1M678.8 197.401v1M527.3 270.8v1M894.201 232.801h1M1009.7 223.601v1M879.101 106.201v1M953.4 77.9v1M865.901 231.201h1M343.1 130.6v1M462.2 262.301v1M779.7 105.4h1M336.601 102.601h1M479 267.501h1M340.8 208.201h1M629.701 133.501v1M613.701 84.101v1M696.101 116.4v1M544.8 78.801h1M922.201 196.4v1M556.4 180.1v1M783.5 207.901v1M960.5 181.201h1M853.3 74.1v1M933 262.201h1M562.901 222.5h1M432.301 268.501h1M921.201 223.1h1M596.601 71.901v1M373.301 227.901h1M940.8 149.8v1M589.1 143.801h1M758.501 231.4h1M660.201 118.301h1M367.7 133.801h1M603.8 256.9v1M532.8 215.2h1M279.9 107.601h1M626.001 118.7h1M480.701 110.5h1M794.901 214.801v1M576.4 267.001v1M706.8 273.701h1M880.401 163.601v1M675 231.701v1M625.901 119.9v1M791.1 193.9h1M743.401 185.401h1M595.5 161.6v1M979.8 85.001h1M470.501 233.7h1M600.901 76.5h1M526.901 123.101h1M428.2 287.701h1M931.6 130.4h1M551.301 171.801v1M297.2 179.801h1M364.8 269.9v1M849.601 266.101v1M378.201 208.501v1M493.9 267.6h1M899.501 67.2v1M551.7 64.6v1M1025.401 210.7v1M447.6 99.9h1M423.401 91.901h1M658.901 223.801v1M778.401 271.301v1M261.401 265.2h1M630.8 187.9v1M316.2 106.801v1M832.201 146.101h1M766.301 194.801h1M368.701 156.901v1M347.2 100.4h1M892.901 81.501v1M546.201 123.901h1M983.201 263.9v1M609.3 176.801h1M341.401 215.301h1M853.3 165.201h1M354.001 191.501h1M841 93.701v1M496.3 277.1v1M727.8 207.201v1M419.101 259.1h1M615.401 165.5v1M668.3 222.601h1M831.301 266.901h1M1011.001 102.1v1M855.9 85.2h1M752.301 166.701v1M656.401 111.3v1M603.001 265.3h1M950.4 102.1h1M515.4 223.201h1M612.501 243.5v1M517.901 76.9h1M404.2 132.801h1M821.4 99.701h1M664.3 122.7v1M698.4 141.2v1M900.1 140.5h1M513.201 97.101v1M813.101 214.101v1M615.501 271.301v1M1019.2 195.501h1M385.101 176.1h1M393.901 262h1M416.1 193.3h1M738 157.5h1M668.801 285.1v1M671.001 224.6h1M717.4 283.001v1M225.301 284.9h1M338.501 182.801v1M971.901 160.9h1M560.4 133.4v1M460.801 174.8h1M457.101 114.8h1M603.301 227.8v1M577.201 134.101v1M353.4 209.5v1M795.4 131.601h1M295.001 152.2h1M968.9 111.801h1M369.5 135.7h1M520.4 153.001v1M528.4 252.801v1M321.5 148.1v1M544.7 287.9v1M586.2 154.1h1M783.5 138.701v1M785.6 77v1M578.801 243.7v1M818.1 270.8v1M701.5 230.701h1M820.2 172.501h1M357.7 144.601v1M690.201 192.2h1M530.301 74.6v1M537.401 241.4h1M462.8 284.3h1M957.401 117.8h1M496.901 164.901v1M870.801 235.5h1M836.001 134.701v1M623.501 84.301h1M1038.801 183.001v1M483.6 167.501h1M336.9 228.101h1M285.001 277.8v1M629.8 202.8v1M904.8 83.1v1M286.301 277.6h1"/>
    <path opacity="0.2" stroke="#0b0a09" d="M349.401 241.4v1M274.101 243.201v1M225 295.8h1M508.201 254.9v1M254.101 170v1M657.2 270.601v1M807.6 278.3h1M640.7 217.2h1M189.701 241.501h1M247.101 46.9v1M1040.301 291.801h1M209.101 124.001h1M291.801 143.4h1M463.301 124.401v1M671.001 318.701v1M983.801 297.701h1M871.601 197.401h1M868.501 225.601h1M997.401 135v1M872.2 63.3v1M1139.701 167.301v1M520.001 182.6h1M246.701 206.601v1M448.001 234.4v1M504.801 39.901h1M336.5 316.201v1M1043.401 208.201h1M791.2 115.201v1M259.701 302.401v1M941.201 105.901h1M408.601 84.4h1M640.301 247h1M264.301 65.401v1M454.201 110.301h1M755.601 60.2v1M310.101 146.701v1M327.5 278.801h1M1079.301 244.901v1M393.8 90.8v1M545.601 126.3v1M928.701 157h1M419.6 261.9h1M177.7 71.901h1M1098.2 57.2h1M831.601 39.6v1M768.301 246.2h1M567.801 105.301v1M802.2 133.101v1M1047.9 216.8v1M902.8 301.701v1M1017.401 292.201h1M544.6 116.601v1M248.401 118.301v1M636.2 240.801v1M1075.6 114.8h1M444.5 210.2v1M517 110.6v1M643.001 125.4v1M759.801 78.301v1M939.7 141.001h1M465.5 271.5h1M558 248.1h1M485.9 250.8h1M773 123.5v1M449.601 162.401v1M561.3 143.4h1M857.901 179.5h1M629.6 306.3v1M332.101 133.301h1M833.7 309.601v1M212.201 182.001h1M283.4 191.201v1M745.4 271.5v1M492.701 57.901v1M882.701 294.201h1M973.801 87.5h1M914 203.9h1M1061.9 285.801h1M392.1 273.2v1M415.5 74.901v1M559.8 110.5v1M653.001 139.801h1M351.2 141.701h1M490.901 68.701v1M687.6 222.101h1M892.101 283.8h1M375.8 63.701h1M693.001 42.101v1M1041.8 297.4v1M630.701 196.2h1M864.601 47.3h1M794.001 141.9h1M413.301 70.201v1M957.3 267.001v1M746.701 237.301v1M941.9 42.8v1M1065.4 183.401h1M411.001 242.6h1M647.701 139.301v1M1052.9 222.901h1M738.5 284.2v1M709.001 293.501h1M371.701 269.9v1M416.9 66.201h1M449.4 240v1M1072.101 184.501h1M877.001 87.101h1M568 280.4v1M182.5 279.5v1M439.1 174.501h1M766.7 296.7h1M814 65.3h1M1031.8 54.8h1M447 184.701v1M214.6 216.7v1M546.401 284h1M407.301 159.401v1M316.101 108.401v1M836.2 49v1M207.701 74.6h1M802.601 281.901h1M514.001 129.201v1M860.601 280.701h1M439.901 299.2h1M856.2 310.901h1M763.2 89.001h1M945.601 103.9h1M761.6 54.4h1M643.701 122.4h1M181.6 123.2h1M365.601 110.5v1M497.101 134.3h1M1017.401 183.3v1M360 184.801h1M938.201 120.601v1M755.5 269.601v1M1080 179.801v1M1025.401 300.101h1M1011.3 73.3h1M241 52.8v1M700.3 68.501v1M216.301 203.601h1M311.901 206.101v1M304.701 236.5v1M258.4 221.2v1M1042.801 189h1M237.7 53.7h1M819.201 274.901h1M788.6 286.801h1M485.701 251.8h1M493.6 231.701v1M501.001 102.701v1M640.7 151.201h1M481.5 93.6v1M1087.8 116.701h1M722.601 81.701h1M319.901 210.2h1M777.8 223.901v1M502.4 149.301v1M714.701 126.401v1M1091.401 154.201v1M651.801 139.301v1M1042.401 237.201h1M692.4 246.401v1M288.7 185.501h1M255.7 215.2v1M625.101 322.001v1M632.101 106.5v1M286.4 70.201h1M331.6 152.101v1M384.801 185.6h1M575.6 308.5v1M218.6 265.9h1M1016.1 142.2h1M820.001 157.1h1M461.901 167.301v1M1100.601 127.401v1M778.601 203.7h1M785.201 69.501v1M459.7 142.3h1M269.501 110.6h1M232.2 300.2v1M261.201 215.501h1M416.501 316.9v1M402.501 111.401v1M500.4 61h1M193.301 49.301h1M537.401 287.701v1M244.601 264.2v1M749.7 118.7h1M1030 202.8h1M887.601 246.101v1M896.901 37.501v1M966.901 79.801v1M999.401 45.201v1M410.5 249.4v1M722.5 131.001v1M344.101 95.7h1M864.7 144.7h1M704.401 150.901v1M531.2 85.301h1M938.4 254.601h1M259.101 278.9h1M558.601 218.1v1M656.001 61h1M972.001 89.9h1M221.601 147.2v1M806.5 220.601h1M475.501 242.501h1M303.3 224.901v1M253.901 206.701v1M480.3 293.8v1M318.401 296.801v1M814.301 169.701v1M915 137.8h1M647.101 123.701h1M682.3 61.7h1M1017.401 160.801h1M1085.901 54.001h1M1006.1 140.6v1M216.701 253.401h1M892.901 53.801h1M488.7 155.1v1M835.2 272.901h1M530.301 76.401v1M329.001 174.501v1M667.601 151.1v1M531.8 65.7h1M231.301 117.3h1M574.7 289.3v1M236.9 119.801h1M355.3 84.6h1M710.301 314.8v1M477.1 261.2h1M362.1 313.301h1M787.4 311.2v1M223.401 90.701h1M1087.701 70.3h1M871.9 274.301v1M393.4 309.3v1M336.601 218.7h1M220.101 301.8v1M860.401 245.5h1M329.801 142.401v1M846.1 268.301v1M417.1 309.5v1M553.8 287.201v1M511.5 79.5h1M419.001 247.9h1M454.5 314.701v1M690.401 285v1M372.301 69.501v1M1107.901 84.4h1M918.501 134h1M477.501 236.3v1M1028.701 122.7h1M512.5 286.501v1M942.301 166.101h1M1058.3 161.3h1M927.101 272.001h1M482.6 192.501h1M883.301 311.001v1M551 186.1h1M860.701 162.8h1M207.8 257.501v1M675.1 114v1M490.901 53.201h1M297.7 59.001h1M283.601 292.9h1M599.7 302.6v1M217.801 251v1M261.201 78.201h1M926.6 274.701v1M324.401 193.601h1M786.901 197.001v1M796.601 122.301h1M1003 102.201v1M1141.6 53.501h1M730.1 211.7v1M332.701 115.7h1M653.9 235.4h1M1098.501 83.1h1M779.7 74.4v1M979.501 170.401h1M769.601 278.5h1M161.6 269.2v1M551.6 85.8h1M650.5 194.4h1M168.4 153.001h1M1107.6 82.4v1M822.901 76.5v1M1079.7 150.8h1M648.6 250.6v1M296.301 89.701v1M541.8 291.301h1M1075.901 188.8h1M889.501 65.401v1M703.3 200.501h1M913.201 213.601h1M917.2 142.001v1M872.901 231h1M817.1 277v1M442.9 268.701h1M815.101 259.001h1M1039.2 118.6h1M1110.901 171.801v1M438.101 263.7h1M174.101 51.5h1M342.201 91.701v1M1086.801 140.801h1M620.7 231.4v1M899.9 106.801v1M278.8 202.701v1M847.701 213.601h1M855.2 314.901v1M242.201 239.8h1M983.5 261.9v1M278.8 280.101v1M990.1 88.5v1M296.001 67.701v1M264.701 234.5v1M728.9 142.701h1M1090.4 259.501h1M593.8 277.701h1M308.7 166.8h1M768.901 279.001h1M440.4 256.5v1M1047.9 164.901v1M507.6 57.001v1M876 296.201v1M912.4 172.1h1M214.801 204.4v1M814.2 142.001v1M217.4 136.901v1M356.2 248.1v1M206.9 141.4v1M609.801 224.6v1M370.101 162.201h1M1116.301 181.1h1M277.401 191.6h1M901.501 253.401v1M239.7 268.201h1M537.701 284.9h1M854.4 287v1M615.1 287.8h1M783.601 40h1M494.6 220.1v1M1063.801 240.801v1M954.401 156.201h1M403 310.901h1M270.3 102.9h1M790.401 304.101v1M600.901 237.6v1M1097.8 125h1M873.301 47.8h1M917.801 138v1M318.901 63.501v1M733.501 162.601h1M369.3 60.701v1M736.201 98.1v1M314.301 155.9v1M807.501 276.601v1M543.3 58.9v1M962.501 308.4v1M636.1 295.101h1M335.401 146.901v1M740.601 84.801v1M1057.7 300.3h1M798.7 88.2h1M936.9 251.2v1M286.9 170.2h1M931.901 271.5h1M1083.201 49.1v1M753.901 295.7v1M188.6 299.2v1M697.601 234.601h1M1001.501 128.001v1M859.201 246.9h1M1040.601 173.301h1M457.001 259.401h1M243 155.7h1M475.901 122.201v1M507.301 224.301h1M172.301 69.6v1M526.8 236.701h1M686.201 267.901v1M305.8 202.2h1M536.001 146.8h1M1029.3 91.101v1M795.601 199.5h1M709.701 140.201h1M1077.901 106.9h1M995.8 276.501h1M1045.2 41.501v1M435.9 145.2h1M740 305.7h1M595.9 172.3h1M886 136.301h1M298.001 231.6v1M1077.301 303v1M1097.8 69.901h1M410.7 265.101h1M700.801 55.4h1M342.8 249.501h1M661.3 175.3h1M671.1 274.301v1M345.201 234.7v1M417.5 230.601h1M724.7 228.301v1M971.3 166.601v1M711.701 235.5v1M192.5 249.501v1M265.701 120.001v1M281.1 226.6v1M457.601 257.1h1M910.5 270.2v1M1079.301 143.801h1M823.001 170h1M271.301 255.101h1M901.901 143.5v1M205.2 213.701h1M613.701 217.501v1M360 201.8v1M1108.601 48.8h1M330.001 206.3v1M401.3 122.9v1M822.801 88.101h1M999.501 223.401v1M809.201 284.501h1M580.3 170.9v1M274.2 41.2v1M218.201 169.001h1M398.701 135.7h1M710.501 303.3v1M719.901 272.801v1M201.001 164.401v1M466.801 241.501v1M669.4 129.401v1M890.001 285.501v1M994.8 246.501h1M853.601 250.901h1M853.501 255.301h1M182.001 292.701h1M618.901 59.501v1M624.801 235.601h1M339.4 204.101h1M184.2 48v1M717.501 157.7v1M232.6 190.4v1M905.301 92.601h1M173 258.9h1M840.501 242.001h1M912.9 215.401h1M753.501 77.1h1M1080.4 245.5v1M1037.9 54.8v1M700.1 92.401v1M727.3 235.701v1M962.7 215.301v1M429.801 260.401h1M515.501 129.801h1M435.001 307.1v1M714.501 52.7h1M741.901 68.6h1M936.8 183.401v1M535.6 149.4h1M923.301 152h1M1065.001 74.1h1M981.1 122.801v1M630.201 105.7v1M521.8 91.601v1M287.901 125.4v1M603.001 150.701h1M554.801 73.601v1M359.401 296.5h1M1071.8 282.701v1M383.1 72.101h1M867.201 269.101h1M788.5 218.8h1M661.701 306.601v1M818.601 210.801h1M918.401 275.4h1M173.601 317.201v1M318.801 127.301h1M835.701 57.701h1M1053.3 287.1v1M383.401 306.201h1M1109.801 86.101v1M247.301 126.9h1M851.301 64.5h1M529.9 307.1h1M914.501 251.501v1M469.1 307.2v1M269 124.201v1M327.1 204.101v1M578.601 293.4v1M819.3 211.201v1M1104.3 89.101v1M481.101 281h1M1095.001 238.401h1M1106.001 201.101v1M314.1 260.5h1M255.201 274.701v1M664.501 81.3h1M219.701 58.2h1M311.901 144.201v1M359 194.001v1M1028.701 51.5h1M277.6 165.301v1M1018.701 76.3v1M402.801 253.301v1M268.1 146.901v1M337.5 47.001h1M520.9 141.4v1M361.901 233.401h1M452.001 88.6h1M527.501 74.4v1M940.5 317.601h1M984.7 142.3v1M875.5 256.201v1M953.6 57.301v1M884.801 45h1M645.201 255.401v1M505 79.801v1M382.501 63.701h1M576.101 257.701v1M229.401 228.301h1M704.601 306.401h1M340 101.201v1M757.201 53.401h1M1060.6 86.301h1M493.6 58.2h1M831.5 282.901v1M323.3 230.3v1M428.4 112.701v1M607.1 287.701h1M1006.9 230.1v1M213.1 219.3h1M222.401 83.501h1M388.601 213.101v1M306.401 188.7v1M977.301 45.401v1M621.5 217.701v1M530.401 303.9h1M531.6 112.501v1M180.2 117.8h1M852.8 107.3v1M808.1 101.201h1M1092.401 215.701h1M966.6 151.201v1M921 159h1M1084.101 80.601v1M944.801 204.7v1M416.301 233h1M598.501 322.2v1M432.101 165.001v1M499.001 128.5h1M1029.9 290.001v1M739.8 283.9v1M505.1 251.101h1M534.501 191.201h1M706.9 245.101h1M201.7 122.9h1M268.501 133.301h1M535.201 135v1M438.001 108.3h1M1013.901 240.101v1M787.701 165.301h1M418.501 198.1h1M546.6 269.9h1M821.101 58.3v1M693.7 60.4h1M791.1 130.4v1M996.101 94.8v1M292.901 56.001h1M603.5 73.101v1M286.701 274.6h1M378.1 146.501h1M1045.2 157.601h1M633.301 51.801h1M707.201 88.801v1M298.901 52v1M642.1 138v1M479.501 139.901h1M819.8 182.3v1M824.701 202.2v1M538.401 107.701v1M564.901 281.7h1M669.6 209.5h1M941.9 64.4v1M357.301 170.2v1M225 249.501v1M681.701 69.501h1M434.501 210.401v1M874.2 154.401v1M489.701 262.8h1M193.401 212.7h1M179.4 104.4h1M210.401 251.301v1M158.501 201.6h1M185.9 243.801h1M302.6 275.701h1M951.701 184.701h1M699.8 299.501h1M555.6 237.4h1M413.301 84.501v1M495.2 168.7h1M589.1 211.8v1M184 66.701h1M298.4 180.2v1M502.901 199.401h1M499.001 58.3h1M345.1 247.201v1M799.201 290.4v1M668.701 153.4h1M1062.901 282.201h1M381.801 184.201h1M574.3 78.001h1M196.901 187.8v1M241.501 227.4v1M773.601 279.3v1M864.801 300v1M402.601 265.3h1M325 150.2h1M1044 221.401v1M1042.301 62.9h1M664.7 272.1h1M809.001 57.8v1M858.501 114.1h1M803.1 195.3h1M921.201 128.6v1M905 167.701v1M560.201 292.601h1M333.4 216.9h1M326.901 291.101v1M856.2 245.401h1M566.7 136.2v1M865.101 246v1M698.2 111.101v1M422.401 90.101h1M771.801 126v1M285.901 144.401v1M156.201 300.101v1M629.1 72.5v1M1129.301 297.601h1M714.401 174.4v1M385.701 163.701h1M498.401 108.601h1M801.501 285.501h1M1045.2 155.401h1M189.5 163.9v1M285.5 192.8v1M427.501 148.701h1M1014.3 235.8v1M471.301 117.601v1M585.1 307.501h1M558.5 258.5h1M303.4 287v1M906.701 146.501h1M850.101 208.201v1M697.5 173.001h1M427.601 300.3h1M442.4 217.701h1M564.701 111.5h1M982.4 183.5h1M989.901 239.2h1M596.401 93v1M589.3 262.501v1M403.8 155.201h1M1026.701 175.101v1M580.4 49.1v1M721.1 135.401v1M165.6 301.2v1M232.6 221.401v1M181.1 271.9h1M980.301 95.7v1M265.501 247.7h1M1007.9 187.1h1M1063.001 168.801v1M224.9 231.4h1M392.801 222.7v1M450.9 79.9h1M197.101 192.2h1M280.1 253.901h1M923.601 44.701h1M627.4 236.901h1M653.401 232.1v1M338.301 65.901h1M665.701 295.301h1M619.501 184.101v1M1001.8 73.701v1M274.9 99.8h1M981.1 219.3v1M1000.4 200h1M1059.5 57.001v1M835.001 86.8h1M445 97.5h1M1031.301 103.9v1M569.301 61.7v1M507.301 260.001v1M419.6 148.5h1M680.401 270.9v1M603.301 140.201h1M542.001 236.201v1M856.001 272.201v1M697.701 55.7v1M892.101 211.6h1M613.601 275.701v1M479.1 82.501h1M187 95.101h1M347.3 198.201v1M532.001 137v1M1021.501 149.6h1M314.301 267.7h1M365.1 229.201h1M743.5 280.101h1M649.6 163.1v1M783.2 286.4h1M398.201 225.101v1M200.3 303.2h1M851.101 182.5h1M778.201 287.701v1M841.401 261.2h1M545.1 190.4v1M375.3 274.301h1M553.101 94.701v1M457.8 178.701h1M613.2 143.301h1M362.1 56.7v1M393.701 154.8v1M1108.001 242.6v1M880.801 283.601v1M1114.801 196.601h1M831 268.201v1M925.501 301.901v1M649.701 263.3v1M1059.901 231.9v1M516.201 194.9h1M395.001 177.7v1M776.401 173.001v1M959.9 157.601h1M789.3 131.001v1M217.301 287.601v1M416.9 148.201v1M954.3 240.301v1M372.2 150.901h1M428.8 146.201v1M636.501 92.9v1M977.6 307.001v1M760.701 293.6v1M382.1 121.801v1M912.4 248.2v1M509.1 292.8h1M267.701 226.901h1M872.101 206.4h1M774.7 96.901v1M293.301 86.5v1M646.301 36.301h1M584.101 178.001v1M1002.901 231h1M460.001 216.4h1M1004.2 76.8h1M405.2 278.9v1M524.501 117.1v1M788.4 252.3h1M784.901 275.901v1M1001.701 298.501h1M803.801 287.1v1M520.001 301.8v1M555.4 109.701h1M826.501 289.9h1M865.4 220.201v1M347.4 157.301h1M297.2 128.6v1M495.501 254.601h1M361.801 160.9v1M297 214.701h1M508.5 276.3h1M184.901 182.801h1M508.5 227.101h1M165.5 42.5h1M961.101 285.7v1M522.701 121.2h1M752.901 249.3h1M451.501 269.9h1M222.5 156.8h1M525.701 315.8v1M946.2 95.801v1M513.201 199.8h1M520.601 80.9v1M276.3 40.8v1M934.301 106.9v1M598.4 290.7h1M867.6 305.6h1M1007.201 99.3v1M1024 67.101v1M176.101 205.501v1M1047.101 65.801h1M947.901 276.601h1M232.501 151.501h1M505.701 197.801v1M1076.2 227.2v1M464.101 196.001v1M226.7 314.701v1M819.501 65.401h1M352.401 269.701v1M358.801 323.6h1M497.801 118.201h1M207.2 152.5v1M533.2 242.4h1M468.9 113.001v1M786.301 156.3h1M930.601 273.3h1M1011.901 139.501v1M682.3 225.801h1M613.9 95.001v1M777.5 279.4v1M384.7 253.201h1M638 136.401h1M1082.101 84.501h1M1048.801 178.701h1M714.8 175.3h1M475.101 105.6v1M1081.1 148.3v1M589.1 304.301v1M397.401 257.501h1M440.5 47.1v1M926.4 289.801v1M245.901 213.601h1M1032.8 175.8v1M810.301 60.9h1M907.3 64.6v1M424 156.101v1M1041.001 223.401h1M841 291.801v1M675.7 217.8v1M1022.701 298.001h1M806.6 114.8v1M978 224.4h1M177.6 223.5v1M907.901 163.3h1M519.4 92.001h1M347.9 305.6h1M1061.9 294.001v1M434.6 270.9h1M410.901 218.7v1M933.8 154.7v1M995.501 93.4v1M495.001 87.2v1M297.7 214.501h1M389.9 197.7h1M1052.5 246.701v1M246.6 129.901v1M407.901 49h1M810.901 221h1M1022.601 255.2h1M232.3 229.201h1M326.7 259.7v1M1051.7 62.3h1M143.8 230.5h1M582.4 267.801h1M996.401 179.7v1M370 72.101h1M1077.6 281h1M369.7 265.601h1M232.001 190h1M357.101 165.6v1M591.701 62.801v1M651.2 226.801v1M847.501 267.001v1M533.701 229.4h1M609.201 87.101v1M384.2 258h1"/>
    <path opacity="0.32" stroke="#0b0a09" d="M826.1 294.801v1M1212 181.501v1M1013.7 30.2h1M909.101 357.8h1M172.201 325.1v1M986.1 320.301v1M991.101 302.9h1M526 298.3h1M810.7 307.001v1M1189.5 342.701h1M1007 349.7v1M1184.3 55.301v1M1028.8 51v1M199.2 262.301v1M1119.5 261.9h1M50.3 247h1M517.301 351.401v1M1265.601 108.9v1M350.001 349.6v1M633.701 305.301v1M115.5 192.701v1M324.201 351.1v1M1023.301 338v1M114.2 341.1h1M430.9 357.401h1M55.701 300.5h1M478.501 7.9h1M1022.9 344.1v1M129.3 231.501h1M125.4 142.9v1M876.5 343.8v1M729.5 45.201v1M1266.301 79.2h1M710.8 69.7v1M320.001 180.1v1M930.801 320.9v1M127.9 329.9v1M1003.901 273.001v1M249.2 218.1v1M576.001 331.801h1M145.901 111h1M714.8 358.401v1M434.1 271.7h1M1275.3 138.6v1M1221.001 175.4h1M483.1 253.401v1M191.501 159.201h1M418.501 49.8v1M1071.3 326.001v1M1252.001 29.6h1M10.801 104.001v1M641.8 344.3h1M183.3 311.4h1M1.6 293.3h1M1043.3 205.701v1M836.8 1.9v1M982.101 79.701h1M535 278.001v1M998.8 252.1v1M1111.5 79.3v1M1079.6 114.701h1M1255.3 14.5v1M95 328.701v1M1127.9 165.201v1M986.201 359.6v1M30.401 337.6v1M138.801 331.901v1M362.401 322.4v1M1070 146v1M910.2 15.1v1M741.7 295.201h1M95.501 304.701h1M922.601 331.801v1M151.801 32.801v1M1138.901 310.2v1M782.901 289.801h1M1097.201 223.801v1M1272.3 4.601h1M390.101 275.101v1M144.101 180.601h1M420.9 7.2v1M1268.501 327.801h1M1104.9 272.901v1M1007.7 344.1v1M761.8 37.6h1M317.2 176.901v1M1135.9 236.6v1M1105 241.501v1M631.901 304.701h1M954.1 52.8v1M1261.1 160h1M1117.7 256.801v1M1176.401 333.7v1M272.701 47.4v1M1193.9 245.5h1M704.801 37.6v1M1190.901 120.901v1M1088.5 323.5v1M120.301 357.501v1M1156.701 255.9v1M1189.6 308.001h1M80.5 91.3h1M248.8 235.001h1M1267.301 204.801h1M281.1 300.401v1M186.601 240.101v1M18.701 191.6v1M1275.701 52.8v1M601.301 4.101v1M349.3 312.8h1M263.3 358v1M863.901 9.7h1M1046.501 326.401v1M1201.001 334v1M260.1 350h1M1187.7 233v1M1261.1 160.501h1M1205.3 290.4v1M1186.2 271.9h1M92.3 159v1M563.3 32.7v1M1114 149.501v1M982.4 151.501h1M1255.8 331.7h1M1080.501 32.7v1M1159.201 5.5v1M1081.801 75.801h1M47.5 42.9v1M752.301 7.401h1M959.1 205.601h1M1097.401 86.201v1M405.301 63v1M245.701 262.6v1M586.5 350.701v1M108.801 278.801v1M102 93.3v1M342.5 32.401h1M1226.1 356.9v1M502.5 266.101h1M914.9 343.701h1M635.1 315.301h1M129.201 249.001h1M979.501 15.501v1M432.2 44.1h1M517.201 334.9v1M492.8 17.301v1M60.601 193.501v1M768.6 293.8h1M477.501 36.201h1M1120.301 118.201v1M1129.101 321.701h1M1150.4 330.9h1M1038.3 31.3h1M1256.801 213.5v1M858 331.201h1M129.5 333.901v1M771.201 352.501h1M775.6 320.9v1M126.901 327.2h1M86.801 25.801v1M404.3 37.301v1M1198.001 238.201v1M39.101 148.201h1M1219.401 149.6v1M1146.8 187.8v1M1273.101 255.6v1M1267.301 134.2h1M1206.4 347v1M138.801 307.6v1M96.301 341.2h1M1024.501 138.301h1M74.501 223.601v1M1256.601 317.7h1M222.601 333.2h1M97.6 283.2v1M669.8 312.8v1M288.001 36.001v1M1054.301 335.001h1M113.3 90.701h1M1060.6 235.901h1M348.001 13.6h1M806.001 42.001v1M150.101 17.2h1M287.4 307.801v1M1244 332.301v1M759.2 17.101v1M194.601 221.1v1M159.1 118h1M1188.801 331.5v1M1027.801 358.801h1M359.401 279.5v1M1205.7 135.6v1M1216.301 204.5v1M1052 317.9h1M156.9 212.5v1M20.9 176.601v1M470.6 359.201v1M734.201 343.6h1M21.001 242.2h1M42.7 321.2h1M561.401 33.501h1M1014.9 314.701h1M117.101 63v1M1245.001 203.3h1M428.5 82.3v1M1011.601 356.2h1M409.6 281.2v1M1268.301 20.2v1M1235.1 236.3v1M346.801 68.301v1M323.2 137.901v1M1038.101 265.701v1M1095.5 175.8h1M757.1 47.201h1M896.3 19.101v1M343.5 171.601h1M607.601 322.601h1M1232.501 344.5v1M112.601 359.901v1M266.8 231.3v1M802.7 302v1M711 33.6v1M224.2 154.501v1M72.701 216.201h1M1144.3 7.001v1M615.401 54.4v1M1087.8 335.3v1M168.501 179.9v1M64.701 224.701h1M1187.501 149.201v1M683.7 325.7h1M12.8 142.8h1M1184.901 241.001v1M966.201 354.3h1M1038.801 4.801v1M228.401 266.701h1M1164.901 198.701h1M1097.1 94.9h1M198.4 92.801v1M94.501 294.801v1M430.801 336.2v1M1261.201 239.3v1M1181.301 271.9h1M1259.1 271.601v1M272.4 268.101v1M502.5 30.1h1M56.4 173.001h1M1084.701 11h1M673.701 314.401v1M231.4 131.201v1M62.6 282.701v1M581.801 42.8v1M53.801 177.7v1M48.5 132.4h1M565.5 313.301h1M9.801 118.301v1M179.601 311.3v1M889.001 323.5v1M1174.901 18.2h1M857.1 43.1h1M1229.001 197.5v1M1106.801 337.401h1M1056.5 143.4h1M1082.8 334.2h1M1247.001 220.201h1M712.401 63.3v1M1110.2 30.301v1M589.901 327.7v1M48.3 331.5v1M68.601 125.801h1M1270.5 5.301h1M382.401 349.4h1M494.4 317.601h1M561.001 50.301h1M324.601 330.201v1M847.501 40.901h1M320.701 348.501v1M371.701 120.2v1M597.7 43.201h1M352.8 335.3v1M208.201 326.1h1M1198.201 346.7h1M1158.2 194.2h1M516.001 307.2h1M314 331.901h1M862.7 39.6v1M1255.601 281.5v1M921 130.1v1M457.8 260.8v1M1170.6 355.401v1M160.1 124.5h1M1045.2 61.9v1M73.7 134.9v1M1019.9 89.5h1M1247.7 102.201v1M53.801 302v1M627.701 300.601h1M1174.901 302.301h1M122.101 323h1M1065.7 16.201v1M125.601 285.6h1M472.601 41h1M39.601 240.501v1M1021.1 187.701h1M506.2 281.7v1M397.401 3h1M1174.901 80.601h1M764.501 325.1v1M115.4 225.5v1M565.001 36.7h1M867.501 45.301h1M1145.801 269.701v1M165.4 170.5v1M189.5 20.5h1M112.001 138.401v1M1144.801 352.501v1M648.001 23.801h1M544.2 312.2v1M313.801 5.6h1M1248.1 161.1h1M1017.901 324.1h1M698.4 357.701v1M322.301 104.201v1M825.501 0.101h1M792.401 350.901v1M1243.3 216.201h1M907.1 70.4v1M859.201 32.501v1M69.101 8v1M583.6 320.801v1M1020.301 198.6v1M1092.801 7.3h1M1264.1 279.3h1M1251.901 290.7v1M1036.801 9.001v1M842.1 348.4h1M224.5 6.101h1M441.4 17.9h1M1255.901 298.3v1M861.201 14.401v1M667.501 329.6v1M292.401 276.201h1M509.601 345.101v1M921.9 100.201v1M198.2 107.5v1M1164.001 315.7v1M621 314.601h1M819.501 354.5h1M1114.901 57.5v1M191.1 285.9v1M476.1 279.601v1M827.6 346.401h1M565.801 343.8h1M226.001 335.7h1M476.8 72.001v1M182.601 25.201v1M688.701 49.501v1M810.901 322.901h1M680.1 281.601v1M1264.1 129.501v1M1266.901 251.301h1M900.901 13.101v1M1185.8 262.7v1M1099 212.001v1M1109.4 139.701v1M1174.901 197.7v1M1033.301 183.101v1M189.001 77.9v1M14.6 270.3v1M356.2 42.5v1M1206.701 183.101v1M1244.2 175.101h1M1224.401 26.801v1M994.6 330.101h1M475 23.4v1M1099.201 294.801h1M1074.7 321.6v1M696.4 271.101h1M142.6 266.101v1M968.601 48.101h1M212.9 318.4v1M1099.4 4.5v1M515.1 37.001v1M693.401 329.401h1M1105.901 76.701h1M1141.301 273.001v1M1210.8 74.6h1M373.901 121.6h1M960.2 64.001h1M422.001 77.8h1M440.201 329.101h1M1148.1 80.601h1M646.601 358.6h1M1152.501 198.3h1M1062.6 346.1h1M991.101 346v1M546.401 53.001h1M176.2 132v1M1204.501 102.401v1M1207.3 143.601v1M879.3 356.4v1M539.501 345.8v1M161.7 204.7v1M162.401 175.6h1M1052.301 14.401v1M86.601 304.2h1M588.401 87.3h1M225.5 296.801h1M138.001 25.7v1M479.1 345.701v1M108.101 349.501h1M891.001 68.001v1M166.6 184.801h1M275.001 8.7v1M987.201 127.501v1M1220.6 65.5h1M1211.101 87.2v1M278.8 84.4h1M129.5 182.3v1M1199.1 304.4h1M115.001 311.101h1M163.301 240.7v1M1158.101 119.3v1M1197.7 171.1h1M1097.6 137.2h1M176.3 151.6v1M388.801 30.8h1M164.401 97.701h1M970.101 359.6h1M1171.2 253.601v1M499.001 330.8h1M128.5 204.001v1M1087.9 127.401h1M139.5 336.701v1M415.5 4.801h1M114.3 245.101h1M318.6 81.8h1M863.7 24.301v1M23.301 337.6h1M1174.1 187v1M619.6 17.601v1M516.3 311.4v1M1011.5 5.201h1M4.001 82h1M669.4 57.5h1M726.3 346.2v1M1030.501 62.2v1M598.4 308.3h1M1031.2 61h1M1064.3 271.2h1M792 282.501h1M172.601 315.401h1M119.701 198.201v1M1036.201 80.601h1M244.101 351.201h1M664.501 7.001v1M169.601 345.701v1M1202.5 211.201v1M1060.701 31.5h1M647.301 268.6h1M86.301 32v1M149.7 203.3v1M409.301 29.201h1M1158.701 177.5h1M789 351.9h1M987.1 113.4v1M1122.9 298.801h1M271.8 139.801h1M1088.101 217.301h1M1217.4 132.501h1M446.701 276.801h1M1279.601 251h1M15.3 97.2v1M368.701 265.5v1M202.401 195.701h1M1085.401 17.501v1M109.4 45.801v1M938.4 125.101v1M154.5 72.601h1M334.501 115.1v1M165.1 332.201h1M268.6 326.301v1M1081.3 33.9h1M806.6 306.601h1M538.601 57.301h1M1074.7 247.9v1M1091 35.901v1M737.901 38.501h1M202.901 298.501v1M739.401 4.801v1M35.801 139.301v1M1237.701 244.901h1M472.001 354.101v1M185.9 64.101h1M163.801 49.401v1M1247.7 36.501h1M1267.001 297.5h1M1019.301 214.501h1M1084.601 148.701h1M1123.9 4.2v1M148.3 33.1v1M24.7 288.301v1M1268.301 253.1h1M63.801 274v1M2.4 183.001h1M47.701 26.001v1M23.301 82v1M1073.8 324.601v1M536.4 333.1h1M1188.9 218.1v1M209.5 12.2h1M166.6 204.5v1M459.4 339.401v1M1063.1 206.3h1M484.901 335.001h1M692.301 328.701h1M988.3 29.6h1M912.9 11.3v1M739 91.601h1M1160.5 136.2h1M1102 350h1M673.101 71.001v1M661.601 332.201h1M858 41.401v1M798.6 358h1M96.301 179.601v1M498.001 304.801h1M4.801 111.101h1M56.201 12.5h1M359.201 28.701h1M140.401 50.601h1M560.1 36.4v1M648.6 23.601h1M1246.001 325.301h1M106.701 58.401v1M683.7 338.701v1M113.1 127.601v1M275.001 264.101h1M506.501 339.901h1M620.6 27.8h1M154.8 164h1M28.3 266.4h1M44.401 269.001h1M207.501 358.401v1M1224.901 49v1M319.501 275.601h1M1103 184.701h1M128.601 299.8v1M627.8 9.4h1M1027.601 193.201v1M278.4 29.001v1M1017.201 348.101h1M954.401 152.5v1M883.001 1.7h1M1187.401 159.9v1M128.3 71.8v1M151.6 277.901h1M740.5 25.801h1M91.401 244.901h1M1268.201 114.701v1M100.501 182.901v1M38 250.8v1M688.6 39.501h1M130.2 267.7v1M247.901 107.3h1M541.701 357.8v1M871.601 39.701h1M28.8 293.1v1M1167.101 146.501v1M964.701 142.1v1M690.1 49.301h1M129.3 27.1v1M1034.301 38.001v1M89.401 103.6h1M387.801 295.8h1M953.2 66.701v1M1105.2 327.7v1M870.7 26.001v1M209.8 19.2h1M925.801 161.3h1M945.3 278.5v1M126.801 126.1h1M1120.6 224.901h1M348.901 355.6v1M681.3 54.101v1M1048.201 327.101h1M72 346.301h1M79.001 96.1v1M873.901 148.5v1M1096.601 8v1M1029.9 244.401h1M947.801 92.501h1M790.201 67.4h1M129.001 34.9h1M76.1 238.101v1M72.501 36.6h1M1276.5 164.801h1M1125.7 200v1M92.601 31.601v1M1117.3 151.901h1M773.8 286.501v1M319.6 330.701v1M16.2 339v1M641.2 270.8h1M51.601 88.2v1M533 40.201h1M79.001 75.301v1M704.901 46.9h1M701.201 351.001v1M1084.9 124.1v1M168.901 333.301h1M1195.4 104.001h1M694.301 332.301h1M814.8 42.101v1M1169.1 244.8h1M763.5 62.801v1M871.8 5.201v1M580.1 19.5v1M748.801 31.8v1M847.8 323.4v1M905.7 91.3h1M753.2 77.3v1M894.301 313.301h1M1146.401 330.3v1M590.3 358.6v1M1101.101 267.4v1M1201.301 194.801v1M516.801 45.201v1M579.7 359.5h1M385.4 40.8v1M1185.101 267.501h1M91.801 227.8v1M332.101 42.5h1M1079.501 221.2h1M1122.3 144.3v1M21.001 52.5v1M10.401 264.301v1M182.7 194.7v1M1109.101 70.3v1M183.601 137h1M173.301 251.301v1M1262.701 35.2v1M119.9 330.3v1M1228.801 223.201h1M1129.4 347.501h1M1169.801 263.1v1M131.5 206.5v1M845.401 3.501v1M156.7 243.601v1M509.401 39.301v1M1102.501 86.6h1M166.501 145.701v1M53.9 40.6h1M911.4 17.8h1M144.4 271.301h1M589.001 318.2v1M1163.601 245.5h1M895.501 352.501v1M933.101 311.5v1M98.8 91.601v1M1154.901 91.2h1M133.1 96.201v1M986.1 319v1M631.901 50.7h1M1043.2 291.901h1M706.701 7.1h1M118.1 190v1M907.6 316.401h1M111.101 235.2v1M405.5 23.4v1M46.001 297.001v1M998.401 95.601v1M992.401 93.6v1M910.401 7.701v1M153.801 282.6h1M416.601 354.5v1M1054.501 70.5v1M977 21.601h1M993.501 37.2h1M285.201 52.3v1M1122.001 231.4h1M656.601 20.5h1M1226.501 12.701h1M926.5 50.801v1M169.701 174.301h1M1208.2 198h1M767.101 49.8v1M1269.2 341.601v1M592.701 45.301v1M463.7 54.4v1M567.4 343.6h1M20.7 60.2h1M657.7 22.001h1M1248.601 295.301h1M1214.401 245.3h1M1138.001 251.4h1M10.101 310.101v1M694.5 11.3v1M767.301 326.301v1M627.101 73.3v1M1196.3 344.201v1M268.1 93.4v1M1257.501 53.801v1M826.001 332.201v1M77.7 61.1v1M872 41.2h1M6.601 251.601v1M210.401 114.3h1M218.901 190.4h1M266.201 48.8v1M308.2 9.6h1M1232.901 279.3h1M29.4 207.5v1M1026.901 341.2v1M353.3 38.2h1M1214 22.101v1M1110.901 254.601v1M40.201 186.4h1M224.401 37.4h1M987.5 197.801v1M283.501 269.101v1M56.701 22.2h1M235.2 4.9v1M236.9 172.501h1M135.2 68.8h1M9.2 161.501h1M1064.4 324.601h1M1208.6 127.9h1M14.201 272.201v1M376.501 298.401h1M1170 216.4h1M103.201 172.201v1M672.6 105.901v1M248.401 200.701v1M761.9 341.401h1M278.3 349.501h1M1192.8 334.601h1M159.301 229.5h1M1229.401 151.901h1M238.8 165.4h1M364.6 22.5h1M1012.001 326.901v1M546 20.4h1M136.5 348.601h1M1197.101 39.101h1M1035.401 206.801v1M635.1 264.6v1M273.1 168.501h1M1141.7 87v1M97.001 178.001v1M1197.001 54.701v1M1251.6 112.501v1M1190 322.8h1M182.601 165.001h1M874.6 351.7v1M1038.401 338.401v1M955.8 290.901h1M314.6 8.301v1M1238.8 352.601h1M127.001 232.5v1M769 43.901v1M136.801 304.801v1M1227.701 52.5v1M779.2 344.6h1M1087.2 174.101v1M318.701 28.801h1M338.301 14.2v1M699.5 80.701h1M428.4 303.501h1M161.9 345.3h1M1247.7 139.101h1M677.601 3.101h1M960.901 311.801v1M1023.201 158.3h1M938.3 332.501h1M710.101 58v1M1251.2 288.7v1M172.001 279.001v1M415.5 337.201h1M1092.6 184.6h1M1056.9 14.7h1M997.301 310v1M34.9 37.8h1M839.4 22.001h1M1106.001 161.701h1M865.2 7.2h1M4.201 225.601v1M385.4 53.501h1M1147.701 257.1h1M118.8 305.201v1M1241.5 196.101h1M707.5 337.401h1M1020.001 352.701h1M561.701 41.901h1M912.601 353.901v1M859.5 330.401v1M1228.2 116.701h1M985.801 318.601h1M177.2 92.201h1M996.801 93.701h1M1021.2 275.501h1M516.801 32h1M180.001 149.7v1M984.5 9.5v1M81.801 210.601h1M48.5 215.501v1M213.201 346.901h1M430.3 342.901h1M636.001 330.401v1M1239.2 0.6v1M86.5 295.201v1M626.001 313.001v1M1176.2 138.1h1M1278.001 158.8h1M245.5 163.9h1M725.7 349.6h1M1107.301 228.301v1M235.101 286.4h1M33.201 45.301h1M1127.8 61.7v1M849 330.601v1M779.4 356.301v1M361.501 36.001h1M915.501 294.6v1M1236.6 176.301v1M1276.401 213.601h1M329.5 335.7h1M195.001 294.701h1M742.001 42.3v1M88.2 180h1M1018.9 276.601h1M58.901 328.701v1M1262.6 249.201h1M839.701 47.4h1M1056.701 230.8v1M738.2 331.1h1M1111.3 326.1v1M1228.2 231.501h1M1209.701 225.9v1M892.101 336.401v1M1136 164.101v1M111.2 215.8h1M961.001 59.7v1M486.9 354.101v1M83.601 118v1M1246.001 210.2h1M1274.9 98.8v1M27.101 260.201v1M40.6 287h1M1245.5 292.001h1M1141.301 217.501v1M816.401 300.2v1M1270.801 176.201v1M283.3 324h1M1.8 172.901h1M1159.001 319v1M606.601 324.401v1M590.8 53.9v1M216.2 196.101v1M751 344.4h1M943.3 289.1v1M255.9 258.2v1M1158.2 314.3h1M552.401 336.901h1M13.401 303.601v1M665.2 335.6v1M1108.501 181.401h1M67.901 113.2h1M879.701 338h1M1041.701 71.901v1M72.8 216.7h1M1070 240.4h1M173.7 193.501h1M284.601 21.3h1M1234.8 195.1h1M839.8 285.801h1M703.701 332.401h1M618 293.4v1M149.601 77.1h1M876.301 51.7v1M92.5 197.901h1M1245.901 293.3v1M1254.5 110.901h1M380.301 234.201h1M1147.9 69.301v1M1097.301 282.4v1M995.9 54.901h1M695.101 22.101v1M256.801 345.9h1M471.501 8.7v1M51.8 158.2h1M374.1 272.7v1M395.601 69.201h1M106.6 34.9h1M913 76.3h1M583.201 8.5v1M1075.3 188.1h1M204.701 280.5h1M98.401 27.9h1M351.901 239.8h1M761 286.701v1M680.5 262h1M274.801 33.9v1M369.601 346.1h1M439.701 356.9v1M92.5 218.301h1M927.5 305.501v1M1234.4 82.8v1M146.5 80.801h1M163.401 350.3h1M742.1 312.501v1M19.401 331.3h1M1048.301 110.701v1M1005.3 231.701h1M1030.301 7.3v1M113.8 220.1v1M841 255.401v1M1103.6 17.2h1M1187.301 263h1M1213.201 144.9h1M186.8 352.3h1M82.2 43.4h1M0.9 178.8v1M1032.6 6.4h1M1032.4 33.501h1M548.1 38.601h1M697.601 8.901h1M823.701 339.401v1M270.501 181h1M1142.001 140.801h1M139.101 339.2h1M1076.701 40.8h1M461.101 9.6v1M571.701 354.701v1M901 341.601v1M151 198.501h1M1207.5 259.9v1M807.501 54.701h1M533 297.5h1M432.5 297.5v1M82.401 167.301v1M379.1 23.4h1M1110.901 11h1M684.3 293.9v1M1127.501 189.8v1M446.5 304.801h1M58 276.9v1M120.101 226v1M1083.301 145.901v1M929 40.401h1M44.8 100.901v1M604.401 8.901h1M289.301 359.3v1M513.901 25.901v1M1119.101 347.8h1M800.701 63.701v1M1174.901 64.901h1M902.8 70.001h1M99.6 127.7h1M774.7 68.8v1M579 349.7v1M89.7 41.7v1M138.9 260.401h1M1111.701 186.9v1M133.1 247.7h1M1170.8 149.001h1M473.901 34.001v1M134.5 129.701h1M564.001 316v1M1144.001 307.501v1M674.401 338.8h1M393.501 69.001v1M519.301 319.401h1M166.301 37.701v1M351.8 337.6h1M33.301 263.7v1M44.701 23.801v1M213 164.3v1M812.4 12.3v1M1161.301 317.3v1M157.9 172.6v1M705.9 35.101v1M1114.301 231.4h1M1248.601 129.801h1M474.901 14.2h1M284.601 339.8h1M1264.2 225.201v1M1191.5 239.2h1M425.801 67.001v1M586.801 332.8h1M1258 23.301h1M188.7 244.501v1M1114.5 298.401v1M671.7 14.5h1M623.6 343.401h1M682.7 335.4h1M1142.601 112.4v1M393.501 59.501h1M239.501 57.6v1M761.8 306.3v1M381.7 10.401v1M1073.2 203.001v1M639.3 357.001v1M1137.901 286.001v1M32.1 296.201v1M452.801 19.5h1M32.301 3.201h1M45.301 93.4v1M501.701 10.401h1M669.001 334.8h1M146.601 17.2h1M277.001 201.101v1M225.101 19.301v1M979.501 126.5h1M1058.401 346.801h1M1192.601 271.101h1M299.4 143.9v1M839.2 341.2v1M147.201 144.1h1M1161.5 314.3v1M338.201 150.8h1M1224.901 315.601h1M683.901 340.201v1M971.001 181.201v1M11.6 291.801v1M400.7 15.7v1M875.301 35.2h1M28.901 70.901v1M290.6 336.501h1M293.001 3.401v1M1180.601 308.5v1M166.401 338.501v1M1149.101 280.4h1M1208.101 214.301h1M26.701 65.3v1M1039.501 254.3h1M230.301 319.3v1M1118 177.601v1M58.4 246.101h1M127.001 95.301v1M649.6 271.801v1M1186.3 112.801h1M628.1 16.101h1M1217 256.201h1M819.4 2.3v1M264.701 272.7h1M19.201 38.701h1M60.1 282.201v1M183.8 291.101v1M652 52.1v1M1187.501 82.2v1M41.501 5.901h1M152.7 121.5h1M888.4 347.901v1M69.4 83.9h1M768.6 20.901v1M1145.6 230.001v1M463.301 76.5h1M153.2 330.3h1M1131.6 6.4v1M71.5 353.101h1M590.001 287.3v1M198.601 191.8v1M1053.8 201.201h1M193.5 64.301v1M795.101 29.801v1M174.7 242.6h1M943.901 40v1M221 40v1M1100.8 278.4v1M1102.3 74.201v1M14.901 177.801h1M1080.701 29.9h1M171.401 329.5v1M1181.8 346h1M29.301 63.701v1M976.5 320.9v1M690.501 8.5v1M942.4 328.801v1M0.9 41.301v1M594.7 330.601h1M1173.001 78.001h1M1255.5 188.7v1M1114.601 180.501v1M253.801 9.6v1M608.301 0.101h1M1065.001 132.6v1M1148.201 114.8h1M555.101 294.801h1M422.001 8.201v1M1004.501 333.301v1M1219.701 28.801v1M125.4 140.1v1M1267.501 225.7h1M1112.2 263.3v1M1133.501 19.101h1M574.001 300.8v1M840.801 318.701v1M485.9 50.901h1M682.3 266.101v1M164.9 297.901h1M387.7 3.501v1M137.401 79.4v1M148.4 342.701h1M226.7 129.901h1M997.901 328.001v1M217.301 262v1M108 100.801v1M841.301 356.4v1M947.901 53.601h1M1092.301 100.801v1M507.501 341.8h1M619.301 314.701v1M1234.7 157.8h1M72.601 331.901h1M1264.501 252.401v1M827.4 301.401v1M241 62.2v1M1251.7 178.6h1M546.3 96.801h1M650.7 297.2h1M7.501 335.8h1M796.8 49.9v1M972.701 327.301h1M363.001 162.701h1M101.401 354.801v1M757.9 33v1M125.4 83.7v1M117.001 213.9h1M129.7 222.901v1M337.3 306.401v1M40.701 167.901v1M238.2 245.101v1M564.901 60.1v1M239.8 127.201v1M1259.601 123.101v1M1090.4 151.6h1M699.001 320.101v1M144.201 331.801h1M248 39.101h1M1027.001 113.301v1M6.601 76.1h1M797.001 54.4v1M514.3 13.301v1M1234.501 4.001v1M1096.901 128.101h1M1153.1 355.201h1M539.6 310.7v1M266.8 15.301h1M877.901 3.401h1M968.9 21.2h1M263.401 93.2h1M1146.601 233v1M1223.3 340.4v1M954.601 68.101h1M1276.701 115.401h1M144.301 184.6v1M931.3 36.301v1M1237.401 142.701h1M1157.701 229.901h1M958.6 299h1M119.8 157.7h1M1219.8 299.901h1M1126.3 79.701v1M212.6 5.301h1M512.801 61.201h1M1141.6 98.5v1M314.6 358.201v1M694.6 7.601h1M265.2 347.401v1M323.2 108.7v1M412.8 359.901h1M895.801 209.9v1M639.601 56.9v1M103 134.501h1M29.101 29.301h1M962.301 24.101v1M1195.101 163.801v1M1071.401 330.001h1M1050.601 332v1M618.8 52.601h1M372.4 332.1v1M1067.801 15.7h1M543.401 18.901h1M1170.7 116.701h1M1145.101 205.3h1M94.301 258.7h1M627.8 298.501v1M643.601 23.301v1M1231.3 221.1v1M1117.9 290.1h1M941.9 342.801v1M145.701 315.8v1M1211.501 177.601h1M1155.401 213.3v1M1035.201 126.1v1M1182.9 265.3h1M552.7 29.801h1M137.901 102.001h1M1045.3 44.6h1M1175.701 299.501h1M1175.401 9.4h1M785.6 342.701h1M894.201 24.7v1M91.401 342.701h1M1196.801 249.201v1M3.701 359.5v1M1149.701 27.8v1M1198.701 158.2v1M1265.5 103.501v1M320.6 71.001h1M1107.101 259.201v1M1060.6 207.801h1M1180.601 133.501v1M449.001 4.3v1M63.3 23.201h1M306.7 34.2v1M209.601 243.3h1M0.001 55.7h1M247.501 351.601v1M1192.501 104.3h1M1263 4.9v1M20.2 258.1h1M29.501 237.501h1M180.001 100.901h1M1227.1 51.101h1M571.3 43.1h1M94.901 314.401v1M719.5 2.8v1M697.101 29.7h1M1277.301 141.001v1M588 11.701v1M630.901 40.401h1M637.3 306.101v1M1058.401 354.801v1M1275.201 65.101h1M39.4 345.8h1M1149.2 135.201v1M180.101 5.6v1M1222.701 40.7v1M443.601 6.001v1M978.801 121v1M401.8 34.601h1M842.801 28.1v1M280.201 30v1M137.601 300.601v1M729.001 338.2h1M111.601 38.2h1M275.501 22.101h1M237.301 203.001h1M648.6 69.801v1M596.801 308.901v1M1152.9 271.801h1M567.801 324.7h1M1160.801 66.501v1M920.7 343.501v1M523.6 13.301h1M649.901 356.101v1M1208.301 281.101v1M301.3 356.301v1M266.7 34.9v1M488.001 7.001v1M117.701 219.3v1M165.801 27.1v1M1224.201 269.601v1M161.9 48.9h1M1050.3 46.601h1M153.1 230.701v1M577 301h1M121.8 48.9h1M1173.6 286.601v1M337.901 21.101v1M893.101 306.9v1M302.6 293.4v1M366.001 247.301h1M346.901 266.2v1M762.701 13v1M852.2 297.101h1M1263.8 102.9v1M371.001 330.701v1M1117.7 343.401v1M276.801 301.301h1M166.1 159h1M23.4 279.601v1M506.8 303.401h1M1032.4 318.3h1M274.9 65.7h1M1060.1 139.901h1M61.6 44.2v1M1185 42.701h1M947.301 18.701h1M395.701 90.901h1M205.4 143.801h1M239.501 47.001h1M308.001 5.6h1M67.001 329.6h1M417.3 281.901v1M1127.9 126v1M18.901 237.101v1M1130.5 208.501h1M140.301 231.4v1M184.8 7.401v1M1088.101 190.8h1M70.501 121h1M937.7 303.2h1M1207.4 4.2v1M1209.8 295.901h1M203.2 255.2v1M207.4 264.301v1M1117.8 84.101h1M1242.401 64.301v1M601.901 24.301h1M621.6 299.3h1M23.101 19.801h1M1250.4 252.7v1M27.301 2.901h1M439.801 24.5h1M1168 313.001v1M1249 320.801h1M702.5 337.801h1M65.4 274.201v1M624.001 342.501h1M1213.301 159.1v1M725.3 51v1M851.201 335.7h1M138.5 69.6v1M313.501 2.701h1M117.801 317.501v1M211.301 119.601h1M1093.401 204.7v1M21.001 288.201v1M44.1 6.4h1M1144.5 68.901v1M380.901 333.801v1M1279.101 177.2v1M40.401 311.001h1M44.2 89.9v1M682.001 294.3v1M1128.901 267.901h1M869.101 30.9v1M833.601 18.4h1M393.501 1.601v1M856.4 330.401v1M1032.7 114.1v1M858.3 28.901v1M156.301 145.501v1M87.701 247.501h1M1048.1 340.201h1M130.3 335.8v1M594.4 6.5h1M1110.301 267.801h1M16.701 64.6v1M301.201 67.101h1M988.4 341.301h1M137.201 199.401h1M868.201 64.8v1M1132.301 261.9v1M884.7 29.801v1M667 73.3v1M244.9 337.901v1M1071.2 235.4v1M138.301 119.201h1M243.301 118.401v1M967.5 120.4h1M929.901 36.6h1M75.501 314.001h1M383.8 333.901h1M90.7 122.601v1M897.9 344.4v1M1126.201 184.801h1M897.401 72.7h1M891.1 340.4v1M151.501 269.9v1M262.001 348.2v1M772.101 33.7v1M1170.8 70.901v1M1133.001 31.5h1M418.201 18.601v1M1172.8 355.201h1M1207.3 49.301v1M969.701 209.601h1M808.7 318.9v1M569 359.1v1M1130.801 57.5v1M1128.101 161v1M18.701 143.101v1M358.001 2h1M531.901 7.3v1M169.001 161.4h1M374 302.301v1M4.5 124.001h1M1150.701 69.6h1M328.6 333.601h1M1164.901 292.5v1M938.6 210.801h1M394.5 29.5v1M592 307.901v1M47.9 72.4v1M228.601 52.5h1M990.201 252.601v1M929.601 102.601v1M453.8 8.5h1M116.5 148.3h1M100.4 94.501h1M338.6 30.9h1M1153.9 144.3v1M1001.8 319v1M1275.501 336.6v1M41.2 302.401h1M323.2 214.201v1M132.201 230.3v1M1012.801 160.6h1M790.601 42.201v1M147.001 131.7h1M741.901 2.601v1M278 166.4h1M808.8 321.701h1M4.1 218.9h1M962.6 30h1M791.2 338.301v1M1212.5 203.3v1M1080.901 252.9v1M88.401 160.9v1M142.6 282.801h1M1078.1 299.3h1M1135.001 199.601v1M374 52.5v1M1195.301 172.201h1M906.601 338.901h1M1029.9 28.6h1M1193.201 49.8h1M21.201 357.1h1M131 339.2v1M1165.301 204.5v1M1050.801 3.401v1M1279.2 180.901h1M1252.4 12.601h1M26.701 318.701v1M1144.901 51.7v1M466.7 288.501v1M408.9 334.401v1M1181.401 4.701v1M465.301 348.701h1M80.401 332.301v1M155.701 137.101v1M180.5 334.2h1M1080.8 307.4v1M339.701 59.201v1M300.101 321.6v1M238.1 304.001h1M226.301 13.401h1M152.9 281.7h1M524.601 43.5v1M79.4 42.3h1M1238.5 338.401v1M112.001 288h1M1178.101 322.901h1M330.001 206.701h1M141.4 47.001v1M896.401 345.201v1M1001.9 15.201h1M309.8 223.901h1M281.1 41.1v1M777.9 352.3h1M1214.401 337.201h1M418.201 14h1M586.801 19.5v1M1275.501 152h1M1082.701 304.801v1M9.5 89.701v1M229.1 263.9h1M520.601 76.201h1M207.6 112.501h1M794.301 335.9h1M352.901 12.001h1M494.4 57.001v1M690.7 36.001h1M589.3 36.801v1M139.901 59.601v1M103.9 163.1v1M534.1 71.101h1M215.3 330.001h1M159.301 142.9v1M986.8 342.201v1M1161.901 298.9h1M576.101 33.7v1M965.701 170.2v1M435.7 359.801v1M399.9 51.901v1M118.401 14.3v1M385.5 63.9h1M1047.001 121.301v1M872.2 14.2h1M97.6 19.901v1M957.401 323.5v1M777.5 330.401v1M1130.4 280.001h1M1093.901 96.401v1M1034.601 133.001v1M439.3 38.8h1M563.801 40.401v1M47.9 279.3v1M67.201 207.7h1M1201.101 232.1h1M152.5 120.001h1M1056.601 28.201h1M762.501 328.2h1M1076.101 307.501h1M1273.601 353.501v1M1275.401 190.101v1M1184.8 273.4v1M107 279.001v1M494.7 323.801h1M988.101 320.301h1M135 221.3h1M300.001 108.601v1M1115.1 103.8h1M63.201 53.401h1M958.7 185.6h1M1116.401 34.601h1M1106.901 131.801h1M198.2 278.3h1M173.2 102.8v1M938.3 321.8v1M73.9 18.601h1M312.601 357.9v1M364.401 297.3v1M1013.201 139.501v1M1161.601 159.7h1M584.9 40.1h1M1145.101 16.6v1M1271.801 334.9h1M1145.5 34.601v1M370.2 325.401v1M1084.9 346.901v1M1273.601 100.901h1M610.801 341v1M1028.701 56.101h1M151.4 130.6v1M959.501 41.2h1M1142.3 228.301v1M481.8 350.1h1M1241.5 354.101h1M1258 165.6v1M1239.401 181.201h1M92.401 34.4v1M1136.501 61.9h1M393.6 262.501v1M271.8 33.201h1M257.3 87.101h1M1172.201 273.5v1M1168.5 95.001v1M1187.501 283.701h1M232.701 313.001v1M986 35.101v1M209.4 350.8v1M792.401 315.7h1M8.6 282.201h1M57 239.101h1M291.3 295.501h1M717.2 12.801h1M109.101 46.401v1M267.401 339.2v1M670.301 114h1M966.6 238.901v1M1188.301 165.8h1M709.901 40.201h1M1162.7 69.201v1M1131.7 153.601v1M185.001 106.101v1M720.8 54.8h1M1219.601 55.7v1M60.3 358.6h1M77.101 89.601h1M385.8 23.801v1M278.9 295.301v1M685.901 325.601h1M1225.901 324.7v1M351 167.101h1M1066.8 79.3h1M351.2 291.6h1M1137.8 190.901v1M709.2 20v1M90.501 24.901v1M1061.201 89.3v1M935.9 84v1M1249.1 344.1h1M303.3 285v1M679.6 22.2v1M461.101 343.701h1M1075.001 281.101h1M616 44.1v1M99 116.4v1M616 302.201v1M632.801 23.601h1M1143.601 297.3v1M221.501 268.301h1M695.4 45.201h1M641.2 56.5h1M629.1 332.901h1M308.001 322.001v1M271.8 31.101h1M1151.401 122.201h1M870.801 34.701h1M1025.201 46.1v1M401.601 3.501v1M1048.1 272.201h1M852.8 338.6v1M593.501 312.8h1M1268.401 278.9v1M275.9 350.3v1M590.501 308.1v1M1117.3 234.101h1M1157.9 93.2h1M2.7 48h1M852.1 41.601h1M176.4 53.201h1M198.8 0.4v1M332.4 352.8h1M15.5 304.9h1M161.001 76.8h1M53.6 200.501v1M14.4 223.5h1M414.7 4.001v1M132.5 73.701h1M999.8 290.201v1M1268.1 20.101v1M648.801 296.101h1M52.8 333.301v1M874.8 20.5h1M83.001 86.901h1M337.101 18.2v1M200.3 345.601v1M122.2 181.1h1M1008.701 6.301v1M185.601 121.2v1M1137.501 58v1M83.501 67.701v1M98.101 255.8v1M70.6 332h1M34.8 287.501v1M1174.701 244.401v1M65.701 13.7h1M1098.301 58.2v1M384.101 31.401v1M1248.501 263.401v1M1014.701 209.201v1M920.501 4.3v1M137.1 209.8v1M1060.4 178.301h1M943.3 338.101h1M699.6 337.6h1M28.4 196.701v1M1191.601 249.501h1M33.901 226.301v1M197.101 47.201h1M104.701 2.8v1M1106.301 28.1v1M987.1 50.001v1M187.301 4.3v1M142.6 154.201v1M98.701 151.801h1M1261 69.301h1M1046 128.5h1M955.1 77.501h1M1110.801 52v1M1265.601 166.2h1M893.9 22.301v1M625.7 59.501h1M417.8 286.3v1M954.7 190.101v1M1181.6 305v1M767.9 357.601h1M445.6 40.501v1M22.901 239.601v1M978.201 306.601h1M363.001 49.8h1M331.8 34.101v1M1254.601 117.401h1M1167.001 172.801v1M648.1 85.4v1M1117.401 138.501v1M1219.001 198.701v1M1225.4 274v1M184.1 213.601h1M1148.6 235.901v1M635.801 324.601v1M314.201 322.5v1M313.6 322.101h1M1138.6 143.301v1M230.6 314.3h1M1244.2 81.201v1M175.6 69.4h1M371.5 58.801v1M231.801 299h1M250.7 315.301v1M258.501 101.301v1M1139.6 9.3v1M1136.601 336.1h1M585.801 358.7h1M134.6 333v1M569.401 319.1v1M781.501 27.9h1M182.5 127.601v1M290 81.3h1M437.8 352.501h1M66.5 184.6v1M729.801 266.901h1M309.701 262.9v1M134.701 220.9h1M223.301 17.701v1M354.401 6.601h1M965.8 332.401v1M1016.6 12.9v1M19.9 341.301v1M1122.001 270.701v1M72.101 340.7h1M100.601 304.501h1M918.201 25.001v1M223.601 126.1h1M1138.8 191.8v1M1161 302.9v1M32.501 267.1h1M61.2 299.1v1M171.601 18.4h1M1005.8 340.7h1M1128.101 209.1h1M1128.901 35.301h1M646.301 313.6h1M533.701 25.1v1M1027.201 111.7v1M1171.401 166.2h1M1263 331.001h1M266.201 11.901h1M618.701 310.6h1M1097.901 20v1M913.201 73.101h1M119.1 68.8v1M784.701 22.701v1M708.7 4.101h1M339 15.601v1M540.501 330.8v1M168.901 84.201h1M187.6 134.101v1M130.3 58.801h1M300.2 282.101v1M832.7 291.5h1M1039.701 330.5v1M1124.9 164.801v1M393.301 316.301h1M592.401 318.3h1M1111.601 236.1v1M650.2 336h1M1067.201 56.801h1M1029.101 185.6v1M843.101 39.4v1M189.6 280.701h1M561.5 324.7v1M723.4 24.4h1M921 344.201h1M101 253.401v1M700.401 290.801v1M386.901 24.101v1M1047.6 356.301v1M1038.801 167.301h1M1052.7 4.2h1M787.4 32.201h1M1279.301 299.4v1M108.7 351.201h1M96.701 220.9v1M191 306.801v1M558.601 41.801v1M177.5 326.7h1M118.9 30.8h1M1011.701 4.601v1M563.1 306.9v1M1191.3 278.3v1M140.7 5.001v1M451.201 61v1M596.7 21.001v1M648.4 66.801h1M663.101 2.501h1M272 42.201h1M700.501 24h1M415.801 299.1v1M473.1 34.4v1M1230.4 292.001v1M15.3 5.7h1M1067.201 270.2v1M371.001 355.6h1M786.5 86.901v1M410.801 88v1M417.401 298.1h1M540.4 88.101v1M309.1 290.201h1M109.801 249.501h1M165.4 168.001h1M37.7 21.901h1M166.501 101.301v1M76.701 117.401v1M389.2 21.001h1M1084.3 169.8v1M1036.801 294.5v1M1153.3 335.1h1M206.9 326.1h1M55.2 111.7v1M1255.601 24.801h1M968.2 323.801h1M72.8 345.401h1M1051.201 70.801v1M146.001 1.1h1M173.5 20.2v1M628.501 355.1h1M651.401 357.601h1M297 332.7v1M1171.801 177.601v1M914 12.1h1M1225.901 230.1h1M1262.8 188.7v1M1045.2 128.5h1M87.5 119h1M738.8 1.9v1M106.6 156.101h1M1101.101 321.301v1M1261.9 263.1h1M782.001 354.001v1M1228.101 349.501v1M854.7 354.101v1M221.101 31.3h1M1132.7 222.901v1M1216 95.5v1M463.001 7.9h1M1271.801 203.201h1M363.201 13v1M139.701 264.101v1M849.9 312.2v1M1169.901 220.7h1M987.8 44.901h1M1032.4 356.101h1M1139.3 187.2h1M1277.2 201.901v1M1167.4 191.401h1M862.901 253.001h1M40.8 43.4h1M937.101 11.401v1M1186.2 282.501v1M127.801 180.501h1M145.801 95.101v1M684.9 41.401v1M537.601 66.6v1M807.1 322.101h1M1161.101 149.501h1M58.6 69.1h1M212.501 322.4h1M1076.801 297.5h1M961.801 359.901h1M628.3 345.001v1M267.9 358.201v1M678 57.901v1M521.9 9.7h1M209.701 79.601v1M679.301 279.701v1M449.5 0.901h1M23.5 109.701h1M543.3 33.6h1M1009.5 5.301v1M1273.4 6.001h1M590.001 72.201v1M318.201 331.4h1M1172.601 125.7v1M1189.701 155.501v1M1047.801 313.301h1M94.2 357.2v1M4.1 232.201h1M695.5 339.101h1M899.201 43.001v1M138.801 94.401v1M1143.701 239.701v1M159.501 40v1M728.9 23.5h1M152.001 37.301h1M230.4 150.6v1M349.7 39.301v1M206.9 89.4v1M654.4 344.1h1M252.601 203.501v1M170.3 82.4h1M972.001 9.7v1M265.1 129.3h1M1024.3 40.201v1M146.701 17.501v1M1263.2 178.8v1M186.2 241.601v1M960.5 74.1h1M587.501 20.901h1M868.201 12.801h1M320.001 38.4v1M972.001 349.7h1M1278.801 161.8h1M70.8 202.2h1M1071.3 336.901v1M198.8 135.501v1M718.9 45.801h1M263.9 2.101v1M1153.601 175.5h1M1049.2 13.9h1M836.701 61.1v1M59.601 52v1M299.301 350.4v1M17.7 138.401v1M449.4 306.101v1M360.2 337.301v1M185.801 53.301h1M864.601 321.901h1M608.9 302.401h1M1270.7 330.3h1M121.401 333.1v1M13.601 179.801h1M1251.801 103.1h1M560.201 314.001h1M1163.301 271.801v1M730.3 347.201h1M208.4 210.1h1M1174.2 60.9h1M593.401 31.3h1M1108.001 190.901h1M289.6 51.5v1M1067.1 176.401h1M306.301 7.401h1M737.701 64.101h1M967.7 2.501h1M17.9 115.201h1M1190.501 123.701v1M825.8 47.6h1M305.8 236.201h1M56.5 40h1M325.5 317.601h1M738.101 17.101h1M14.4 263h1M855.1 81h1M438.501 348.101v1M210.201 347.7v1M1095.8 194.7v1M66.5 110.5v1M254.6 338.301v1M1272.101 312.6v1M37.401 198.201v1M1131.801 99.1v1M1134.2 235.601v1M926.6 29.301h1M491.901 327.801v1M244.9 199.001v1M57.7 269.501h1M744.801 12.401v1M592.6 86.001h1M1261.1 348.501v1M301.4 316h1M1028.3 0.301h1M149.3 140.5h1M1127.8 251.9v1M1064.601 94.701v1M796.1 3.101h1M47.5 275.4h1M581.001 20.4v1M1195.2 284.501v1M419.9 356.9h1M414.5 352.8v1M800.4 311.601h1M161.201 7.1h1M42.1 75.401h1M783.9 330.601h1M857.001 6.801h1M892.101 9.5v1M215.4 302.6h1M177.801 11.801v1M130.2 117.1v1M111.501 1.001h1M576.701 50.1v1M266.1 41v1M1140.201 186.7h1M540.2 76.001h1M1241.801 67.301v1M484.6 35.4h1M1089.201 44.6h1M394.8 27.8h1M1116.9 76.201v1M1048.601 314.601v1M4.1 176.801h1M594.1 12.3v1M171.601 357.601h1M369.9 13.2v1M1192 329.8v1M9.701 320.201h1M986.3 10.101v1M21.7 17.601v1M113.4 301.2h1M34.201 327.7h1M218.201 0.7v1M1263.5 127.301v1M63.1 245h1M843.9 34.701h1M1176.501 351.3v1M292.801 25.201h1M1166.5 67.001h1M1217.3 29.401v1M1240.601 273.001v1M455.401 5.901v1M735 357.701h1M1123.301 208.201h1M1158.2 198.501h1M1243.7 154.7v1M1070.401 236.801h1M1114.601 313.6v1M1212.601 351.1h1M126.801 58h1M1046.801 245.2v1M881.701 340.001h1M683.6 14.5h1M976.3 79.2v1M1056.3 214.801h1M1199.201 62.9v1M1183.3 164.7h1M1029.801 309.601v1M1177.9 175.001v1M804.1 310.6v1M13.601 153.2v1M711.501 311.2v1M1279.101 323.801h1M82.8 228.701h1M146.601 101.201h1M305.3 265.001h1M109.9 135.9h1M2.5 268.801v1M254.8 43.001h1M1253.2 314.8v1M18.701 37.2v1M1148.201 20.6h1M101 106.5v1M73.401 326.301h1M1234.7 183.701v1M127.401 267.7h1M949.1 351.1v1M791.2 30v1M94.2 297.2v1M711.6 328.9h1M959.8 130.501v1M1219.5 325.801v1M63.801 64.301v1M733.201 12.601v1M1211 47.201v1M182.301 90.8h1M251.7 306.601h1M1168.1 48.401h1M150.601 237.201h1M65.101 10.9v1M1158.2 238.501v1M1034.601 11.501h1M976.601 238.301h1M986.3 325.401v1M1010.4 148.201h1M269.501 119.7h1M433.8 312.6v1M369.101 326.201v1M1046.6 32h1M26.101 266.8v1M1150.701 38.701h1M78.9 233.201v1M350.3 287.8h1M921.401 126.601h1M1257.201 19.801v1M85.6 324.1v1M313.101 0.901h1M1229.401 239.601h1M1208.901 106.3v1M723.001 45.501v1M80.601 256.101h1M383.401 71.101h1M141.901 194.101v1M1231.001 128.5h1M470.201 330.401v1M176.901 321.901h1M583.101 65.401v1M225.101 331.6h1M545.801 306.3v1M682.3 101.801h1M1265.5 179.801v1M1134.3 84.101v1M219.2 136.301h1M304.701 340.501v1M183.001 222.4h1M760.701 337.501h1M1217 153.001v1M572.701 12.601h1M98.2 33.8v1M66.7 238.901h1M1163.601 300.5h1M860.1 3.8v1M646.701 339.101v1M1245.4 74.5h1M66.9 104.801h1M363.4 342.101v1M377.1 344.5v1M471.2 298.201h1M430.5 86.5h1M190.201 72.801v1M393.501 300.401h1M105.4 300.5h1M78.5 24.4h1M8.801 297.901v1M142.1 134.9v1M1236 73.5v1M35.6 326.201h1M627.701 307.801v1M1003.801 326.601h1M457.501 11.801h1M598.601 271.4h1M31.6 305.301h1M978.701 240.501h1M1149.001 37.101v1M167.301 28.201h1M479.401 305.901h1M537.9 312.6h1M868.401 43.3v1M1098.9 311.701v1M140.801 340.6h1M38.6 206.9v1M1146.401 132.7h1M946 33.9v1M312.301 41.1h1M264.201 23.301h1M735 321.901v1M1094.6 9.4h1M774.7 33.6v1M174.4 204.2h1M163.401 12.801h1M283.2 329.5v1M35.3 263.1h1M1129.7 336.701v1M1246.701 240.901v1M108 355.7h1M954 171.9h1M916.701 326.5h1M1069.201 346v1M717.8 15.001h1M208.4 181.7v1M1092.901 283.4h1M1062.901 216.4h1M1172.8 20.801v1M499.3 343.8v1M44.401 274.101h1M847.9 359.4h1M981.5 341.601h1M18.4 81v1M1256.1 176.601v1M304.3 334h1M499.801 280.201v1M238.401 119.801h1M1151.9 142.501v1M71.701 332.301h1M27.101 256.001v1M206.3 170.6h1M764.901 21.8v1M1237.1 33.401v1M59.001 138.501v1M774.9 8.401h1M1158.901 239h1M763.701 46.401h1M1115.5 208v1M1124 30h1M876.901 323.6h1M43 88.901v1M1005.501 56.601v1M216.001 177.801v1M710.501 345.5v1M46.7 339.8v1M1172.9 130.001v1M1101.5 22.8h1M369.801 355.201h1M53.7 348.2h1M1176.1 139.101v1M430.2 320.801v1M461.801 56.001v1M451.6 23.9v1M345.901 27.401h1M339.8 8.901h1M1250.4 11.6v1M1027.601 242.1h1M589.4 278.601v1M1144.3 223.901v1M103.7 141.9h1M707.3 331.901h1M1058.901 9.4v1M210.5 20.301v1M1242.401 51v1M1208.101 32.1h1M1049.2 12.2h1M524.2 336.501v1M643.801 23.801v1M15.4 61.401v1M741.801 330.8h1M229.301 73.001h1M1204.001 1.001h1M218.501 197.5v1M1266.501 320.601h1M1268 155.9v1M1196.501 150.901v1M1153.701 350.2v1M1236.6 35.6v1M408.601 22.701v1M177.101 299.8h1M781.401 100.5v1M552.301 325.201v1M562.801 313.6h1M1123.9 153.2h1M965.9 345.3v1M734.6 22.701h1M75.301 44.8v1M1222.901 344.201v1M1072.8 100.801h1M21.001 122.001h1M121.8 12.5v1M698.701 59.001h1M663.4 8.5h1M572.401 28.6h1M380.2 340.6h1M1057.6 316.7v1M156.9 298.501v1M1263.401 170.8v1M45.9 187.301h1M340.401 34.701h1M484.6 50.7h1M288.001 255.9h1M1017.901 12.3v1M338.201 349.201v1M1253.501 248.501v1M894.501 13.5h1M70.101 99.501v1M30.601 219.401v1M1027.801 237.301v1M540.8 40.301h1M345.6 65.801h1M1116.201 335.9h1M15.001 72.801v1M183.001 27.8h1M1092.801 181h1M617.5 310.901v1M714.601 21.3h1M1255.101 294.801v1M959.701 312.4v1M400.401 313.4h1M451.1 11.6v1M788.901 90.501v1M1005.1 225.301v1M1217.4 209.601v1M494 271.101v1M1151.501 315.5v1M1213.101 52.3h1M1184.8 317.501v1M910.901 6.9h1M300.601 79.701v1M493.7 299.901v1M20.1 2.901v1M126.901 245.5v1M1248.401 87.5v1M29.9 123.901h1M996.401 2.2h1M203.5 181.301v1M319.8 12.801h1M1268.501 202.1v1M125.2 139.801v1M268.401 198.8h1M249.501 269.501v1M490.2 328.601h1M247.4 355.001v1M290.9 355.901v1M1242.801 76.8v1M356.8 51.101h1M1134.2 113.2v1M17.5 237.7h1M154.101 46.8v1M813.3 357.1h1M1158.6 175.4h1M117.801 175.001h1M745.4 328.1v1M1145.201 306.801v1M216.4 324.8v1M1234.8 53.1v1M175.2 161.8h1M355.101 354.801v1M1241.7 321.5v1M1260.8 64.8v1M720.901 17.8h1M399.801 344.5v1M740.5 298.501h1M160 317.601h1M106.901 178.8v1M121.8 281.3v1M608.6 354.9v1M144.7 84.101v1M161.8 314.901h1M1200.901 42.401v1M690.501 41.601h1M116.6 307.3h1M183.1 356.5h1M80.801 311.2v1M1241.201 16.3v1M817.6 354.3h1M222.3 167.801v1M309.3 354.9v1M1067.001 357.501h1M232.001 161.9v1M105.8 111.801h1M1120.6 336.301v1M442.201 27.7v1M714.701 307.801h1M447.3 54.2v1M1152.601 309.101h1M736.801 288v1M496.801 320.4h1M1161.2 138.6v1M389.9 322.5h1M1211.501 99.501h1M870.001 330.3h1M1009.9 32.601h1M1271.7 178.001v1M771.201 8.201v1M359.801 3h1M1271.901 325.801v1M1191.401 242.701v1M74.7 83.6h1M713.4 15.301v1M399.801 61.7h1M582.101 17.701v1M436.2 354.601h1M1182.401 155.501v1M262.4 306.7v1M1145 196.701v1M1233.501 243.001v1M872.601 44v1M1255.401 133.101v1M300.8 348.301h1M1228.9 277.901v1M1127.101 264v1M1259.2 133.601h1M1006.1 198.6v1M189.901 170.8v1M1079.7 90.501v1M569.401 324.3h1M500.701 34.001h1M250.501 4.601h1M481.101 294.6v1M177 302.7v1M323.3 323.4v1M730.001 1.401h1M1061.1 232.4h1M194.601 180.301h1M1051.301 330.101v1M110.901 99.701h1M586.001 0.7v1M133.3 254.001v1M1074.3 45.901v1M632.4 273.001h1M1141.6 214.901h1M47.701 353.6h1M292 23.7h1M817.1 44.2h1M525.901 103.701h1M213.601 156.3v1M1211.801 137.2v1M1248.901 71.001h1M1065.601 129.501h1M1196.3 37.501v1M71.401 280.8v1M1241.7 177.401h1M1207.901 217.701h1M158.501 196.701v1M1249.5 332.7h1M1051.6 196.5h1M227.501 62.701h1M964.6 17.2h1M727.701 340.201v1M405.801 5.1v1M1164.601 53.301h1M1269 154.8v1M403.1 343.901v1M1181.2 289.801h1M56.101 296.7v1M277.901 359.901h1M45.101 328.9v1M946.7 255.101v1M1100.401 349.801v1M491.901 324.7h1M656.401 321.2h1M5.6 298.601h1M1184.4 104.201h1M19.401 295.7h1M708.7 2.3h1M578.601 351.1v1M147.4 2.701h1M342.401 26.201h1M1084.2 238.6h1M917.501 344.5v1M534.1 319.401v1M111.2 171.1h1M480.801 40.401h1M1073.2 250.701h1M1116.9 42.401h1M22.401 136.8h1M340.1 247.7h1M64.5 4.2h1M757.401 277v1M1087.2 227.8v1M126.6 110.4v1M892.7 307.4v1M1102.801 46.701h1M1013.201 24.4h1M705.3 351.7v1M1158.001 318.1h1M41.101 121.901v1M1266.901 279.2v1M3.701 330.101v1M845.901 299.1v1M464.601 59.201h1M997.501 4.701v1M811.701 18.4v1M477.001 73.3h1M1185.2 248.1h1M1080.501 39.701v1M1110.2 217.9h1M211.7 278.101v1M312.701 189.701v1M453.401 352.8h1M79.001 123.701h1M1216.401 269.4v1M1162 240.501v1M1204.801 350.6v1M1176.501 34.5v1M1127.601 4.2h1M116.7 111.3h1M1222.701 195.8h1M1213.6 120.901v1M204.201 193.601v1M806.5 262h1M1000 300.601h1M381.301 1.501h1M11.001 293.1h1M836.101 18.3h1M63.1 269.301h1M741.401 32.801v1M1179.1 293.8h1M1209.4 284.2h1M313.501 322.601h1M193.2 199.5h1M1212.3 231.4h1M752.1 320.601v1M518.8 314.201v1M931.901 346.601h1M645.201 325.401h1M854.601 281.401h1M540.701 325.601v1M236.101 80.1v1M150.101 59.001h1M1016.4 337.901h1M622.601 23.5v1M549.5 355.6v1M1251.5 190.3v1M1079 345.401v1M1259.3 179.601h1M123 301.6v1M1267.9 205.601v1M1114 105.001v1M1108.9 43.901h1M1166.5 102.601v1M766.101 284.501v1M1228.001 225.301v1M993.501 258h1M407.001 265.3v1M989.001 104.6h1M741.401 9.801v1M258.601 8.901h1M945 326.1h1M1066.201 139.201h1M915.6 37.001v1M189.4 48.101h1M797.7 73.001h1M1203.1 268.901v1M50.601 172.801h1M350.601 25.401v1M42.401 258.2h1M789.7 82.6v1M160.401 145.901h1M1028.001 248.301h1M984.7 283.701v1M1234.001 56.101v1M89.901 82.3v1M1089.1 153.4v1M86.201 127.601v1M1201.5 121.301h1M1170.8 271.801h1M36.901 11.1v1M598.501 336.401h1M436.901 312.4h1M1264.1 282.201v1M1010.7 353.201h1M160.8 7.601h1M435.7 336v1M393.701 309.201h1M609.6 38.501v1M537.001 5.801v1M752.6 327.301h1M951.301 309.9v1M256.101 337.501h1"/>
  </g>
  <path d="M513.013 163.932A128 128 0 0 1 767.998 180.75 128 128 0 0 1 512.832 194.579" fill="none" stroke="#6e1f14" stroke-width="4" stroke-linecap="butt" opacity="0.55"/>
  <text x="638.743" y="178.136" transform="rotate(-1.593, 638.743, 178.136)" opacity="0.019" data-weight="0.019" font-family="Georgia, 'Times New Roman', Times, serif" font-size="67.696" font-weight="600" letter-spacing="2" text-anchor="middle" fill="#6e1f14">US EM-  T-KHE  IU-NU RA</text>
  <text x="647.843" y="172.624" transform="rotate(-0.269, 647.843, 172.624)" opacity="0.027" data-weight="0.027" font-family="Georgia, 'Times New Roman', Times, serif" font-size="85.511" font-weight="600" letter-spacing="2" text-anchor="middle" fill="#6e1f14">S SHE -MAKET N B S</text>
  <text x="668.827" y="168.07" transform="rotate(-1.272, 668.827, 168.07)" opacity="0.038" data-weight="0.038" font-family="Georgia, 'Times New Roman', Times, serif" font-size="120" font-weight="600" letter-spacing="2" text-anchor="middle" fill="#6e1f14">T   -BA  </text>
  <text x="663.421" y="170.533" transform="rotate(0.463, 663.421, 170.533)" opacity="0.053" data-weight="0.053" font-family="Georgia, 'Times New Roman', Times, serif" font-size="95.248" font-weight="600" letter-spacing="2" text-anchor="middle" fill="#6e1f14">URT EM-SEK EM - </text>
  <text x="670.025" y="171.951" transform="rotate(-0.47, 670.025, 171.951)" opacity="0.073" data-weight="0.073" font-family="Georgia, 'Times New Roman', Times, serif" font-size="120" font-weight="600" letter-spacing="2" text-anchor="middle" fill="#6e1f14"></text>
  <text x="675.275" y="180.653" transform="rotate(0.209, 675.275, 180.653)" opacity="0.101" data-weight="0.101" font-family="Georgia, 'Times New Roman', Times, serif" font-size="73.378" font-weight="600" letter-spacing="2" text-anchor="middle" fill="#6e1f14">ME PERI -A -AT-MAATU</text>
  <text x="670.948" y="172.307" transform="rotate(0.309, 670.948, 172.307)" opacity="0.14" data-weight="0.14" font-family="Georgia, 'Times New Roman', Times, serif" font-size="48.031" font-weight="600" letter-spacing="2" text-anchor="middle" fill="#6e1f14">KHEFT S-HAU-H SQET-[NEHA]-H A</text>
  <text x="669.285" y="168.29" transform="rotate(-1.248, 669.285, 168.29)" opacity="0.194" data-weight="0.194" font-family="Georgia, 'Times New Roman', Times, serif" font-size="120" font-weight="600" letter-spacing="2" text-anchor="middle" fill="#6e1f14">N BT-USH </text>
  <text x="669.285" y="168.29" transform="rotate(-1.248, 669.285, 168.29)" opacity="0.039" data-weight="0.194" font-family="Georgia, 'Times New Roman', Times, serif" font-size="120" font-weight="600" letter-spacing="2" text-anchor="middle" fill="#0b0a09">N BT-USH </text>
  <text x="659.686" y="165" transform="rotate(-0.218, 659.686, 165)" opacity="0.269" data-weight="0.269" font-family="Georgia, 'Times New Roman', Times, serif" font-size="61.708" font-weight="600" letter-spacing="2" text-anchor="middle" fill="#6e1f14">TU T T-MAKETET-EN-NEB-S</text>
  <text x="659.686" y="165" transform="rotate(-0.218, 659.686, 165)" opacity="0.108" data-weight="0.269" font-family="Georgia, 'Times New Roman', Times, serif" font-size="61.708" font-weight="600" letter-spacing="2" text-anchor="middle" fill="#0b0a09">TU T T-MAKETET-EN-NEB-S</text>
  <text x="656.903" y="174.14" transform="rotate(-0.032, 656.903, 174.14)" opacity="0.373" data-weight="0.373" font-family="Georgia, 'Times New Roman', Times, serif" font-size="55.391" font-weight="600" letter-spacing="2" text-anchor="middle" fill="#6e1f14">TENTENIT-UHESE -KHAK-ABU</text>
  <text x="656.903" y="174.14" transform="rotate(-0.032, 656.903, 174.14)" opacity="0.224" data-weight="0.373" font-family="Georgia, 'Times New Roman', Times, serif" font-size="55.391" font-weight="600" letter-spacing="2" text-anchor="middle" fill="#0b0a09">TENTENIT-UHESE -KHAK-ABU</text>
  <text x="653.379" y="169.168" transform="rotate(-0.28, 653.379, 169.168)" opacity="0.518" data-weight="0.518" font-family="Georgia, 'Times New Roman', Times, serif" font-size="36.79" font-weight="600" letter-spacing="2" text-anchor="middle" fill="#6e1f14">SE IT-NEBT-UAA-KHESFET-SEBA-EM-PERT-F</text>
  <text x="653.379" y="169.168" transform="rotate(-0.28, 653.379, 169.168)" opacity="0.414" data-weight="0.518" font-family="Georgia, 'Times New Roman', Times, serif" font-size="36.79" font-weight="600" letter-spacing="2" text-anchor="middle" fill="#0b0a09">SE IT-NEBT-UAA-KHESFET-SEBA-EM-PERT-F</text>
  <text x="658.99" y="173.933" transform="rotate(0.159, 658.99, 173.933)" opacity="0.72" data-weight="0.72" font-family="Georgia, 'Times New Roman', Times, serif" font-size="80.736" font-weight="600" letter-spacing="2" text-anchor="middle" fill="#6e1f14">palimpsest-ouroboros</text>
  <text x="658.99" y="173.933" transform="rotate(0.159, 658.99, 173.933)" opacity="0.72" data-weight="0.72" font-family="Georgia, 'Times New Roman', Times, serif" font-size="80.736" font-weight="600" letter-spacing="2" text-anchor="middle" fill="#0b0a09">palimpsest-ouroboros</text>
  <g>
      <animateTransform attributeName="transform" type="translate"
        values="-1.5 0;1.5 0;-1.5 0" keyTimes="0;0.5;1"
        calcMode="spline" keySplines="0.42 0 0.58 1;0.42 0 0.58 1"
        dur="11s" repeatCount="indefinite"/>
    <text x="655.668" y="177.28" transform="rotate(0, 655.668, 177.28)" opacity="1" data-weight="1" font-family="Georgia, 'Times New Roman', Times, serif" font-size="56.11" font-weight="600" letter-spacing="2" text-anchor="middle" fill="#0b0a09">USHEM-HAT-KHEFTIU-NU-RA</text>
  </g>
</svg>
