<svg xmlns="http://www.w3.org/2000/svg" width="1280" height="360" viewBox="0 0 1280 360" role="img" aria-label="SESHET-MAKET-NEB-S">
  <metadata>palimpsest {"generation":7,"sha":"8ef4a4bd76fb8b326051ddd55e292fcf519998a1","hour":8,"name":"NEBT-USHA","guardian":"SET-HRA","nomen":"","ḥꜣty":1,"layers":8,"cap":14,"variant":"light","content":"NEBT-USHA","alt":"SESHET-MAKET-NEB-S","strata":[{"i":0,"x":639.295,"y":203.614,"rot":0.503,"opacity":0.101,"size":83.53,"legible":19,"content":"palimpsest-our boros"},{"i":1,"x":633.314,"y":205.222,"rot":0.428,"opacity":0.14,"size":83.409,"legible":18,"content":"pal mpsest-ourobo os"},{"i":2,"x":629.361,"y":203.739,"rot":0.442,"opacity":0.194,"size":120,"legible":8,"content":"οὐρο όρος"},{"i":3,"x":628.327,"y":189.165,"rot":0.191,"opacity":0.269,"size":95.1,"legible":15,"content":"the tai  is t e mouth"},{"i":4,"x":623.206,"y":192.664,"rot":0.106,"opacity":0.373,"size":120,"legible":3,"content":" V62"},{"i":5,"x":621.19,"y":192.356,"rot":0.007,"opacity":0.518,"size":68.857,"legible":19,"content":"MESPE IT-AR-AT-MAATU"},{"i":6,"x":620.496,"y":188.473,"rot":-0.346,"opacity":0.72,"size":44.536,"legible":29,"content":"KHEFTES-HAU-HESQET-[NEHA]-HRA"},{"i":7,"x":631.273,"y":184.242,"rot":0,"opacity":1,"size":120,"legible":9,"content":"NEBT-USHA"}]}</metadata>
  <!--
    Chrysopoeia of Kleopatra. Alexandria, third century, copied and recopied until
    the earliest sheet anyone still holds is Venetian, eleventh century at best.

    A serpent drawn as a ring, its jaws closed on its own tail. Half the body is
    inked solid; the other half is left the colour of the sheet. Inside the ring,
    three words: hen to pan. The all is one.

    The half that is black and the half that is bare are not two creatures. They
    are one creature, and the drawing is the argument. Matter and spirit, the
    fixed and the volatile, the thing dissolved and the thing coagulated again —
    solve et coagula — are states of a single body that has to eat itself to
    continue.

    This file is that drawing, redrawn every twelve hours, and never twice the
    same. Each pass fades what the last pass said and writes over it without
    erasing it. What you see is the newest line. What is under it is still here,
    in the markup, going quiet at a rate of 0.72 a generation.
  -->
  <rect x="0" y="0" width="1280" height="360" fill="#d6cfc0"/>
  <g fill="none" stroke-width="1" shape-rendering="crispEdges">
    <path opacity="0.06" stroke="#0b0a09" d="M388.7 109.5h1M678.8 134.6v1M884.0 185.0h1M626.6 153.3v1M765.8 139.2h1M756.6 118.2v1M712.6 253.6v1M665.1 162.6v1M676.2 112.2h1M355.2 256.8h1M653.6 203.4v1M727.5 256.2h1M748.5 240.5v1M562.6 229.9h1M757.4 158.5v1M592.3 172.1h1M637.0 198.4h1M856.8 185.0v1M454.4 225.5v1M695.3 246.2v1M400.7 136.4h1M512.6 221.2h1M506.3 188.8v1M603.6 177.0v1M530.3 178.3h1M474.9 230.8v1M433.5 244.4v1M699.1 128.6v1M738.1 220.3h1M725.9 201.9h1M783.9 246.9h1M591.8 121.1h1M739.4 160.0h1M516.4 193.6h1M551.8 201.5v1M454.7 131.4v1M507.3 123.0h1M582.1 157.0v1M543.2 240.5h1M653.8 206.2h1M538.1 227.3h1M413.6 182.8v1M906.0 150.8h1M513.9 142.4h1M658.0 188.1v1M488.0 245.4h1M637.3 211.7v1M524.5 195.2h1M745.6 111.1h1M797.4 192.9v1M598.8 233.1v1M622.9 171.2h1M685.4 123.4v1M854.2 141.2h1M694.8 235.9v1M481.3 122.6v1M661.8 190.2h1M765.2 142.1h1M769.2 166.0v1M552.5 121.2v1M628.1 129.9v1M487.3 184.3v1M545.8 244.0h1M517.9 130.6v1M807.3 231.6v1M545.0 197.4h1M804.8 196.8h1M880.8 225.2v1M521.7 198.0h1M842.4 107.8h1M548.4 114.2h1M797.9 216.6v1M646.0 243.9v1M770.2 151.1h1M662.8 200.6v1M891.4 110.6h1M723.7 143.2v1M673.9 122.9v1M602.9 171.4v1M835.6 134.3v1M844.2 227.5h1M762.2 141.5h1M713.0 124.3v1M677.7 222.1v1M523.7 134.7h1M470.0 221.8h1M683.6 125.6v1M655.1 197.7v1M609.7 212.2v1M708.4 133.7v1M424.3 192.5h1M803.6 170.3v1M811.9 248.7h1M574.1 175.9h1M498.5 172.6h1M517.0 173.4v1M497.0 125.9v1M430.5 213.3h1M433.3 213.5v1M883.4 158.9v1M837.3 182.2v1M577.9 127.1v1M574.9 208.3h1M657.4 192.9h1M553.7 246.5h1M869.7 198.5v1M491.6 236.8h1M790.6 213.4v1M791.0 125.4v1M738.0 165.2v1M656.8 185.3v1M492.8 121.9v1M847.9 163.5h1M646.8 123.7v1M738.0 168.2v1M824.5 210.6v1M661.8 201.3v1M407.7 131.4v1M772.9 188.8v1M476.0 197.8v1M800.4 184.6v1M386.3 252.6v1M478.3 246.2h1M714.2 235.5h1M816.9 233.8h1M711.2 159.1v1M414.9 173.5h1M458.2 227.8v1M750.3 207.9h1M679.0 229.8v1M745.0 125.0v1M761.7 141.6h1M516.7 192.1h1M608.4 189.1h1M736.9 189.9h1M707.1 174.8v1M519.7 252.4v1M614.6 108.4h1M411.5 115.8h1M495.7 216.9v1M801.8 198.9v1M706.9 191.5v1M408.3 248.0v1M597.9 197.5v1M642.7 146.3v1M689.6 127.0v1M596.3 216.4v1M444.5 219.1v1M619.6 171.7h1M593.1 191.4h1M629.0 168.4h1M778.3 195.0v1M782.4 229.8h1M776.8 183.9v1M643.4 187.6h1M626.1 131.3h1M562.9 190.5v1M752.7 215.9h1M551.7 240.3h1M611.1 155.7h1M602.5 181.4h1M619.2 232.1v1M699.1 185.5h1M653.8 210.4v1M508.1 123.4h1M822.6 196.7h1M476.2 138.1h1M690.6 224.3h1M416.2 141.2v1M508.9 232.9h1M492.9 120.6v1M402.8 182.5v1M731.7 239.1h1M416.9 137.4v1M541.9 236.9h1M597.8 177.6v1"/>
    <path opacity="0.12" stroke="#0b0a09" d="M505.8 180.3h1M495.4 106.6h1M862.2 126.1h1M623.2 116.6h1M789.0 246.2v1M920.1 240.8h1M328.9 250.6h1M708.5 165.1h1M652.4 253.3v1M303.3 133.4h1M877.3 102.0h1M392.8 192.3h1M821.0 260.3h1M908.3 121.8h1M767.7 110.3v1M352.3 256.5h1M813.5 234.6v1M813.3 222.9h1M607.7 232.9h1M1002.1 93.3h1M643.2 217.6v1M837.2 243.6v1M497.1 200.0h1M425.0 69.3v1M308.2 264.6h1M830.9 276.2v1M466.9 84.8v1M799.6 209.0h1M654.5 72.3h1M455.8 109.7h1M934.9 215.9h1M516.1 67.3v1M306.7 269.3v1M394.6 250.0v1M992.6 241.4h1M430.5 166.2h1M949.6 110.1h1M703.0 139.4v1M637.3 295.2h1M417.7 109.8v1M392.2 268.1h1M907.1 217.1v1M394.0 217.8h1M299.8 232.0h1M383.0 192.2h1M274.2 96.9h1M396.3 197.4h1M605.4 271.2h1M741.0 73.2h1M994.4 101.0h1M945.8 256.1v1M699.8 158.7v1M971.2 171.9h1M666.6 209.2h1M900.1 201.5v1M496.3 106.7h1M913.3 131.5h1M515.6 74.3v1M883.0 267.7v1M646.1 273.1v1M571.3 172.8v1M492.3 244.3v1M619.8 147.5v1M857.1 257.4h1M858.9 97.5v1M558.0 270.0h1M291.7 96.6v1M834.5 137.8h1M393.3 177.2v1M751.9 181.0h1M622.9 242.4h1M871.4 111.7h1M802.2 202.0v1M244.1 133.0h1M323.2 146.4v1M362.9 262.1v1M673.7 145.7v1M894.6 110.3v1M426.8 244.2v1M313.2 238.0h1M961.7 202.7v1M266.9 111.8v1M791.3 211.6v1M776.2 102.7v1M589.0 196.4v1M683.5 250.6v1M797.9 85.3v1M886.0 171.2h1M296.8 177.2v1M928.3 256.5h1M293.0 97.0h1M518.4 175.5v1M1005.6 186.6h1M636.0 260.4v1M679.7 140.3h1M551.5 192.0h1M395.9 220.6v1M744.1 227.1h1M651.5 114.4v1M783.3 83.8v1M445.5 158.9v1M583.9 190.0v1M653.2 118.4v1M591.9 251.5v1M657.5 145.2v1M382.7 100.3v1M741.0 118.8h1M682.9 268.1h1M697.7 102.5v1M950.2 249.9v1M404.2 79.0h1M504.0 104.8h1M540.0 204.4v1M517.1 96.0v1M693.3 81.6h1M649.9 119.6h1M303.3 101.2v1M365.6 199.3h1M732.4 173.7h1M372.6 173.2v1M693.4 277.6h1M656.8 99.3h1M521.9 207.8h1M671.5 251.9h1M296.4 276.3v1M783.9 209.9h1M472.3 199.4h1M488.1 129.7h1M364.5 266.6v1M891.2 197.8h1M335.7 196.6h1M638.7 90.7v1M405.7 146.8v1M529.7 196.5v1M516.6 219.3v1M481.5 267.9v1M319.7 219.8v1M766.4 173.0h1M420.1 239.7v1M465.9 184.0v1M336.7 86.0v1M648.0 222.6h1M818.6 198.3v1M718.7 86.5h1M657.7 251.5h1M916.0 165.3v1M391.2 100.1h1M524.8 219.0v1M574.4 108.2h1M967.1 187.9v1M724.1 243.0h1M482.4 176.2v1M724.8 278.2v1M769.7 264.3h1M632.8 250.2h1M750.7 116.5h1M917.1 96.2v1M324.8 245.9h1M561.4 195.2h1M474.2 258.2v1M334.5 123.2v1M655.8 89.1v1M988.8 272.2h1M593.8 284.0v1M477.8 213.1h1M696.6 97.9v1M736.8 294.5h1M531.9 286.0v1M991.4 283.2v1M658.8 210.0v1M271.6 107.6h1M765.6 182.6v1M421.1 291.8v1M355.3 228.1v1M839.7 171.6v1M1002.6 82.5v1M462.1 245.8v1M417.1 174.7v1M934.4 129.5h1M562.3 221.6h1M349.0 275.2h1M900.0 258.1v1M450.2 198.8v1M504.7 161.3v1M941.9 139.8v1M862.9 273.9v1M667.4 272.9h1M677.2 147.6h1M301.6 160.5h1M747.6 182.7h1M337.9 285.6h1M855.8 157.9v1M720.7 285.2v1M607.6 217.2v1M343.7 200.3h1M363.6 72.8h1M576.3 246.9h1M946.9 103.3h1M637.9 256.8h1M1046.5 230.2v1M753.7 168.1v1M512.2 153.7v1M833.0 112.3v1M625.9 120.8h1M811.1 79.9h1M791.4 165.4v1M327.9 205.8v1M348.9 154.1h1M575.3 120.3v1M320.2 246.2h1M593.3 227.0v1M687.2 215.1h1M919.1 212.4h1M342.0 86.9h1M854.7 268.6v1M780.3 277.2h1M803.4 115.3h1M503.3 135.9h1M848.1 264.5v1M895.8 180.1v1M580.5 105.3h1M381.2 222.6v1M514.8 128.4h1M775.7 228.2v1M701.1 240.9v1M657.1 219.3h1M797.6 154.8v1M417.1 265.3v1M723.1 125.8h1M336.2 242.1v1M488.2 153.9h1M1015.2 98.4v1M564.5 157.1h1M913.1 132.7v1M493.9 218.1v1M320.1 286.0h1M306.1 156.5h1M967.4 104.0h1M896.8 230.7v1M433.8 173.1v1M364.3 150.8v1M653.8 266.5h1M792.7 119.8v1M953.9 191.7v1M1000.0 255.4h1M615.9 237.6h1M581.6 173.1h1M879.3 108.0v1M597.4 137.0h1M904.4 62.3v1M989.6 257.0h1M951.9 93.6v1M326.0 182.0h1M1000.5 103.8h1M412.3 119.7v1M926.8 241.4v1M433.3 101.3h1M776.4 235.5h1M665.1 158.9h1M843.2 96.4v1M738.2 281.8v1M485.5 253.3v1M797.7 116.6v1M886.3 243.1v1M904.6 162.3v1M494.2 284.0v1M316.3 72.8h1M783.8 250.0h1M725.4 113.7v1M964.5 80.9v1M478.3 188.9v1M577.5 230.8v1M757.4 268.1v1M909.2 73.6h1M671.2 111.3v1M919.6 72.8v1M759.9 123.6v1M877.2 113.8v1M796.3 129.3v1M567.7 165.6h1M493.9 142.0v1M894.3 185.9v1M953.5 95.5h1M770.8 225.7v1M830.7 138.6h1M985.9 140.4v1M938.9 110.6h1M786.6 234.4h1M397.4 271.2v1M815.3 120.6v1M829.2 255.9v1M403.2 144.4h1M710.4 294.9h1M877.4 142.8v1M532.5 117.7h1M814.9 136.8v1M773.4 159.5h1M287.5 217.2v1M812.3 237.9v1M857.3 251.5v1M423.6 238.9v1M693.7 103.2h1M870.3 157.7v1M374.6 208.3v1M789.0 68.3h1M332.3 249.3h1M904.0 244.8v1M887.8 235.6v1M644.1 122.4v1M700.1 107.2v1M293.2 149.5h1M803.0 241.7v1M863.7 193.7h1M600.7 162.4h1M611.2 237.5v1M723.3 179.4v1M980.3 190.4h1M778.1 222.0h1M713.7 171.3h1M957.9 234.6v1M254.4 209.3v1M391.8 177.2v1M371.5 176.2h1M428.8 101.0h1M370.8 160.8v1M532.4 260.9h1M832.6 236.6v1M901.1 230.8h1M355.1 223.2v1M897.4 106.0v1M571.2 152.9v1M327.5 89.2v1M681.3 134.8v1M973.1 119.2v1M976.5 101.1v1M892.1 233.3h1M945.6 212.2v1M947.9 92.8v1M489.1 191.4h1M724.2 224.5v1M422.2 120.5h1M1018.0 205.9v1M1006.3 122.3v1M944.0 146.9v1M743.8 228.5v1M351.5 141.8v1M782.4 252.6v1M635.5 148.5v1M641.1 73.1v1M688.7 269.9v1M383.3 207.4v1M865.9 229.4h1M648.7 209.9h1M335.4 185.4v1M824.6 240.1v1M557.2 209.4h1M891.9 129.7h1M615.0 182.0h1M443.4 188.1h1M241.7 219.1v1M320.7 192.7v1M1005.6 237.3v1M653.4 255.6h1M925.9 157.5h1M835.1 230.5v1M796.9 288.5h1M384.0 216.8v1M785.6 102.7v1M615.9 104.5h1M320.9 145.7h1M642.3 223.0v1M684.6 273.5v1M355.7 95.2v1M403.0 80.8v1M632.6 149.0h1M321.2 82.0h1M621.7 156.8v1M608.2 95.5h1M281.9 64.3v1M640.7 260.1h1M912.2 118.2h1M720.2 86.4h1M854.3 250.7v1M857.7 268.4v1M494.0 124.7v1M474.1 135.6v1M896.6 123.9h1M301.0 93.4v1M352.5 198.3v1M717.2 190.3h1M932.5 268.0v1M386.1 153.7v1M461.0 93.3v1M573.6 124.9h1M828.1 289.9h1M420.5 90.7h1M838.6 151.6h1M523.8 194.6h1M707.7 119.2h1M943.7 290.6h1M607.1 255.7v1M883.2 259.3h1M286.8 101.2v1M475.4 78.8h1M503.8 210.1h1M838.1 180.1v1M234.4 98.5h1M489.1 148.5h1M304.9 180.2h1M866.6 134.3h1M365.5 103.3h1M399.2 178.3v1M651.0 131.3v1M522.8 152.9v1M685.1 121.5h1M780.8 129.4h1M637.4 80.1v1M965.9 145.4v1M938.2 122.0v1M289.5 180.7v1M672.9 270.7h1M892.2 167.0v1M418.8 133.3h1M721.5 211.3v1M635.4 178.3h1M981.4 273.7v1M355.0 217.9v1M571.7 278.1h1M573.5 203.4v1M726.2 145.5v1M529.4 214.0v1M806.3 77.4h1M353.0 87.0h1M793.3 272.2h1M354.5 210.1h1M453.1 94.8v1M365.2 121.6h1M755.6 268.0v1M536.0 151.3h1M474.1 269.5v1M291.6 82.5v1M243.0 217.8v1M547.6 185.8v1M308.6 220.6h1M286.9 108.8h1M965.4 129.5h1M737.4 191.0h1M687.5 194.2v1M875.6 173.5h1M340.6 209.7v1M404.8 231.6v1M480.0 219.7h1M847.5 238.1v1M883.6 214.3h1M844.2 246.3v1M825.0 96.1v1M920.1 240.8v1M253.6 115.0h1M687.4 264.8v1M326.9 101.3h1M806.3 201.9h1M705.8 243.1v1M804.0 119.9v1M382.2 124.5v1M737.4 253.1h1M761.5 191.1h1M437.7 84.0v1M569.2 277.4h1M657.7 74.9h1M415.8 171.4v1M514.1 161.8h1M409.4 81.8v1M909.1 225.9h1M765.4 108.5v1M715.9 147.7v1M757.7 155.4h1M569.3 217.2v1M931.5 193.3v1M725.1 91.4v1M812.9 181.7v1M413.2 145.0h1M884.8 105.4v1M890.0 145.6h1M912.9 210.4h1M390.9 153.5v1M694.3 197.9h1M714.0 271.1h1M931.2 120.8v1M960.1 275.9h1M370.1 192.5h1M672.3 240.9h1M767.5 265.4v1M935.6 230.2h1M450.6 87.4v1M803.7 192.8v1M745.6 164.5v1M495.0 172.9v1M398.0 224.1v1M320.7 87.7h1M690.6 118.8h1M682.1 90.0v1M362.4 224.4h1M605.8 83.0h1M298.0 207.0v1M801.5 229.3v1M663.8 156.2v1M815.1 191.0h1M404.5 241.7v1M671.4 270.5v1M657.5 150.6h1M834.3 108.0h1M755.7 121.8v1M589.7 108.9h1M952.5 279.8h1M967.8 252.4v1M451.7 75.8h1M898.1 173.3v1M355.7 287.3v1M335.4 153.7h1M527.5 181.6v1M1050.0 284.0h1M396.6 201.1v1M455.1 207.8v1M813.5 214.2v1M387.4 92.7v1M702.7 197.9v1M948.9 172.8h1M655.2 87.7v1M466.2 280.2v1M835.5 164.3h1M1039.7 152.1v1M736.8 96.8v1M444.7 169.6h1M372.5 200.8v1M691.5 95.1h1M737.8 263.8v1M747.7 267.6h1M680.6 93.6h1M511.2 122.9h1M781.4 272.1h1M704.9 158.3v1M1038.9 151.8v1M1052.2 259.3h1M326.8 92.0v1M895.9 121.2v1M634.1 187.1v1M415.9 245.9v1M342.5 228.9v1M528.9 267.6v1M302.2 218.9v1M322.9 141.4v1M625.3 97.5v1M762.3 156.4v1M801.7 247.7h1M654.0 172.1v1M380.1 247.8h1M412.2 219.3v1M425.4 176.8v1"/>
    <path opacity="0.2" stroke="#0b0a09" d="M692.8 167.6h1M936.3 215.0h1M187.0 302.9h1M672.4 229.5v1M756.3 113.0h1M501.6 158.1h1M354.7 298.5h1M517.2 175.7h1M220.7 122.7v1M964.6 121.5v1M474.7 247.8h1M439.0 239.7v1M361.4 134.9v1M847.9 121.4h1M282.6 213.0h1M534.9 239.7h1M363.1 144.3v1M942.8 226.7h1M941.9 225.7h1M162.7 280.9v1M508.3 266.4v1M1027.1 280.6v1M739.6 253.5v1M1084.7 187.4h1M403.9 273.1h1M1116.8 227.5h1M692.2 50.1v1M980.1 90.1h1M851.7 153.1h1M196.9 194.5h1M435.1 217.7h1M847.3 148.8h1M784.6 238.4v1M670.2 210.7v1M844.4 155.4h1M682.4 297.6v1M648.8 164.8h1M389.1 307.7h1M454.8 217.3h1M1073.8 102.9v1M334.8 321.2v1M646.5 61.5h1M519.5 227.8h1M451.9 282.6v1M929.4 115.0h1M1070.3 115.0h1M849.5 221.1h1M544.0 240.3v1M908.1 258.6v1M898.9 188.8v1M1092.6 89.0v1M402.1 284.9v1M226.9 72.2v1M1065.9 298.3h1M902.7 164.8h1M981.6 160.2h1M689.2 95.9v1M656.0 279.2v1M1015.4 245.7v1M395.6 110.9v1M1091.0 60.3v1M431.1 232.8h1M657.1 251.3h1M328.1 86.6v1M182.6 284.2v1M1028.5 278.9h1M767.9 69.8v1M342.9 152.7v1M197.5 60.1v1M983.4 126.8h1M267.2 77.0h1M878.5 167.2h1M251.5 235.7h1M391.5 265.7h1M395.0 258.9h1M1011.6 101.6v1M231.7 280.0h1M1023.5 297.2h1M303.6 95.8h1M360.8 172.2v1M662.6 120.6v1M394.2 300.4h1M222.6 251.7v1M394.4 182.7h1M367.3 97.2v1M664.5 213.2v1M256.9 133.9h1M609.2 193.6v1M969.9 226.8v1M288.4 272.8h1M809.5 295.0v1M916.4 81.7h1M1076.6 192.2h1M487.4 226.8h1M796.0 58.4v1M283.3 182.6h1M318.5 187.0v1M741.0 166.4h1M967.2 237.7h1M488.9 91.3v1M915.3 195.3h1M957.0 57.3h1M276.1 66.0v1M676.4 167.8h1M729.1 66.4v1M320.4 158.6v1M593.4 220.9h1M177.9 122.3h1M917.5 311.1v1M1040.5 116.2h1M982.4 161.9h1M660.8 104.6h1M232.5 165.1h1M214.7 283.9h1M233.7 233.7v1M585.5 312.1h1M416.9 210.9h1M955.0 151.1v1M218.5 316.3h1M262.0 282.5h1M401.9 148.5v1M633.7 141.0v1M310.2 69.4h1M658.3 249.9v1M368.4 154.0v1M581.3 99.9v1M578.3 264.2v1M553.2 133.7v1M301.2 171.8v1M477.0 303.9v1M933.9 228.3v1M792.5 253.0h1M700.4 270.4v1M1095.6 107.0v1M471.7 153.3v1M916.1 119.9h1M532.7 84.2v1M369.8 258.6v1M991.6 238.4h1M402.9 179.0v1M619.2 96.6h1M738.1 89.9h1M400.8 124.4v1M250.0 69.4h1M1099.1 296.1v1M333.7 258.7v1M352.3 87.3h1M975.1 176.8v1M588.6 205.6v1M1053.4 255.4v1M691.9 195.6h1M235.3 197.5v1M1134.9 38.9v1M993.2 292.5h1M874.3 119.2v1M988.5 71.7h1M410.7 84.0v1M772.7 103.2v1M470.1 67.2h1M607.9 75.0h1M203.5 112.9v1M279.9 107.8v1M878.5 235.2h1M287.6 171.4v1M601.9 90.6v1M641.4 40.3v1M217.4 293.3v1M212.3 155.6v1M568.0 162.1v1M706.7 286.9h1M207.2 128.7h1M1005.7 187.1v1M269.1 70.0v1M533.2 54.4h1M397.9 56.2h1M498.1 65.4v1M260.8 198.8h1M772.4 160.0h1M404.6 116.0v1M1056.4 177.0v1M874.3 104.5h1M723.7 79.8h1M873.5 83.9h1M933.8 154.5h1M1082.6 212.5v1M822.8 165.8v1M183.8 94.1v1M633.1 272.8h1M525.0 96.9v1M326.2 91.3v1M987.5 122.5h1M552.2 238.2v1M333.8 258.0h1M781.4 141.2h1M303.3 164.6h1M659.9 317.8v1M626.9 223.9h1M857.1 135.8v1M356.2 247.3h1M1072.7 185.4h1M705.6 269.7v1M249.0 208.0v1M935.8 71.4v1M593.2 254.8v1M588.6 272.6v1M518.9 80.6h1M793.5 265.1h1M303.7 294.9h1M1033.4 101.4v1M1073.9 190.9v1M737.7 155.4h1M534.7 180.6h1M715.9 62.1h1M449.5 100.8h1M507.8 62.5h1M691.1 161.3h1M1045.8 162.7v1M600.7 48.3v1M446.3 294.7h1M922.7 292.9v1M402.0 285.5v1M1027.2 61.6h1M961.8 71.0v1M1024.0 205.6v1M587.8 75.6v1M447.2 106.4v1M783.1 234.5v1M301.5 130.1v1M829.8 258.1h1M293.6 214.6h1M774.7 258.3h1M157.3 47.4v1M1040.8 128.0h1M924.5 279.2h1M956.7 72.6v1M266.7 129.5h1M530.0 75.8h1M705.8 259.7h1M1051.8 256.0h1M353.1 215.0v1M309.9 116.9h1M467.0 161.8h1M321.6 117.4v1M347.4 69.9v1M609.4 269.5v1M276.3 263.9h1M458.4 247.5h1M464.9 218.2v1M1066.1 148.9h1M410.6 245.8v1M291.0 288.8h1M223.3 113.5h1M343.6 155.7h1M740.0 213.3h1M305.6 122.4h1M992.9 227.9v1M1089.2 311.4v1M640.7 206.9v1M908.9 58.9h1M682.0 58.2v1M383.9 228.3v1M202.5 291.6h1M1099.5 138.4h1M558.8 229.3h1M1035.7 235.4h1M678.6 96.7h1M483.7 269.5v1M581.4 123.0v1M324.1 240.8v1M877.4 301.4h1M659.7 106.8h1M183.1 83.3h1M666.7 84.7h1M303.5 269.9h1M379.1 136.1h1M1024.0 240.7h1M983.2 148.8v1M1002.4 69.5v1M202.4 136.9h1M287.3 63.9v1M932.0 66.1h1M1077.0 96.4v1M578.5 272.8h1M901.8 79.8h1M1116.2 59.5v1M339.3 145.5h1M743.6 306.6v1M354.6 222.7v1M206.3 259.6h1M233.3 125.3v1M373.9 134.3v1M850.3 283.3v1M709.6 185.4h1M778.5 191.8h1M389.0 152.9h1M997.8 119.0v1M1002.3 288.7v1M278.3 285.9h1M903.4 157.3h1M592.5 230.4v1M973.7 89.0v1M896.1 288.7h1M489.2 62.1h1M798.5 292.4h1M749.3 67.9v1M606.4 78.9h1M803.9 163.9h1M210.0 215.9v1M191.4 210.7h1M465.1 197.5h1M380.7 224.4h1M841.7 270.3h1M728.4 76.0v1M699.8 135.8v1M327.4 42.6h1M967.2 229.5v1M574.2 54.3v1M405.1 254.8h1M736.1 154.7v1M433.8 219.5h1M553.7 316.5h1M1061.1 199.2v1M658.7 67.2h1M753.1 242.4v1M877.3 92.7h1M1025.3 223.0v1M866.3 305.8v1M826.7 200.6v1M958.9 276.6v1M298.7 146.3h1M991.5 89.4h1M518.6 99.3h1M537.6 300.2h1M235.3 248.7h1M748.4 156.2h1M232.6 241.5h1M887.9 92.4h1M974.9 145.9v1M780.5 262.4v1M198.5 86.9v1M1084.8 224.5v1M464.2 207.2v1M910.0 241.3v1M879.3 116.5v1M538.2 297.4v1M1122.8 238.8v1M236.5 142.2v1M1138.5 234.6h1M262.2 261.6v1M150.1 150.7v1M1068.8 317.1h1M591.3 257.0h1M750.5 56.2h1M874.7 314.8v1M1047.4 230.4v1M256.7 228.2h1M842.1 140.8v1M229.1 125.5h1M689.3 127.2h1M829.7 129.9v1M945.1 264.5h1M516.1 164.1v1M711.2 288.0v1M696.9 267.0h1M639.2 264.1v1M1089.1 193.4h1M1097.4 244.2h1M602.5 257.6v1M915.0 161.0v1M479.5 177.3h1M413.8 156.7v1M1016.5 276.9h1M858.0 61.2h1M389.1 293.7v1M299.3 130.5h1M1028.7 275.1v1M891.6 103.0h1M711.3 297.4h1M387.9 228.8h1M316.6 106.8v1M440.6 296.6h1M510.2 115.4h1M899.6 277.2h1M335.7 58.2v1M543.8 204.8h1M985.9 169.1v1M232.2 148.2v1M211.0 59.9v1M284.8 82.8h1M283.6 82.2h1M1023.3 71.8v1M241.9 211.2h1M1064.5 150.8h1M323.0 241.5v1M791.7 42.8v1M707.6 171.4h1M1048.7 233.4h1M977.9 229.6h1M744.7 118.1v1M1039.7 179.7v1M307.3 283.1h1M740.5 305.6h1M771.4 77.7h1M692.5 130.4v1M593.0 212.4v1M227.1 134.4h1M927.7 82.9v1M884.2 134.2v1M653.7 237.3v1M226.6 235.4h1M584.0 308.9v1M1095.5 136.9v1M297.6 271.8h1M202.5 131.6h1M596.9 76.3v1M162.6 211.9v1M1012.1 79.1v1M587.5 100.6v1M558.7 291.7v1M462.8 184.1h1M203.1 223.1h1M1074.3 190.3h1M933.3 281.9v1M885.3 105.4v1M940.4 112.9v1M530.7 130.8h1M351.2 189.4v1M575.8 245.0v1M934.6 281.0h1M189.7 104.7v1M1053.4 279.7h1M910.6 86.9v1M663.7 93.6h1M373.7 222.5h1M579.9 96.7v1M1057.2 59.7h1M512.0 146.0v1M521.7 92.4h1M158.5 201.3h1M450.5 263.6h1M380.0 114.4h1M925.1 90.1v1M921.9 95.9h1M219.1 177.0v1M329.4 242.3v1M886.6 216.6h1M696.8 265.2v1M262.6 250.4h1M418.1 76.2h1M285.5 248.0h1M1125.4 154.3v1M835.2 282.2v1M649.4 96.0h1M482.0 291.9h1M699.2 117.3h1M728.4 148.4h1M265.0 282.6h1M318.2 248.0v1M227.6 208.0v1M756.4 274.3h1M557.4 60.2v1M725.3 200.5v1M266.9 106.0h1M452.8 147.6v1M1070.5 271.0h1M1064.5 221.0v1M728.1 247.3h1M1050.8 96.0v1M202.4 65.1h1M349.9 146.6h1M821.2 154.0h1M921.6 158.8v1M332.4 267.4v1M729.2 65.5h1M748.8 290.0h1M845.9 64.3h1M887.8 242.7v1M1001.3 237.3v1M228.2 70.1h1M262.0 197.5v1M522.6 231.1h1M242.7 250.6h1M350.6 275.3h1M726.9 241.0h1M747.7 264.2v1M279.6 294.3h1M805.6 311.5v1M327.8 242.5v1M908.5 154.1v1M536.8 167.5h1M933.0 144.2v1M1112.4 271.2v1M492.4 313.5v1M871.4 218.9v1M283.1 244.3h1M158.7 169.5h1M814.5 294.5h1M426.3 313.3v1M1017.5 315.1v1M893.1 232.1h1M303.9 305.0h1M385.1 130.4v1M499.7 266.6v1M270.5 153.1v1M313.4 206.0v1M811.5 91.4v1M281.7 257.7h1M876.1 275.1v1M882.1 261.3v1M1006.2 204.2v1M384.8 300.4v1M418.0 314.7v1M851.8 142.0v1M740.2 250.8v1M1002.4 162.8v1M414.7 225.1v1M781.9 122.2v1M795.0 149.4v1M890.7 114.6v1M903.3 114.7h1M331.4 104.7h1M253.2 146.1h1M858.9 296.7v1M1017.2 81.5v1M1027.4 143.7v1M744.6 209.2h1M228.1 234.4v1M183.4 222.2v1M1044.1 79.8h1M626.0 85.8h1M998.3 240.0v1M1026.2 240.3v1M1002.7 287.0v1M799.2 88.1v1M828.6 65.2v1M533.7 295.1h1M390.0 178.2h1M542.9 158.2v1M965.6 190.2h1M1082.9 72.1v1M296.8 127.2h1M731.0 222.1v1M1075.4 312.0v1M227.3 68.7v1M568.6 46.7h1M296.6 219.9v1M612.9 248.0h1M606.4 109.0h1M413.0 221.3v1M1131.6 228.5v1M997.3 57.4v1M456.5 231.6v1M244.1 163.4v1M700.1 54.8h1M750.5 149.8v1M855.1 117.5h1M165.1 56.5h1M634.0 229.7h1M983.9 157.6h1M948.6 153.1h1M1021.5 230.0h1M472.5 275.0h1M890.0 63.7v1M858.8 298.2h1M954.5 202.6v1M835.9 304.4v1M527.0 242.2h1M500.8 251.4h1M607.7 56.3h1M649.0 178.5v1M685.0 135.4v1M1055.6 211.2h1M1065.3 313.6h1M1033.0 154.3v1M383.0 271.4h1M889.7 88.0h1M935.4 159.0v1M233.9 148.4v1M575.7 95.9h1M902.1 82.3h1M508.0 280.1v1M1110.8 190.7h1M1136.7 293.1h1M495.0 305.1v1M1051.5 121.8v1M1051.7 300.0v1M507.6 249.7v1M872.4 284.5h1M536.8 130.4v1M411.6 278.2h1M702.9 230.8h1M1108.1 66.9v1M696.1 120.7h1M652.2 89.3h1M654.7 294.5h1M1017.0 171.0v1M407.8 200.1h1M417.9 80.4v1M473.7 252.6v1M146.1 243.3h1M893.0 273.6v1M814.6 130.4h1M428.2 260.9v1M776.1 304.1v1M1121.6 125.5h1M835.9 231.6v1M862.8 103.4h1M391.3 255.3v1M440.2 230.6v1M1011.6 128.1v1M542.8 143.8v1M1074.0 142.1v1M671.5 243.2h1M231.5 299.6h1M906.0 289.0h1M1080.4 263.5h1M167.4 187.4v1M1050.6 265.9h1M765.9 185.6h1M630.6 312.4h1M869.6 153.2v1M695.3 235.7h1M460.9 162.8h1M909.2 160.9v1M608.8 130.9h1M1106.9 56.5h1M201.3 277.0h1M614.1 75.5h1M1075.8 246.3h1M649.5 79.8h1M620.3 139.4h1M261.6 180.6h1M289.0 231.2h1M1007.6 294.1h1M1092.0 306.9h1M901.0 53.0v1M876.3 301.1h1M252.9 241.2v1M553.1 104.3v1M615.4 265.1v1M1002.8 140.5h1M501.7 247.8h1M262.3 174.5v1M483.9 181.5h1M1105.1 208.5h1M267.5 68.7h1M785.7 143.5v1M883.0 279.0v1M203.7 155.9h1M393.2 84.8h1M670.4 134.2h1M280.1 133.4v1M408.8 119.8v1M971.2 69.7h1M173.1 257.2v1M760.8 69.1h1M889.4 209.3h1M271.2 106.7h1M968.2 202.9h1M708.9 97.8v1M1084.7 198.5v1M361.8 290.3v1M1091.4 237.2h1M422.7 127.3h1M1116.0 317.2h1M469.8 263.6h1M171.7 217.1h1M366.7 311.3v1M647.5 291.6v1M1018.1 299.6v1M1053.7 282.5v1M976.6 127.2v1M407.4 268.5h1M650.9 145.0h1M405.4 100.9h1M876.4 114.7h1M978.6 216.4v1M861.4 281.5h1M306.6 170.8h1M224.6 126.0v1M626.6 255.6h1M150.6 304.1v1M1055.7 276.1v1M1009.1 246.0h1M373.2 96.7v1M897.7 72.5v1M535.3 147.7h1M567.0 172.0v1M1082.5 269.4v1M648.2 291.2h1M798.4 271.2v1M473.7 105.8v1M829.4 63.7h1M874.2 164.9v1M296.9 101.1h1M767.2 182.3v1M631.2 69.8h1M836.3 209.1h1M966.0 144.2v1M891.0 106.9v1M784.3 278.3h1M745.0 40.9v1M874.4 187.6v1M253.7 288.1v1M437.4 264.0h1M495.3 244.9h1M416.7 236.6v1M377.2 312.3v1M281.5 257.3h1M330.5 79.5v1M1028.4 66.7h1M446.6 219.7h1M930.9 102.4h1M932.8 62.1v1M385.3 300.8h1M962.9 130.0h1M165.7 55.9v1M281.4 155.3v1M380.3 186.6v1M518.8 44.1h1M868.7 63.0v1M894.9 154.4h1M1031.1 135.3h1M964.5 223.7v1M681.5 127.1v1M295.7 291.8h1M889.4 137.2h1M695.4 217.8v1M833.0 78.4h1M453.2 289.5h1M458.5 253.7h1M768.1 104.0v1M322.2 87.2h1M508.8 134.9h1M799.9 261.3v1M1143.5 312.8h1M391.0 282.3v1M298.6 87.3h1M292.9 187.8v1M952.3 310.0h1M1073.4 116.8h1M1094.9 309.9h1M516.4 84.6h1M874.9 60.1h1M883.6 172.8v1M605.8 44.1h1M1098.0 191.4v1M635.4 197.5h1M989.6 292.4v1M356.4 190.7h1M505.5 104.8v1M493.2 77.2v1M709.9 194.8v1M697.6 69.1h1M643.8 261.5h1M333.6 96.8v1M607.3 52.6v1M299.0 248.7v1M665.5 221.8h1M168.8 277.7v1M343.3 265.7h1M835.8 73.0v1M665.6 251.9v1M811.8 152.2h1M333.4 240.8h1M1023.1 57.5v1M664.5 141.8h1M182.5 99.0h1M1025.4 253.5h1M861.6 270.3h1M229.7 288.3h1M341.3 72.1h1M316.4 305.2h1M846.3 287.7v1M477.8 204.3v1M463.7 215.7v1M313.0 286.0v1M616.3 98.3v1M248.9 44.9v1M685.9 124.1h1M958.7 235.5v1M457.6 153.7v1M1074.7 229.7v1M333.0 262.5h1M521.4 160.8h1M962.7 118.8h1M881.9 107.6v1M792.1 258.3v1M860.8 225.9h1M464.8 197.4v1M132.4 285.3h1M436.2 288.1h1M954.2 112.0v1M449.3 60.1h1M189.1 107.2h1M241.1 200.1h1M626.0 98.4h1M472.2 143.1v1M229.7 188.2v1M218.5 156.2v1M1044.3 159.7v1M428.4 193.2v1M299.0 321.6h1M684.6 210.7v1M242.8 207.9v1M843.8 161.7h1M535.8 50.5v1M1011.0 246.2v1M376.0 274.9h1M192.8 189.2h1M546.2 142.9h1M744.0 103.9v1M304.0 214.5v1M887.3 84.4h1M394.6 279.7v1M168.1 218.2h1M634.5 69.9v1M212.5 301.4h1M1141.3 308.9v1M903.4 184.0h1M196.7 88.0h1M750.1 282.6h1M998.7 146.8v1M356.0 290.2h1M707.0 194.3v1M807.6 76.3h1M597.7 54.6h1M1016.8 254.7h1M1002.5 62.8v1M211.7 205.0h1M352.7 229.9v1M337.9 127.7v1M1085.1 264.7h1M280.7 245.3h1M800.0 166.8v1M497.4 149.1v1M835.0 273.3h1M857.6 205.7h1M478.2 146.8h1M554.7 288.4v1M1056.6 90.0h1M157.9 267.6v1M863.3 73.4v1M606.5 107.3v1M875.3 259.5v1M859.3 128.7v1M889.9 157.3h1M653.9 99.0h1M280.5 137.4v1M885.7 248.7v1M550.4 294.1h1M805.0 79.3v1M229.7 74.9v1M616.3 275.7v1M347.5 204.2v1M965.5 230.6h1M432.4 240.5v1M532.5 187.2v1M295.1 65.1h1M478.2 260.7v1M279.1 279.5h1M919.0 183.1v1M591.3 103.7v1M979.5 194.4h1M370.2 172.2h1M826.3 92.6v1M774.9 251.4h1M460.1 131.0h1M896.5 278.2v1M1051.6 310.3h1M175.5 231.4v1M458.3 274.0h1M742.4 140.2h1M346.8 161.1v1M374.3 226.5v1M447.1 299.0v1M887.2 130.5v1M1000.0 224.7h1M414.7 144.4h1M521.3 88.8v1M132.3 201.7v1M997.2 305.5h1M1118.2 286.2h1M318.2 58.1h1M963.4 162.2v1M371.3 147.1v1M274.3 173.1v1M300.1 149.0h1M937.2 201.7v1M719.0 87.3v1M790.6 241.1v1"/>
    <path opacity="0.32" stroke="#0b0a09" d="M946.4 10.7h1M599.5 18.9h1M896.8 347.6h1M1095.5 322.9v1M173.2 75.6v1M183.2 166.1h1M188.7 120.0v1M286.8 243.9v1M27.0 203.5h1M1185.7 35.5v1M190.2 7.4h1M1081.3 249.5h1M232.5 37.8h1M83.6 183.1v1M1022.9 88.8h1M135.8 248.7v1M1181.7 349.6v1M936.2 30.9v1M1267.3 82.9h1M576.2 68.6v1M1271.8 206.3v1M27.9 128.0v1M193.8 174.8h1M908.7 41.3v1M1088.5 308.2h1M1136.0 49.7h1M354.0 33.7h1M1106.7 28.1h1M1250.4 211.5v1M1254.4 172.6h1M1089.9 318.9v1M35.2 61.3v1M327.8 42.6h1M510.2 280.4h1M1255.4 273.8v1M1060.0 305.6v1M572.5 4.6v1M638.0 5.2v1M476.3 52.2v1M118.0 77.8h1M89.7 172.1h1M120.7 235.0v1M498.7 37.7h1M733.5 292.6h1M103.4 146.5h1M791.2 358.6h1M243.9 273.7h1M224.5 181.4h1M429.7 1.6v1M600.5 325.9h1M0.2 345.9v1M560.9 320.8h1M28.8 147.0v1M941.8 306.5v1M1036.5 35.9h1M259.4 130.9h1M1175.2 276.1v1M551.8 344.3v1M664.0 88.6v1M444.4 328.3h1M532.3 263.9h1M675.7 37.1h1M511.6 89.1v1M1217.7 127.5h1M1079.7 32.5v1M772.8 312.6v1M83.9 252.9h1M964.4 341.3v1M128.7 236.7v1M900.8 55.8v1M726.3 298.7v1M1120.7 293.6v1M1220.5 210.0h1M16.1 21.7h1M78.8 324.1v1M1059.1 218.9h1M880.7 64.8h1M293.4 45.8v1M269.7 346.1h1M285.8 42.4h1M605.5 343.8v1M44.4 70.2v1M108.9 295.7v1M1234.6 99.7h1M1138.2 286.3v1M81.0 175.5h1M769.7 295.2h1M263.8 247.5h1M60.6 31.4v1M1147.5 212.1h1M1139.3 136.0v1M23.0 52.2v1M180.9 341.3h1M180.6 106.6v1M1012.3 31.7h1M938.8 351.7v1M882.8 60.0v1M1253.8 292.8v1M331.8 7.2v1M464.0 67.3v1M124.8 282.7h1M1143.2 78.0v1M1101.6 138.3v1M637.2 282.1h1M204.1 125.9v1M1206.6 22.5h1M301.4 248.3v1M625.2 34.4v1M352.6 332.7h1M1160.1 150.2h1M1248.5 278.4v1M279.6 40.2h1M388.8 79.4v1M308.2 336.8h1M975.3 314.8v1M866.1 60.6v1M1113.9 156.5v1M870.9 306.9v1M887.8 340.1h1M1124.0 150.7h1M620.4 46.4v1M1036.2 159.5h1M1277.8 99.0h1M131.8 191.1h1M1158.5 124.6v1M1262.3 42.7h1M616.1 3.5v1M1250.4 274.9h1M1081.6 110.4h1M122.5 34.9h1M661.1 330.8h1M245.9 29.3v1M253.3 329.6h1M1207.3 234.8h1M979.9 6.4h1M1080.7 185.8v1M6.0 285.1v1M281.9 349.4v1M9.1 4.2h1M210.0 77.1v1M730.8 299.3h1M788.1 342.4v1M1055.3 189.3v1M1200.9 257.0v1M235.3 256.1v1M454.8 14.2v1M302.0 349.5h1M985.1 168.8v1M1153.2 353.8v1M303.0 292.5v1M22.7 268.8v1M1064.7 330.1v1M119.0 19.1v1M402.2 19.8h1M521.3 46.2h1M827.1 77.5h1M153.0 27.4v1M301.5 355.1v1M284.2 137.1v1M2.5 288.5v1M451.5 56.2v1M70.8 311.8v1M1013.3 110.6v1M1142.1 238.0v1M1139.7 159.1v1M391.3 35.7v1M156.2 115.3h1M154.1 288.2h1M471.7 105.5h1M700.0 17.3h1M121.6 214.7v1M29.4 151.2v1M1240.3 325.5h1M837.6 35.8v1M125.0 36.3h1M374.5 314.6h1M193.6 265.6v1M1187.8 83.6v1M8.0 127.2h1M997.4 177.2h1M1199.0 348.7h1M1192.5 279.2h1M808.5 4.3h1M654.3 310.1h1M319.6 219.5h1M535.4 343.8v1M945.5 24.4v1M222.9 142.4v1M382.3 305.4h1M965.2 358.1h1M435.8 325.8v1M614.0 331.1h1M365.3 16.7v1M931.2 15.0h1M481.4 356.1h1M418.7 297.9v1M955.4 1.0h1M57.5 328.5h1M748.9 55.6v1M470.4 277.6v1M320.0 125.4v1M171.1 77.0h1M525.5 16.1v1M205.0 93.2h1M88.8 248.5h1M1266.9 262.8v1M1102.4 142.7v1M981.1 328.4v1M1083.6 18.6v1M1214.4 77.7h1M1207.8 106.7h1M1038.0 276.6v1M544.0 267.7v1M1207.8 100.7h1M1166.5 126.4v1M61.1 85.3v1M1171.8 141.4h1M404.0 38.7h1M1109.6 347.2h1M930.6 75.7h1M72.3 183.1h1M931.7 283.6v1M129.4 231.2h1M1258.2 263.3h1M373.1 167.1h1M272.4 23.9h1M1264.3 283.9v1M760.9 5.3v1M132.4 306.7v1M1210.9 174.2h1M1240.3 36.3h1M953.1 283.3h1M638.1 344.9h1M30.2 90.9v1M1165.0 178.1h1M369.1 306.2h1M1124.0 189.7h1M633.1 42.3h1M1190.0 248.8v1M1111.0 150.6h1M646.5 38.1h1M21.2 266.3v1M814.0 4.6v1M1124.8 272.0v1M62.9 127.3h1M275.9 327.2v1M750.6 341.6v1M654.0 0.0v1M1185.0 320.0v1M721.6 306.9v1M914.4 17.7v1M59.6 337.5h1M928.2 326.1v1M1182.6 164.0h1M731.5 24.7v1M1023.4 36.5v1M566.0 315.5h1M993.7 121.5h1M638.5 46.2h1M87.2 272.0v1M1018.6 355.8v1M668.0 1.3v1M1007.7 284.0v1M920.2 94.9v1M1213.6 246.8v1M953.2 332.5v1M1240.1 64.4h1M1224.3 320.8h1M655.2 35.9v1M619.5 327.7h1M23.5 358.2h1M516.3 46.5h1M628.7 2.0v1M20.4 325.5v1M1081.7 315.8h1M43.5 211.7v1M192.1 194.1h1M1199.2 52.1v1M585.0 335.0h1M57.3 359.6v1M639.4 42.2h1M1064.8 297.5h1M331.6 347.9h1M185.0 17.9v1M557.8 25.1v1M1040.3 346.3v1M9.8 197.9v1M39.9 132.0v1M284.7 144.3v1M596.7 33.3h1M157.5 100.2v1M409.5 334.6h1M771.1 78.6v1M201.8 3.7h1M59.0 190.2v1M1020.3 110.3h1M1191.3 220.4h1M158.6 165.5h1M1127.4 29.8v1M1171.6 165.2v1M85.6 149.3v1M1094.4 66.7h1M917.8 1.8v1M192.6 347.9v1M33.2 219.3h1M1267.6 151.2h1M127.7 85.6v1M968.8 291.6v1M1217.6 329.6v1M403.5 323.2v1M1113.5 113.0v1M220.8 339.7v1M272.4 324.3h1M1257.7 312.7h1M1037.2 270.1v1M1131.1 220.9v1M1043.1 20.1v1M362.3 99.7v1M41.9 227.8h1M757.7 316.5v1M657.0 329.4h1M799.4 3.8v1M1217.0 234.0h1M1244.8 124.9v1M65.3 252.6v1M107.6 144.9v1M651.2 309.7h1M547.7 274.7v1M711.6 347.7h1M68.1 204.2v1M1242.8 225.4v1M706.4 339.5v1M34.1 327.2h1M186.7 282.5v1M165.5 152.7v1M150.6 319.0v1M52.7 144.4h1M230.8 306.4h1M63.1 77.7h1M1145.9 330.5h1M541.9 23.0h1M10.8 129.7h1M183.8 50.4v1M37.9 326.9h1M243.0 190.5v1M28.2 32.5h1M187.2 262.1h1M1108.3 112.9h1M1117.6 76.7v1M237.8 232.1h1M283.7 130.6h1M202.9 346.7v1M3.9 268.2h1M259.7 250.0h1M608.7 17.9v1M1247.1 355.3v1M1113.8 243.9h1M812.5 349.8v1M1094.3 220.8v1M1249.5 134.7h1M904.2 182.3h1M352.9 338.3v1M1138.3 49.4v1M267.8 307.2h1M112.6 45.3h1M138.8 143.3h1M383.9 39.2h1M609.1 343.8h1M175.2 64.8v1M146.8 238.4h1M1087.5 45.3h1M100.4 171.6v1M1123.7 280.2h1M1139.2 101.0h1M310.9 93.6v1M1147.8 295.2v1M655.6 82.5h1M836.2 308.1h1M1058.1 8.8h1M1167.8 129.3v1M921.9 209.8h1M1072.8 9.1h1M27.5 127.7h1M1048.3 308.8v1M323.0 306.9h1M1255.4 204.0v1M1023.7 129.0h1M782.8 42.9v1M237.0 198.7h1M177.2 109.3h1M1221.6 206.1v1M341.9 333.5h1M244.7 338.9h1M450.5 276.9v1M1232.9 88.2v1M1165.6 119.3h1M334.6 303.4v1M1261.2 183.5h1M1125.6 162.5h1M1074.5 62.4h1M246.7 323.1h1M15.5 90.2v1M249.6 114.6v1M941.9 317.7h1M106.4 247.1v1M1105.1 357.4h1M262.5 256.8v1M941.7 201.4h1M39.1 288.8h1M311.7 268.5v1M185.8 321.2h1M612.1 3.1v1M610.6 47.8v1M1127.9 189.3h1M426.2 46.1h1M1187.6 51.4h1M999.0 301.1v1M299.7 333.8v1M213.5 21.6h1M217.8 339.8v1M1137.3 217.0h1M1025.3 194.6v1M1052.0 243.6h1M754.9 293.9h1M118.0 301.2v1M1174.0 168.4v1M705.6 20.6v1M107.4 147.1v1M876.0 341.1v1M1160.3 311.5h1M109.9 122.2v1M463.7 359.1h1M708.3 308.6v1M1191.6 351.2v1M488.6 27.4h1M27.5 263.2v1M182.3 327.9h1M680.7 351.1v1M151.1 355.1h1M1003.7 354.5v1M133.2 84.5h1M22.2 319.8h1M13.1 140.2v1M1260.6 310.7h1M1057.7 167.5v1M63.8 174.3v1M420.3 337.0h1M276.4 214.7v1M1257.3 25.7h1M53.4 191.9h1M1093.5 23.2h1M746.3 290.0v1M1134.8 60.3v1M205.7 207.9h1M131.1 43.6v1M1089.2 22.1v1M1022.9 95.5v1M392.6 20.3h1M1160.8 121.6v1M207.5 37.1v1M1134.9 256.6h1M35.7 203.9v1M283.9 309.7h1M774.1 291.2h1M26.9 324.8h1M554.5 16.1h1M60.9 266.1h1M1276.7 278.5v1M277.5 4.6v1M819.1 259.6h1M1181.6 197.1h1M132.0 287.7h1M6.3 3.9h1M159.0 343.4v1M924.4 264.6v1M316.6 20.5h1M1263.0 92.5h1M1139.7 195.9h1M176.1 31.0v1M1052.3 280.3h1M296.8 30.7h1M1201.3 92.8v1M114.9 260.2h1M1211.8 97.2v1M278.7 180.9v1M1057.7 344.2v1M938.0 190.0h1M21.0 222.7v1M973.3 356.7h1M6.7 259.9v1M426.6 21.4v1M1248.3 300.5h1M363.4 126.2h1M642.4 305.6v1M1134.5 15.5v1M1071.1 318.8v1M1021.3 89.9v1M1122.0 245.8v1M1178.0 118.5h1M147.2 290.2h1M66.1 114.1h1M41.2 91.8v1M107.8 307.5v1M83.2 265.7h1M815.1 340.0h1M216.2 0.5v1M411.4 348.7h1M1043.2 357.4h1M33.2 182.9v1M946.6 3.7h1M47.4 290.8h1M1276.9 43.6v1M1235.3 294.6v1M334.2 64.0h1M324.3 318.4v1M355.8 21.4h1M164.6 243.6v1M1068.5 209.5h1M812.8 320.8h1M1162.4 61.1v1M1226.0 166.0h1M445.4 4.6v1M471.8 22.4v1M225.4 9.7h1M1086.0 252.4v1M1024.9 132.3v1M244.7 201.0v1M1165.6 314.2h1M653.3 324.3h1M600.3 51.4h1M23.4 12.4h1M2.0 310.1h1M174.2 164.9v1M189.1 334.8h1M77.2 255.8v1M1076.3 337.2h1M1134.9 135.9v1M1066.8 356.8v1M54.8 341.6v1M437.3 56.4h1M1066.4 136.0h1M295.9 30.0v1M1017.2 227.1h1M104.9 311.6v1M948.8 141.2h1M972.6 351.9h1M208.1 342.2v1M719.1 94.0h1M385.7 344.6h1M1273.6 45.3v1M138.0 307.2h1M43.7 20.1v1M196.2 181.4h1M60.1 15.8v1M141.7 21.3h1M1260.6 61.4v1M1159.1 246.8h1M1208.0 270.0v1M836.8 51.6v1M230.1 55.6v1M573.6 347.8v1M87.4 57.1h1M1199.8 94.8v1M1020.0 292.4v1M864.9 348.3h1M80.7 248.1v1M304.3 10.9v1M159.8 25.7h1M164.8 224.4v1M1097.9 338.1h1M273.0 352.2h1M1182.9 245.5v1M1275.4 235.4v1M1238.3 68.0v1M1200.1 301.6v1M1158.2 254.8v1M262.8 40.7h1M1093.3 27.3h1M1194.6 197.6h1M1248.4 302.1h1M202.2 97.7h1M1258.4 52.5h1M1111.7 252.6h1M689.1 332.3h1M470.6 344.4h1M247.3 47.6h1M49.8 92.5h1M1157.3 148.3v1M933.7 3.4v1M813.5 41.0v1M111.7 202.1v1M1242.5 234.3h1M697.2 90.6h1M74.4 133.3h1M709.6 22.3h1M94.2 55.8h1M236.3 268.9v1M267.0 307.1v1M427.3 79.9v1M174.5 82.1v1M63.2 182.6v1M414.6 324.4v1M1079.1 336.6h1M237.1 309.6h1M1014.2 181.4h1M930.7 326.9v1M185.0 289.2v1M774.3 53.8v1M173.5 211.1h1M1110.3 324.2h1M836.7 296.7v1M1169.8 202.5v1M1251.7 77.3h1M321.2 299.1v1M1111.5 94.1v1M291.7 26.4v1M1089.2 298.8v1M394.3 34.5v1M283.9 8.8h1M1116.8 8.5h1M837.0 317.4h1M1085.0 152.5v1M350.4 3.3h1M12.5 135.0v1M255.7 344.0v1M205.2 109.2v1M144.5 10.1v1M563.8 353.4v1M1218.9 222.6v1M1136.5 74.9v1M93.0 280.1h1M194.7 16.7h1M1093.0 146.0h1M169.2 293.0v1M552.6 28.2v1M730.4 302.6h1M1033.4 321.5v1M79.6 189.5v1M156.0 80.4v1M176.2 91.3v1M1096.8 89.3h1M1229.2 215.8v1M779.2 324.0v1M267.0 356.3h1M18.8 205.3v1M693.3 36.2v1M206.1 328.4v1M179.9 187.9v1M392.0 10.3h1M117.7 224.3h1M72.0 303.4h1M769.9 92.3v1M485.6 266.6h1M303.0 286.5h1M1151.2 147.7v1M681.6 15.3v1M1273.9 187.2h1M1039.1 42.1h1M17.8 38.4v1M1258.0 70.9v1M1223.2 53.7v1M1268.6 10.5h1M93.8 45.1h1M518.7 16.7v1M6.2 88.8v1M56.3 134.7v1M733.8 324.0h1M187.5 68.1v1M404.0 52.8v1M693.4 312.5h1M200.1 20.1v1M7.8 351.3h1M100.4 73.2h1M892.5 348.8v1M1230.1 90.2v1M24.8 132.3h1M793.3 329.3v1M119.4 357.1h1M265.3 212.2h1M581.1 288.8h1M431.0 309.1v1M254.3 294.3v1M50.7 281.4h1M75.7 237.2v1M361.2 34.6v1M1114.3 49.4h1M809.5 333.1h1M243.1 182.6v1M1050.8 272.0h1M97.2 197.8h1M746.4 332.8v1M1105.6 7.0v1M730.0 51.8h1M516.1 74.4v1M296.0 356.9v1M1221.7 192.6h1M72.2 284.1v1M318.5 234.5h1M1274.6 323.6v1M1159.4 301.3h1M137.2 120.0h1M269.5 207.9v1M382.1 2.7v1M497.2 269.2v1M1175.2 355.4h1M1040.4 227.2h1M7.9 206.1h1M394.1 300.2h1M218.3 317.1h1M1114.2 343.7v1M242.7 231.7v1M889.1 42.2h1M830.0 35.0h1M292.5 304.9v1M986.8 187.0v1M231.4 103.5v1M508.5 38.2v1M145.6 119.3v1M1032.8 169.4v1M1214.1 123.3v1M784.5 98.4v1M1075.9 325.1v1M997.7 303.9v1M532.5 352.2v1M1195.2 304.1h1M354.9 218.3v1M1208.3 2.5h1M1163.8 25.2v1M1038.9 126.4h1M520.0 15.6h1M1243.7 253.5v1M796.7 40.5v1M9.2 139.7h1M1262.9 132.2h1M1135.7 320.0h1M31.6 279.0v1M60.3 359.0h1M907.4 270.4v1M902.2 349.5v1M191.1 313.0h1M1060.2 12.2v1M84.6 107.2v1M139.9 310.4v1M1058.3 88.8v1M898.8 331.7h1M1126.5 346.9h1M171.2 314.9h1M59.0 225.6v1M326.5 347.9h1M1019.5 318.6v1M315.2 307.3v1M526.5 274.0v1M302.6 177.5h1M1194.8 355.9v1M756.8 45.6h1M1168.6 285.0v1M1043.6 20.2h1M82.1 322.1v1M532.5 306.8h1M1073.7 295.7v1M568.5 67.5v1M1208.3 283.3v1M10.8 165.0h1M336.2 161.0v1M104.0 22.8v1M122.9 20.8v1M143.3 169.6h1M1160.4 121.6h1M60.5 41.5h1M505.7 83.7v1M1272.7 276.8v1M104.4 37.6v1M1168.7 120.5v1M148.7 142.3h1M291.9 289.6h1M527.8 48.9v1M1069.0 355.8v1M1193.0 86.9h1M1143.3 357.9h1M1260.8 286.9v1M518.8 76.4v1M1056.7 70.7v1M305.2 316.0h1M528.4 322.7v1M1120.1 164.8v1M807.8 23.0v1M638.4 295.1h1M1205.3 210.8v1M88.2 108.8v1M69.5 28.1h1M152.8 322.4v1M962.9 314.4v1M458.7 312.0v1M1210.6 8.3h1M298.3 331.5h1M148.8 86.1h1M1120.2 106.6v1M3.5 117.1v1M733.4 24.0h1M950.4 336.0h1M354.0 0.0v1M673.9 328.5v1M699.0 319.2h1M139.8 54.6v1M306.9 336.3h1M95.2 254.1v1M1034.6 307.6h1M1269.2 221.4h1M1047.4 359.7v1M523.5 13.4h1M618.5 12.7h1M1246.2 0.2v1M69.9 137.1v1M156.9 40.4h1M737.4 329.7h1M113.6 284.6h1M194.2 70.1v1M1174.3 268.7h1M960.8 257.4h1M313.5 22.1v1M209.1 107.4h1M1073.4 204.3v1M1269.6 356.3h1M438.3 87.8v1M99.8 177.3h1M647.3 279.5v1M966.7 10.8v1M822.3 318.1h1M786.9 280.8h1M1274.0 95.8v1M1232.9 10.0v1M1223.8 186.2v1M931.8 12.0v1M877.6 355.3v1M875.1 24.7h1M694.5 305.1v1M21.2 133.1v1M341.3 281.8h1M953.9 324.6h1M283.5 312.3h1M1224.9 221.2h1M128.5 256.6h1M258.6 0.3h1M1268.9 2.9h1M1192.8 338.6h1M1251.0 43.8h1M927.4 288.8h1M1236.9 298.4h1M1024.2 344.2h1M183.4 289.1v1M1080.0 352.1h1M1218.1 26.5v1M251.4 54.2v1M221.4 263.4h1M250.4 24.9h1M934.6 48.9v1M651.2 83.1h1M553.7 4.3h1M210.0 314.8v1M221.9 21.3v1M752.1 55.4h1M168.8 0.8h1M1189.1 298.2v1M1197.0 20.6v1M423.6 351.5h1M89.6 346.4v1M1021.9 283.5h1M1024.7 341.9h1M1238.5 358.4v1M49.0 281.5v1M72.9 319.5h1M805.3 329.2v1M1161.9 338.3v1M1117.7 248.1h1M216.0 310.4h1M1017.3 133.1h1M930.5 199.6h1M1224.0 282.5h1M98.4 171.7h1M1099.1 350.6v1M5.9 15.8h1M1081.2 312.7h1M83.6 149.1h1M1204.5 264.4h1M100.5 204.3v1M307.1 220.9h1M1079.1 229.2h1M612.4 342.2h1M505.8 2.8h1M1132.7 180.0h1M1261.5 237.7v1M1261.6 221.1h1M150.8 280.4h1M926.7 334.4v1M918.3 320.1h1M1246.9 92.0h1M1242.2 82.2h1M670.6 340.5v1M445.9 312.7v1M790.2 51.1v1M44.5 11.9v1M533.3 35.2v1M1261.8 341.6v1M673.5 359.9v1M284.5 166.2h1M1084.1 227.5v1M1137.6 167.5h1M529.7 341.2h1M45.2 122.6h1M183.2 356.2v1M11.7 350.4v1M25.8 172.3v1M1178.4 256.9h1M1139.6 286.7h1M489.0 34.8h1M1061.0 56.7v1M1194.8 87.3v1M1267.9 9.0v1M119.0 276.1v1M1168.4 276.0h1M893.5 350.5v1M1190.7 138.1h1M233.5 235.5v1M1251.5 133.7v1M1209.9 108.6h1M1140.7 289.3h1M433.8 332.3h1M1050.8 196.4h1M1179.9 110.7v1M118.6 5.2h1M566.6 64.9h1M423.8 351.6v1M1055.0 152.8h1M1062.4 173.0v1M651.5 64.1h1M751.9 34.4v1M334.1 322.8v1M205.7 124.2h1M417.8 59.5v1M1221.8 180.6h1M56.0 121.8h1M151.5 146.6h1M687.7 331.2v1M935.9 314.3h1M1105.0 219.9v1M336.4 355.4h1M732.4 67.3h1M1248.2 125.4h1M914.5 313.5h1M102.9 215.3h1M325.9 17.6v1M1214.1 325.9h1M132.6 156.3h1M1186.2 94.0v1M912.1 321.4v1M931.1 317.7v1M1249.8 247.5v1M77.1 305.4h1M1182.3 125.1h1M14.6 301.9v1M1212.7 85.9h1M73.2 357.8h1M8.1 208.9h1M846.8 33.4h1M873.7 352.4v1M475.2 15.8v1M143.6 35.8h1M202.9 329.8h1M397.3 350.6v1M374.1 88.5v1M879.9 320.6v1M303.2 63.6v1M43.8 169.2h1M1044.3 274.1v1M719.7 351.5h1M104.3 297.4v1M943.6 87.6v1M1097.4 224.3h1M1253.7 357.3v1M1204.8 70.4h1M284.2 210.6v1M1099.9 148.6h1M154.5 153.4h1M554.2 316.1h1M1074.4 0.0v1M792.1 322.7v1M1251.3 266.6v1M61.9 217.2v1M1044.3 32.1h1M638.0 7.6h1M1159.0 319.1v1M152.1 259.8h1M1033.3 20.4h1M303.9 245.5v1M1248.5 32.3h1M30.6 82.4h1M1091.3 155.3h1M273.6 207.7v1M809.6 319.2v1M370.8 350.0v1M93.1 66.4v1M1179.9 271.6v1M501.5 76.4v1M1167.3 268.8v1M291.6 22.8v1M1191.7 148.5v1M1258.4 226.2h1M73.7 197.8h1M645.6 319.7v1M612.3 311.3h1M84.7 257.8v1M180.7 140.4h1M890.7 352.0v1M62.0 331.3h1M169.9 18.7h1M998.1 355.8h1M439.8 33.4v1M363.3 13.0h1M1147.6 282.6v1M1213.7 311.2v1M1113.2 226.8v1M1237.9 11.2v1M1193.8 355.9h1M1168.5 88.8h1M163.8 15.6h1M950.2 294.2v1M1275.9 90.2v1M1268.8 149.4v1M207.3 95.4h1M584.2 318.2v1M1189.5 348.2h1M1132.8 122.4h1M17.4 288.4v1M366.9 279.2h1M800.4 58.5v1M1023.2 238.4h1M24.7 157.3h1M1262.8 275.0v1M887.9 281.6v1M1246.6 283.0v1M42.6 67.2h1M1012.9 326.3v1M63.0 132.3v1M47.7 165.1h1M982.8 284.0v1M1153.6 169.1h1M100.8 180.9h1M258.4 289.8v1M1041.6 84.9v1M312.7 26.7v1M343.6 42.6v1M1260.1 339.1h1M1262.4 259.5v1M516.9 322.4v1M237.0 243.2v1M819.8 12.7v1M518.8 340.8v1M1100.8 284.1h1M479.1 0.6v1M1163.3 94.7h1M1264.6 209.9h1M445.8 53.3h1M153.5 64.3v1M885.9 354.2v1M249.7 164.0v1M451.9 274.5v1M55.1 355.1v1M907.5 331.0h1M1121.4 183.4v1M1204.3 29.2h1M845.6 87.9h1M594.5 1.1h1M312.2 20.0h1M926.5 120.6v1M470.6 44.6v1M1219.4 199.6h1M1270.8 205.1v1M1007.1 236.3h1M1171.7 189.9v1M113.0 140.5v1M77.0 283.7h1M945.4 344.2v1M263.1 106.8h1M203.7 171.1v1M924.0 268.1h1M1165.6 203.3v1M336.6 320.1v1M1005.5 49.0v1M940.3 37.4v1M1204.5 21.2h1M1003.6 280.3v1M1278.9 211.8v1M1101.9 6.3v1M146.1 39.8h1M1241.6 157.1v1M795.0 21.5h1M319.4 17.2v1M1044.9 144.7v1M419.3 308.9h1M1024.4 34.8h1M682.7 58.4v1M1144.1 273.5h1M53.9 89.5h1M1266.8 355.2h1M258.2 6.8h1M0.5 280.4v1M806.0 93.9h1M1042.5 80.8v1M434.3 349.5v1M1205.6 31.0h1M1.2 211.5h1M1031.1 14.9h1M180.6 109.1h1M3.2 159.3v1M78.5 188.1v1M801.5 0.9h1M206.8 338.3v1M293.0 10.3v1M470.8 279.9v1M515.4 344.4v1M45.7 162.9v1M665.1 71.1h1M750.3 55.6h1M1206.2 2.2v1M755.0 1.5h1M1170.7 128.0h1M80.2 327.0h1M333.9 343.3h1M549.6 38.6h1M53.2 273.1v1M732.7 353.0v1M115.0 193.3v1M1114.0 157.1h1M570.0 45.7v1M969.1 231.0v1M187.2 301.6h1M1205.7 112.6v1M134.8 30.0h1M1275.5 283.9v1M199.7 146.4v1M403.1 60.7h1M973.5 56.7h1M1164.5 235.0v1M950.7 68.8v1M987.8 16.5h1M909.9 280.0h1M623.4 326.2v1M1218.9 144.0h1M1152.6 274.3v1M691.8 7.4v1M281.4 230.3h1M713.7 1.1v1M641.7 17.6v1M42.9 197.4v1M1031.9 23.7v1M1063.2 170.5v1M838.7 41.7h1M58.0 186.5v1M306.9 336.4v1M686.4 302.4v1M417.7 48.1v1M514.8 326.1h1M1077.4 353.6v1M499.8 25.2v1M413.7 327.8v1M992.2 166.4v1M24.6 342.4h1M271.3 4.9v1M1239.4 246.7h1M84.0 37.6v1M754.6 337.8h1M14.0 275.4v1M1179.1 287.4v1M194.5 315.5v1M1061.9 178.4v1M60.5 155.1h1M1113.9 274.8v1M1071.0 193.3h1M204.6 338.0v1M64.4 122.7v1M1067.7 328.7h1M973.4 107.8v1M53.3 101.2v1M953.8 75.9h1M21.7 132.6v1M599.4 37.8v1M126.5 346.6h1M613.3 20.1v1M918.7 300.8v1M74.0 153.4v1M807.2 298.2h1M192.0 67.6v1M1116.4 115.8v1M1246.4 85.8v1M811.7 85.0v1M84.5 169.0h1M456.9 30.0v1M21.9 325.3v1M726.7 70.0h1M104.1 13.6h1M230.3 96.2h1M903.6 266.4h1M405.0 15.2v1M1166.2 54.6v1M168.5 30.0v1M447.3 31.5v1M783.8 7.5h1M193.6 327.5v1M225.1 278.3v1M963.4 42.1v1M260.9 268.8h1M401.5 29.9v1M36.0 19.3v1M187.5 9.5v1M36.4 100.8h1M146.2 2.0v1M455.3 304.0v1M753.4 57.4h1M91.7 8.0v1M120.1 57.2h1M108.4 299.2h1M273.9 22.2h1M1031.7 104.9v1M195.5 238.9h1M144.1 148.5h1M1184.3 194.5h1M1180.7 286.7v1M120.7 54.9h1M132.3 103.1v1M640.3 8.2h1M730.0 13.1h1M923.2 332.2h1M1175.6 45.0h1M458.7 72.7v1M1194.1 313.9h1M137.6 224.2v1M1093.7 327.2v1M874.2 288.1v1M126.4 80.9v1M203.3 350.7h1M350.0 77.3h1M495.7 354.6h1M947.6 325.5h1M1124.0 255.7h1M895.6 28.7h1M381.9 354.9v1M21.4 96.8v1M883.6 15.4h1M1004.9 121.8v1M1108.1 353.0h1M399.6 27.5h1M1236.8 64.2h1M716.8 52.5v1M325.1 310.6h1M1181.6 179.4h1M597.6 15.0h1M59.2 30.6h1M705.0 334.1h1M1064.6 139.8v1M438.4 19.6h1M1153.3 351.0h1M1244.9 166.4h1M1236.7 358.6h1M942.6 66.5h1M107.9 8.2v1M851.0 30.0h1M321.6 126.1v1M37.4 221.6v1M810.4 10.3v1M1198.6 38.8h1M382.1 329.0v1M891.8 355.9v1M171.8 132.0v1M91.5 18.1h1M883.1 343.2v1M1017.7 297.7v1M1163.5 224.9h1M234.4 187.7v1M202.6 18.8h1M237.0 8.3h1M177.4 79.9v1M757.7 8.0v1M581.6 340.7v1M275.9 331.5h1M1183.1 170.8v1M279.7 22.4v1M1112.5 31.2h1M350.7 321.7h1M1204.7 227.8h1M1024.0 356.5h1M123.7 257.1v1M1090.0 201.1v1M1003.4 305.6h1M51.4 270.9h1M831.9 299.5h1M136.8 331.4h1M1035.3 112.9v1M210.2 130.1v1M1010.6 240.6v1M221.6 358.4h1M210.3 32.7h1M110.7 33.0v1M185.6 2.5h1M1208.7 120.7v1M683.7 343.2v1M1181.3 201.7v1M1064.3 293.6h1M926.2 166.2v1M1215.9 83.9v1M106.1 148.5v1M282.5 116.1h1M213.1 139.9h1M537.8 332.8h1M22.7 172.7h1M1112.6 286.3h1M613.7 4.9h1M1223.6 349.3h1M331.5 338.1h1M225.4 178.2h1M732.9 313.2h1M1203.5 63.5h1M178.0 70.6v1M34.4 8.7v1M832.2 6.0h1M1192.1 120.8v1M1249.6 116.1v1M212.7 33.2h1M330.0 101.4v1M340.7 348.1v1M1099.6 163.1v1M1155.9 336.2v1M230.6 57.3v1M1201.2 334.4v1M158.4 132.9h1M1276.1 90.4v1M886.2 303.4v1M243.7 25.9v1M946.0 306.5h1M1227.3 83.6v1M1048.6 52.5v1M1241.5 179.3h1M200.5 105.0h1M992.5 304.3v1M1017.0 324.5v1M45.2 249.7v1M272.7 338.1h1M1259.4 340.1h1M471.3 104.4h1M204.6 159.0v1M1259.9 350.8h1M872.7 312.6h1M48.0 257.1v1M847.7 46.5v1M500.0 277.2h1M91.8 156.8h1M805.6 355.9h1M1070.9 100.0v1M992.2 244.6v1M1169.2 48.5h1M281.7 241.7h1M124.8 277.4v1M827.7 29.3h1M463.1 326.1h1M1023.7 352.9h1M605.5 42.0v1M632.9 291.5v1M1155.1 297.2h1M1048.4 42.3h1M780.3 19.6v1M822.4 80.3v1M370.7 40.6v1M175.8 52.0v1M948.1 47.8h1M401.9 34.1h1M1231.6 145.9v1M1190.5 126.6v1M865.2 28.2v1M170.1 25.5v1M432.6 331.1v1M91.9 100.6h1M708.6 314.2h1M1227.8 105.8h1M261.1 52.1h1M185.5 177.1h1M1166.9 22.3v1M136.1 106.8h1M602.7 314.7v1M418.1 354.2v1M84.8 21.5v1M421.3 301.1h1M159.5 4.3v1M525.8 93.3h1M870.1 74.0v1M176.0 86.1v1M582.7 291.1h1M520.7 19.2v1M1207.5 174.4v1M843.7 3.1v1M648.7 359.4h1M1240.5 193.6h1M16.5 258.0h1M1191.7 186.3v1M686.3 38.7v1M168.2 233.1v1M893.1 329.3v1M775.5 28.9v1M843.9 332.0h1M807.4 357.1h1M150.9 58.2v1M744.1 292.8v1M757.8 336.5v1M9.1 200.9h1M1013.6 310.6v1M1019.3 156.6h1M199.9 288.8v1M255.0 61.3v1M1174.4 188.2v1M635.6 18.6h1M43.4 331.9v1M28.2 178.8v1M67.4 36.2v1M231.7 0.2v1M1125.1 2.0v1M1160.3 57.1h1M1157.4 180.7v1M1159.3 250.0v1M959.3 294.0h1M1106.9 129.3v1M39.7 348.7h1M987.1 225.1v1M1228.5 335.7h1M1091.1 156.7v1M456.8 337.2h1M1234.0 262.8v1M1077.1 265.1v1M313.5 296.4v1M262.3 34.7h1M168.4 273.6v1M674.1 319.8v1M16.4 67.3h1M105.1 199.6h1M474.9 74.1h1M723.6 70.7h1M1022.1 338.2v1M1245.7 256.0v1M256.2 123.8h1M607.2 3.0h1M113.7 168.0h1M569.6 302.9v1M86.0 199.0h1M764.7 323.1h1M1245.3 32.0v1M661.2 344.6h1M83.8 232.8v1M188.9 227.7h1M608.7 275.4h1M1262.5 35.8v1M1015.7 193.9h1M210.1 106.1h1M473.8 75.9h1M99.0 224.3h1M1189.6 2.2v1M748.8 356.6v1M263.6 170.4h1M396.0 26.9h1M91.7 192.0v1M75.0 53.4h1M308.9 272.6v1M976.2 141.5h1M102.8 234.5h1M1272.5 3.9h1M830.4 337.2v1M492.7 318.3h1M625.9 98.1h1M952.7 36.0h1M1019.4 48.5v1M127.1 338.8h1M1139.5 331.4h1M267.5 294.4h1M1114.4 186.2h1M889.5 23.6v1M1242.2 178.4v1M1074.3 319.0v1M767.2 286.3h1M813.8 10.7v1M1129.7 39.1h1M1186.6 322.9v1M899.9 203.8v1M1027.9 79.7v1M916.3 310.2h1M1224.8 79.3v1M841.5 340.2v1M703.2 323.6v1M144.5 175.7h1M1032.6 91.9v1M135.9 204.3h1M36.8 228.8h1M1269.2 204.4v1M263.3 73.8v1M31.2 154.7h1M154.5 235.0h1M942.0 151.8v1M49.8 1.2v1M1185.6 99.9v1M1255.2 318.2h1M375.4 20.4v1M185.1 63.1h1M345.6 332.2h1M857.1 337.0h1M36.2 343.8h1M1217.4 210.7v1M208.7 115.8h1M1238.9 318.3v1M1173.4 283.3h1M211.0 79.8h1M1190.9 98.0v1M921.5 166.4h1M183.2 200.1v1M966.1 21.8h1M172.9 267.7h1M386.7 334.4h1M173.8 323.8h1M1215.7 227.0v1M1147.6 335.2h1M479.8 346.3v1M338.9 357.8v1M51.1 329.6h1M528.8 346.5v1M1148.1 64.2v1M1133.8 282.1h1M546.6 30.8v1M771.4 356.6v1M216.8 311.4h1M1212.0 336.6v1M434.4 76.0h1M618.6 44.8v1M623.5 43.9h1M35.4 134.0v1M416.8 306.1v1M1038.6 248.7v1M218.5 302.5h1M242.7 230.7h1M1203.8 50.8v1M1201.9 97.6h1M138.8 87.9v1M422.8 297.8v1M1243.6 144.7h1M779.6 12.3h1M874.2 48.5h1M1148.2 211.9h1M121.1 286.5v1M1141.5 160.4h1M1125.7 142.0v1M1160.9 46.7h1M411.2 318.0h1M112.7 110.0h1M1211.1 158.1v1M718.0 48.9h1M1181.2 56.3h1M86.2 325.1v1M911.3 66.5h1M105.2 317.4v1M196.0 291.1h1M1277.5 96.8v1M1168.9 213.6v1M459.6 20.7h1M360.5 310.4v1M228.6 329.3v1M325.9 55.0h1M836.4 325.8h1M255.0 359.1h1M334.9 51.6v1M5.3 15.2v1M1154.7 83.4h1M1203.3 181.0h1M731.5 32.7h1M124.2 320.9v1M394.4 1.0h1M166.2 116.5h1M260.6 330.7v1M582.6 3.9v1M1245.7 241.2h1M1044.4 107.2v1M422.5 15.4h1M227.9 349.9v1M1249.0 348.6h1M410.3 298.9v1M1256.0 240.0v1M383.1 15.4h1M1169.6 138.6h1M289.0 8.0v1M16.8 235.3h1M59.3 208.3v1M899.3 42.5v1M1228.8 216.2v1M618.8 41.2h1M1149.8 93.0v1M19.5 168.3h1M73.3 114.1v1M625.2 62.7v1M13.8 180.4v1M1018.5 349.8v1M1225.3 287.7h1M30.2 303.5v1M58.0 78.8h1M1259.5 107.3v1M320.0 311.3v1M283.1 278.1h1M36.8 184.1h1M971.8 26.9v1M80.6 146.5h1M133.6 346.3h1M761.0 318.1v1M28.7 281.1h1M1111.8 69.9v1M106.5 159.0h1M1238.0 292.2h1M1044.7 80.5h1M61.5 62.6v1M1170.7 28.6h1M339.6 342.4v1M164.5 211.1v1M46.1 109.7v1M223.8 343.6h1M1239.5 31.5h1M1247.3 8.4v1M1202.0 94.0v1M512.8 4.1v1M1196.1 2.9h1M1191.6 185.9h1M208.5 291.9v1M962.3 313.2h1M1094.2 186.4h1M1205.0 209.7h1M584.2 308.4h1M1205.0 262.9h1M484.9 342.4v1M336.0 76.2h1M855.4 307.4h1M77.3 176.6v1M830.5 34.5h1M528.5 304.1h1M428.2 324.8v1M18.4 162.6h1M181.8 138.0h1M145.9 146.8v1M951.2 193.0h1M1235.3 115.8h1M1178.6 164.1h1M661.2 8.5v1M603.8 322.6h1M22.2 272.8h1M1242.6 319.8v1M1224.6 139.5v1M1198.6 186.4h1M140.6 236.4v1M290.0 344.6h1M185.2 215.7h1M90.0 88.7v1M1235.4 296.4h1M23.6 238.3h1M632.0 30.4v1M1174.2 321.7v1M1213.4 110.9h1M110.4 22.6v1M1159.5 279.7v1M1277.8 287.6v1M401.0 14.3v1M245.1 290.7h1M1109.6 299.8h1M1148.1 52.8h1M85.7 113.2h1M160.4 270.1v1M2.0 197.3h1M38.7 130.3h1M1015.8 87.0v1M1224.9 217.5v1M213.6 339.2v1M1024.2 287.1h1M1237.7 115.0h1M1195.1 323.5v1M379.3 329.7v1M124.9 357.7h1M1252.8 275.9h1M156.6 291.5h1M1208.3 48.3v1M1195.5 208.7h1M1215.1 47.2h1M1264.7 276.2v1M854.8 315.8h1M655.6 292.5v1M424.4 284.7h1M238.0 330.6v1M1152.8 319.8h1M932.0 38.1h1M175.1 268.3h1M711.1 282.1v1M533.5 30.5h1M379.7 2.9v1M568.9 7.1v1M440.4 314.9v1M57.4 63.2v1M648.7 318.2v1M1247.9 146.8v1M1141.8 162.9h1M42.6 223.2h1M1091.3 156.2h1M136.1 275.0v1M69.4 108.7h1M1246.7 282.4v1M1202.4 282.6v1M617.1 52.1h1M702.6 77.6h1M1068.6 33.6v1M1093.8 107.0h1M168.2 316.3v1M134.5 22.5v1M972.6 196.1h1M1154.1 345.0h1M1053.2 217.5v1M610.9 299.4v1M1060.2 187.5h1M726.9 357.6h1M282.7 129.1h1M94.3 294.9v1M680.5 265.1h1M1202.3 289.0h1M119.3 355.5v1M88.7 135.2h1M98.5 301.8v1M1191.5 35.6v1M454.1 349.3h1M1181.5 82.9h1M1083.3 107.4h1M446.5 28.2h1M1204.7 177.4h1M1019.3 1.9v1M252.8 44.6v1M297.5 322.9h1M626.8 268.7h1M1135.4 173.4v1M881.4 330.1v1M184.3 38.9v1M737.9 271.5v1M47.3 164.3v1M617.9 320.2h1M125.8 345.8v1M138.3 164.0h1M133.6 101.4v1M1171.4 262.4h1M42.4 223.6v1M982.0 312.9h1M688.1 60.2h1M467.9 331.9v1M258.0 179.8h1M1204.1 199.3h1M236.0 284.8v1M108.5 12.5v1M278.5 24.8h1M1145.0 197.7v1M1235.6 11.3h1M1037.1 84.7v1M248.2 22.9v1M1075.4 34.0h1M1269.2 231.5h1M944.5 10.4v1M330.5 321.8h1M306.2 20.5v1M1085.2 92.3h1M628.6 64.6v1M1031.2 99.1h1M1149.5 148.8h1M43.0 21.9v1M184.9 337.7h1M1260.8 324.8h1M1086.3 124.7h1M374.2 76.7v1M793.8 0.2v1M1223.3 110.2h1M403.0 67.8h1M489.5 9.6v1M902.8 27.7h1M1031.5 30.6v1M1149.5 156.4h1M457.3 63.9h1M656.8 36.0h1M1012.5 186.4h1M433.1 340.2h1M92.9 78.9h1M1204.0 180.5v1M11.5 204.6h1M1101.4 14.7h1M408.9 262.5v1M953.5 311.4h1M1121.5 161.8h1M203.9 273.2v1M1251.3 92.0v1M658.6 25.7h1M95.5 182.7v1M989.4 45.4h1M1251.7 43.9h1M19.7 53.6h1M939.9 29.4h1M1058.9 1.0v1M386.4 332.2v1M181.7 5.7h1M1113.5 323.6h1M172.8 206.4v1M751.0 84.7h1M1265.6 83.9v1M1249.0 41.6v1M641.2 346.2h1M885.6 261.0h1M1064.2 354.6h1M657.5 36.0h1M1236.8 273.6v1M103.4 332.4v1M253.9 99.7v1M46.1 312.0h1M43.7 37.3h1M167.8 226.3h1M10.4 154.5h1M218.8 285.7h1M578.0 268.3h1M1022.5 10.1v1M1172.5 303.4v1M1232.3 266.4v1M1218.3 330.1v1M85.0 259.6h1M947.3 334.8h1M58.4 253.5v1M1250.0 137.0v1M685.7 21.0h1M417.3 42.1h1M25.6 276.5h1M1117.0 17.8v1M117.4 313.6v1M1006.3 284.5v1M1101.4 93.4v1M108.5 9.8h1M1150.2 151.4v1M1248.2 243.8h1M1022.3 123.4v1M968.0 67.0h1M1248.8 90.6v1M1167.8 325.2v1M1191.8 270.8v1M115.6 246.9h1M694.2 352.2h1M1191.4 343.6v1M764.5 262.8v1M57.1 236.0v1M715.6 49.3h1M209.7 10.8v1M923.0 21.7v1M1145.0 74.4h1M725.1 322.2h1M314.9 7.0h1M750.5 306.9h1M1228.6 280.1h1M119.1 13.2v1M69.9 99.6v1M677.3 52.3v1M1201.5 196.2v1M1045.7 286.8v1M1209.0 23.4h1M1119.2 286.6h1M72.9 189.9v1M103.8 89.0v1M920.3 269.3v1M228.7 279.2h1M1263.5 34.7v1M1150.2 10.5v1M343.4 337.4h1M1146.4 103.7v1M521.2 289.0h1M501.1 14.6v1M996.8 164.3h1M365.4 85.1v1M216.4 13.1h1M421.2 347.4h1M541.4 358.8v1M442.5 43.0h1M990.4 67.0v1M352.2 203.5v1M1232.0 306.8v1M888.2 351.2h1M218.3 6.7v1M154.4 157.9h1M158.7 346.3v1M1099.3 61.9v1M296.8 32.0v1M1053.9 73.4v1M146.7 48.0v1M915.6 358.6h1M113.2 198.3h1M914.9 34.5v1M854.2 339.6h1M601.7 44.2h1M172.4 47.6v1M802.7 357.7h1M192.3 339.2v1M857.1 329.2v1M352.5 336.0h1M464.0 59.5v1M1186.6 17.1v1M1218.8 124.6h1M926.6 42.3v1M1049.8 345.1v1M1081.7 306.0v1M367.8 249.6v1M1264.2 182.0v1M1091.9 300.2v1M123.2 113.5h1M1026.2 170.1v1M35.0 15.8v1M984.1 101.4h1M30.4 231.5v1M1160.5 115.0h1M116.1 4.5v1M1139.4 121.0h1M319.1 306.0h1M8.9 152.2h1M1207.4 207.4h1M209.0 308.6h1M656.9 284.1v1M164.7 59.5h1M969.7 50.1v1M454.9 346.4v1M85.6 307.8h1M842.3 356.2v1M834.1 349.8v1M649.9 8.3h1M118.7 247.0h1M692.6 320.3v1M1201.3 10.7h1M1098.1 336.7v1M904.7 342.7h1M1139.2 326.2h1M378.2 316.4v1M266.4 5.7v1M1163.1 124.2v1M1175.9 140.3h1M455.6 13.9h1M91.8 10.5v1M283.9 77.6v1M1108.9 152.7h1M512.4 339.8v1M472.6 10.9v1M547.5 351.3h1M1274.4 356.5v1M34.2 115.1h1M342.4 233.4h1M85.9 273.3v1M994.3 185.2h1M46.7 194.6h1M1248.5 328.8v1M1147.8 186.3v1M671.8 332.4v1M126.6 107.5h1M1027.2 273.9v1M490.3 279.1v1M911.7 312.1v1M1184.6 342.8h1M6.1 317.7h1M1175.3 179.1h1M1006.2 354.6h1M1018.2 262.0h1M76.0 37.1h1M1087.3 72.6h1M76.5 212.9v1M282.8 29.9h1M1130.9 230.5v1M1127.9 111.2h1M356.7 305.3v1M1116.1 258.6h1M33.1 244.7v1M1256.8 357.2h1M153.3 188.4h1M1017.4 6.2h1M201.3 8.5v1M669.6 358.9v1M359.8 358.2h1M1169.5 307.3v1M94.4 7.0v1M109.6 46.4v1M1261.7 343.6v1M86.8 138.3v1M790.4 296.2v1M870.7 43.5h1M814.8 1.4v1M1062.0 120.6h1M46.8 346.7h1M100.7 233.7v1M580.8 319.9h1M77.0 312.0v1M692.8 303.4v1M232.9 173.7h1M1173.4 180.5h1M199.2 236.5h1M1112.0 357.2h1M191.2 51.3h1M394.9 313.0h1M1150.6 63.1v1M122.1 141.9v1M974.8 41.1v1M48.5 18.2v1M52.0 32.0h1M879.8 278.7v1M44.9 15.1h1M1113.1 147.3v1M1165.7 23.8h1M28.8 127.0v1M1131.5 199.0v1M1113.3 65.4h1M714.6 17.3h1M69.3 50.2h1M415.8 7.0h1M252.9 11.3v1M435.0 13.9h1M28.9 263.4v1M1162.6 148.8v1M26.8 114.3h1M3.0 161.0h1M1144.3 281.2h1M246.4 353.1h1M1185.2 94.7v1M870.3 342.9v1M293.8 260.5v1M338.6 272.1v1M770.8 2.6v1M391.4 4.4h1M1105.9 328.5v1M236.2 37.9v1M1253.4 293.4v1M528.3 317.9v1M1202.4 181.7v1M736.1 310.3h1M90.9 206.0v1M167.6 70.5v1M1168.0 279.8h1M1044.4 85.5h1M262.6 152.8h1M223.4 6.4v1M40.4 17.0v1M1018.1 21.4h1M313.5 277.1h1M1115.2 229.6h1M1226.2 241.5h1M1172.3 104.5h1M436.4 2.9h1M445.3 8.1v1M280.8 38.8h1M671.5 18.0h1M1124.4 74.6v1M127.9 343.8v1M192.9 324.3h1M83.8 65.6h1M679.4 310.0h1M1132.8 114.5v1M158.6 275.3v1M680.0 251.2h1M430.7 266.4h1M476.6 303.9v1M988.1 344.8v1M303.7 293.2v1M564.0 271.2v1M823.4 49.1v1M24.3 239.2v1M137.7 305.6v1M779.6 314.7h1M1237.4 358.7h1M16.2 68.9h1M643.9 323.8v1M116.2 246.0h1M95.9 284.5v1M886.5 271.0v1M1143.2 333.9h1M848.0 315.1h1M370.3 50.6v1M1205.4 353.1h1M363.6 218.9h1M624.4 347.5h1M258.8 99.6h1M997.4 35.6v1M100.6 56.9h1M1206.4 135.0h1M240.5 162.1h1M533.2 279.9h1M961.2 22.7v1M436.0 27.1v1M364.5 45.4v1M367.4 8.2v1M283.8 326.4h1M1190.6 90.5v1M146.6 77.4h1M280.2 61.3v1M92.7 250.2h1M113.9 241.3v1M1032.4 33.0h1M1038.6 224.9v1M64.3 100.1v1M164.1 263.5v1M1258.8 85.9v1M1041.7 270.1v1M65.0 311.5h1M804.8 7.0h1M1144.0 194.6v1M721.2 100.4v1M144.1 178.6h1M824.2 293.2h1M53.1 154.3h1M1078.1 56.7v1M1211.4 130.9h1M47.2 38.6h1M317.6 316.7h1M245.1 38.1h1M1203.0 107.6h1M136.4 59.9h1M1155.7 75.3h1M197.2 341.3v1M58.4 54.5h1M1098.0 38.4v1M150.5 261.8v1M32.8 11.6h1M996.4 3.7h1M256.8 350.4v1M1116.4 299.1h1M1213.5 204.5h1M216.1 46.5h1M111.8 230.6v1M291.9 349.4v1M1010.6 325.9v1M232.3 42.5h1M1126.7 211.1v1M929.0 10.2v1M186.4 229.3v1M744.6 0.8h1M126.3 58.9h1M234.6 13.0v1M541.7 342.9v1M528.1 29.1v1M63.1 269.8v1M1222.6 71.8v1M360.4 296.5h1M1275.3 185.3h1M463.2 51.0h1M1045.6 114.9v1M130.1 247.8h1M754.9 334.3v1M1252.3 223.3h1M958.5 11.4h1M696.2 329.3v1M976.7 348.1v1M118.1 74.5h1M708.8 343.8h1M379.8 338.9v1M1273.0 196.2h1M741.4 79.6v1M170.8 260.4v1M516.5 293.8v1M268.4 206.5h1M158.5 213.7v1M36.2 87.3v1M748.0 312.2v1M463.3 289.4h1M366.6 342.9v1M303.6 69.5h1M497.9 26.3v1M21.9 303.3h1M72.7 36.6v1M445.3 44.1h1M705.5 298.5v1M298.8 50.3h1M839.2 295.8h1M1207.4 301.4h1M742.1 340.9h1M382.3 34.1v1M848.8 6.3v1M52.9 46.9h1M818.3 287.9v1M375.4 347.5v1M1269.7 205.4h1M108.6 310.0h1M827.2 285.1h1M528.1 32.4v1M475.3 26.4v1M1251.3 300.7h1M1037.9 39.5v1M307.6 320.2v1M597.1 351.0h1M61.5 160.0h1M1221.5 303.5v1M1118.3 197.7h1M151.0 179.0v1M346.8 321.8v1M578.3 4.6h1M859.4 325.4v1M1025.4 292.4v1M1213.1 217.4v1M83.9 295.0h1M23.5 80.1v1M792.3 80.4v1M325.9 100.1h1M726.3 326.8h1M1219.5 288.6v1M211.7 56.0h1M69.1 148.5h1M1168.4 182.2v1M123.9 226.8v1M581.7 106.3h1M245.4 265.9h1M55.6 325.1h1M1104.0 331.7h1M1116.8 199.0v1M614.9 267.4h1M110.6 12.0v1M3.4 23.1h1M1258.8 284.0h1M172.7 337.0v1M305.4 164.0h1M1175.2 127.4h1M629.1 19.1h1M276.4 117.6h1M1271.4 203.6v1M970.4 327.8v1M1172.4 285.1v1M1029.3 63.7h1M603.4 55.9v1M1189.9 262.2v1M1005.0 347.8v1M193.4 145.6h1M580.3 25.1v1M1252.8 16.9h1M695.9 343.3h1M189.6 251.4v1M797.1 329.0v1M598.3 333.9v1M1019.7 281.9h1M739.8 13.8h1M1239.5 183.7h1M1207.2 248.9h1M550.8 65.9v1M1027.4 245.8h1M154.5 320.3h1M1262.1 344.3v1M1036.1 10.0h1M241.4 125.8v1M1212.6 260.6v1M1137.5 17.4v1M211.9 239.3v1M227.6 261.6v1M18.7 298.6h1M819.1 314.5h1M1.1 332.9v1M210.1 237.0h1M1177.4 174.3v1M117.0 181.5v1M680.6 47.3v1M1078.5 28.1h1M689.8 358.7v1M1248.3 319.5h1M172.8 219.4h1M202.8 311.4v1M525.2 274.0h1M464.3 324.1v1M1021.0 46.4h1M1216.1 318.6h1M267.0 76.5h1M6.4 101.5v1M1276.8 228.0h1M26.5 286.0h1M78.0 137.8v1M190.1 289.7h1M15.5 268.8v1M19.3 123.8h1M121.2 193.8v1M56.6 37.9h1M1203.4 220.2v1M1218.6 209.5v1M317.4 76.1h1M429.8 25.6v1M986.5 354.1v1M53.4 294.2h1M1143.6 125.7v1M729.1 356.4h1M16.7 156.0h1M350.5 334.2v1M607.8 293.8v1M1245.2 96.6v1M88.3 226.9v1M834.1 324.7v1M581.7 342.2v1M593.4 334.0h1M832.7 61.8h1M344.5 38.2v1M674.9 12.2h1M395.8 50.9v1M1157.2 302.3v1M1238.2 120.7h1M1173.2 338.7h1M494.5 311.3v1M72.4 174.0h1M251.8 312.9v1M89.5 113.3v1M1261.7 339.9v1M456.4 340.2h1M1057.6 287.6v1M756.4 39.2h1M1008.6 313.8v1M31.0 142.9v1M277.2 193.5h1M104.9 234.2h1M270.5 323.9v1M163.5 176.2v1M35.9 55.6h1M314.8 253.9h1M298.0 263.4h1M18.6 267.3v1M879.7 94.6v1M615.7 340.2v1M469.0 40.2h1M282.7 51.1h1M597.6 343.2v1M1143.2 198.1h1M827.6 332.3h1M358.7 341.7v1M430.4 275.2v1M34.1 258.4h1M1160.3 247.2h1M27.0 328.2h1M283.7 166.9v1M477.8 286.7v1M522.6 36.6h1M17.1 130.7v1M405.9 324.2h1M1167.9 41.0v1M156.3 40.3v1M31.9 185.2v1M835.6 313.3v1M169.6 337.3h1M144.6 311.8v1M1112.3 268.3v1M100.7 343.7v1M250.4 263.9v1M76.6 323.6v1M1202.8 147.3v1M548.0 295.4h1M565.7 16.0h1M3.9 206.3v1M132.3 61.6h1M719.2 7.8h1M1164.8 6.0h1M1258.2 209.2v1M287.2 334.6h1M66.4 163.9v1M1109.8 293.1v1M41.7 305.1v1M1097.7 281.8v1M279.9 341.0v1M903.0 13.4h1M3.5 127.2h1M261.7 279.6v1M742.4 22.0h1M126.6 343.1v1M803.9 356.2v1M1231.0 70.3h1M1096.1 330.6h1M25.7 278.6h1M1009.7 208.4h1M800.8 97.9v1M497.5 358.0v1M1021.4 48.1v1M182.4 274.6v1M1253.3 176.6v1M312.8 333.4v1M29.0 49.2v1M21.0 297.1v1M1183.2 8.1h1M554.0 289.5v1M82.8 57.4h1M76.1 171.2h1M1259.0 75.5h1M1156.7 209.6h1M790.7 254.7h1M1156.1 66.8h1M109.5 44.6h1M469.3 337.5h1M467.6 316.7h1M1075.4 131.2v1M1186.8 217.5v1M835.0 353.7h1M117.2 333.3h1M953.5 27.5h1M100.7 251.4h1M516.2 101.1v1M144.0 306.1h1M247.8 251.6v1M1088.0 87.6h1M459.8 55.5h1M79.7 125.5h1M602.2 17.0v1M195.9 82.3h1M443.8 62.9v1M544.6 319.3h1M955.9 301.3h1M68.2 114.1h1M84.1 137.6v1M516.4 21.8h1M711.7 299.2v1M823.4 309.2v1M57.0 101.2h1M341.5 182.4v1M1007.4 248.8h1M278.3 320.1v1M1172.2 106.3h1M180.6 244.0v1M26.1 225.1v1M947.9 223.4v1M1169.7 29.9h1M1214.3 196.3h1M1159.5 337.5h1M259.6 140.5h1M988.2 297.0v1M907.2 88.1h1M135.1 179.8v1M295.5 233.3v1M963.6 60.8v1M1231.2 123.5h1M790.8 348.7v1M138.9 164.0h1M189.7 94.3h1M1274.5 280.7v1M1274.5 241.2h1M1255.0 286.8h1M132.7 7.0h1M182.5 179.1h1M366.0 294.1v1M962.9 187.9h1M750.3 297.8v1M271.4 91.2h1M1249.1 291.0h1M598.6 347.6v1M611.1 355.9h1M573.6 338.8v1M991.1 355.1v1M1127.6 22.9h1M1173.4 175.6h1M14.7 115.8h1M197.7 255.7h1M1258.8 92.5h1M125.9 230.5v1M1093.0 134.7v1M16.5 35.2h1M965.5 195.5v1M273.0 168.7v1M1074.1 255.4v1M1097.6 265.7v1M1209.0 36.6h1M1044.2 234.1h1M10.1 312.0h1M536.4 301.8h1M517.4 35.7h1M951.0 275.6h1M832.3 353.4v1M1225.3 252.1h1M1073.7 221.7v1M1236.2 103.1v1M86.5 314.4h1M417.7 356.2h1M1151.9 181.5h1M89.3 254.0h1M490.6 72.5h1M1200.2 242.8h1M858.5 18.4v1M944.5 155.5h1M1220.3 201.5h1M449.6 22.4h1M137.0 193.9v1M4.5 206.3h1M1047.5 322.3h1M737.8 7.3h1M1215.6 261.1h1M122.4 106.4h1M568.6 339.1v1M165.2 359.0h1M942.8 14.4h1M108.5 310.6v1M1012.2 161.7h1M1041.6 70.9v1M835.0 331.5v1M41.1 133.9h1M129.0 19.1h1M718.6 49.0v1M1188.0 156.4h1M691.4 2.0h1M1274.1 326.2h1M195.9 12.9h1M981.0 306.5v1M1214.6 322.6h1M436.1 36.9v1M371.5 338.8h1M1163.8 185.6h1M2.2 5.5v1M1271.5 243.9v1M619.2 52.5v1M202.1 314.7h1M405.3 4.3h1M252.1 12.1h1M1033.9 310.7h1M863.4 18.1v1M348.3 58.6h1M64.8 343.4v1M15.0 170.8h1M986.9 168.4h1M473.3 19.5h1M1091.4 106.5h1M1196.8 301.7h1M349.1 299.6h1M168.2 199.1h1M450.1 316.8v1M1071.4 320.1h1M418.2 324.7h1M174.1 190.6h1M119.4 224.6v1M157.7 139.2v1M41.8 173.8h1M94.4 347.3v1M928.9 171.6v1M169.7 44.3v1M759.0 307.1h1M1173.3 228.7h1M1076.1 356.9v1M167.9 236.8h1M693.3 299.3v1M1098.0 345.3h1M1078.3 65.1v1M700.6 32.6h1M1249.1 354.9h1M993.7 345.9h1M477.4 352.2v1M1183.4 269.5h1M20.6 204.4h1M753.3 275.0v1M284.2 34.0h1M780.6 352.7v1M59.7 61.7h1M162.6 166.5h1M977.0 100.5v1M248.0 29.4v1M726.3 24.6v1M1142.2 133.0v1M1059.0 316.0v1M233.0 208.9h1M253.9 36.3v1M617.6 22.6h1M1134.1 156.5h1M335.3 169.8v1M23.2 29.3v1M233.0 348.3h1M38.0 99.6v1M11.8 178.0h1M233.7 32.6v1M411.3 73.5v1M449.6 26.9v1M535.4 24.9h1M315.5 153.6h1M144.7 249.0v1M98.1 134.8v1M110.7 144.4h1M332.2 317.2v1M1224.6 42.4v1M57.8 5.9h1M708.7 15.4h1M1105.3 354.1v1"/>
  </g>
  <path d="M512.768 165.996A128 128 0 0 1 767.993 178.672A128 128 0 0 1 513.086 196.641" fill="none" stroke="#6e1f14" stroke-width="4" stroke-linecap="butt" opacity="0.55"/>
  <text x="639.295" y="203.614" transform="rotate(0.503, 639.295, 203.614)" opacity="0.101" data-weight="0.101" font-family="Georgia, 'Times New Roman', Times, serif" font-size="83.53" font-weight="600" letter-spacing="2" text-anchor="middle" fill="#6e1f14">palimpsest-our boros</text>
  <text x="633.314" y="205.222" transform="rotate(0.428, 633.314, 205.222)" opacity="0.14" data-weight="0.14" font-family="Georgia, 'Times New Roman', Times, serif" font-size="83.409" font-weight="600" letter-spacing="2" text-anchor="middle" fill="#6e1f14">pal mpsest-ourobo os</text>
  <text x="629.361" y="203.739" transform="rotate(0.442, 629.361, 203.739)" opacity="0.194" data-weight="0.194" font-family="Georgia, 'Times New Roman', Times, serif" font-size="120" font-weight="600" letter-spacing="2" text-anchor="middle" fill="#6e1f14">οὐρο όρος</text>
  <text x="629.361" y="203.739" transform="rotate(0.442, 629.361, 203.739)" opacity="0.039" data-weight="0.194" font-family="Georgia, 'Times New Roman', Times, serif" font-size="120" font-weight="600" letter-spacing="2" text-anchor="middle" fill="#0b0a09">οὐρο όρος</text>
  <text x="628.327" y="189.165" transform="rotate(0.191, 628.327, 189.165)" opacity="0.269" data-weight="0.269" font-family="Georgia, 'Times New Roman', Times, serif" font-size="95.1" font-weight="600" letter-spacing="2" text-anchor="middle" fill="#6e1f14">the tai  is t e mouth</text>
  <text x="628.327" y="189.165" transform="rotate(0.191, 628.327, 189.165)" opacity="0.108" data-weight="0.269" font-family="Georgia, 'Times New Roman', Times, serif" font-size="95.1" font-weight="600" letter-spacing="2" text-anchor="middle" fill="#0b0a09">the tai  is t e mouth</text>
  <text x="623.206" y="192.664" transform="rotate(0.106, 623.206, 192.664)" opacity="0.373" data-weight="0.373" font-family="Georgia, 'Times New Roman', Times, serif" font-size="120" font-weight="600" letter-spacing="2" text-anchor="middle" fill="#6e1f14"> V62</text>
  <text x="623.206" y="192.664" transform="rotate(0.106, 623.206, 192.664)" opacity="0.224" data-weight="0.373" font-family="Georgia, 'Times New Roman', Times, serif" font-size="120" font-weight="600" letter-spacing="2" text-anchor="middle" fill="#0b0a09"> V62</text>
  <text x="621.19" y="192.356" transform="rotate(0.007, 621.19, 192.356)" opacity="0.518" data-weight="0.518" font-family="Georgia, 'Times New Roman', Times, serif" font-size="68.857" font-weight="600" letter-spacing="2" text-anchor="middle" fill="#6e1f14">MESPE IT-AR-AT-MAATU</text>
  <text x="621.19" y="192.356" transform="rotate(0.007, 621.19, 192.356)" opacity="0.414" data-weight="0.518" font-family="Georgia, 'Times New Roman', Times, serif" font-size="68.857" font-weight="600" letter-spacing="2" text-anchor="middle" fill="#0b0a09">MESPE IT-AR-AT-MAATU</text>
  <text x="620.496" y="188.473" transform="rotate(-0.346, 620.496, 188.473)" opacity="0.72" data-weight="0.72" font-family="Georgia, 'Times New Roman', Times, serif" font-size="44.536" font-weight="600" letter-spacing="2" text-anchor="middle" fill="#6e1f14">KHEFTES-HAU-HESQET-[NEHA]-HRA</text>
  <text x="620.496" y="188.473" transform="rotate(-0.346, 620.496, 188.473)" opacity="0.72" data-weight="0.72" font-family="Georgia, 'Times New Roman', Times, serif" font-size="44.536" font-weight="600" letter-spacing="2" text-anchor="middle" fill="#0b0a09">KHEFTES-HAU-HESQET-[NEHA]-HRA</text>
  <g>
      <animateTransform attributeName="transform" type="translate"
        values="-1.5 0;1.5 0;-1.5 0" keyTimes="0;0.5;1"
        calcMode="spline" keySplines="0.42 0 0.58 1;0.42 0 0.58 1"
        dur="11s" repeatCount="indefinite"/>
    <text x="631.273" y="184.242" transform="rotate(0, 631.273, 184.242)" opacity="1" data-weight="1" font-family="Georgia, 'Times New Roman', Times, serif" font-size="120" font-weight="600" letter-spacing="2" text-anchor="middle" fill="#0b0a09">NEBT-USHA</text>
  </g>
</svg>
